/* XPM */
static char *error_xpm[] = {
"16 16 5 1 0 0",
"  c #000000",
"! c #FF0000",
"# c #333333",
"$ c #FF8080",
"% c None",
"################",
"#%%%%%%%%%%%%%%#",
"#%%!!!!!!%%%%%%#",
"#%%!!!!!!%%%%%%#",
"#%%!!$%%%%%%%%%#",
"#%%!!%%%%%%%%%%#",
"#%%!!%%%%%%%%%%#",
"#%%!!!!!%%%%%%%#",
"#%%!!!!!%%%%%%%#",
"#%%!!$%%%%%%%%%#",
"#%%!!%%%%%%%%%%#",
"#%%!!%%%%%%%%%%#",
"#%%!!!!!!%%%%%%#",
"#%%!!!!!!%%%%%%#",
"#%%%%%%%%%%%%%%#",
"################"
};
