/* XPM */
static char *filter_xpm[] = {
"16 16 14 1 0 0",
"  c #000000",
"! c #151515",
"# c #181818",
"$ c #202020",
"% c #242424",
"& c #2C2C2C",
"' c #323232",
"( c #333333",
") c #474747",
"* c #848484",
"+ c #898989",
", c #929292",
"- c #FFFFFF",
". c None",
"................",
"..)&((((((((#!..",
"..* ........  ..",
".. %,......  ...",
"...  '..... ....",
"....$+.... .....",
"....   ... .....",
"..... ... ......",
"...... .. ......",
"...... .. ......",
"...... .. ......",
"...... .. ......",
"...... .. ......",
"...... .. ......",
"......    ......",
"................"
};
