/* XPM */
static char *log_red_xpm[] = {
"16 16 7 1 0 0",
"  c #000000",
"! c #FF0000",
"# c #2B2B2B",
"$ c #4E4E4E",
"% c #717171",
"& c #FFFFFF",
"' c None",
"                ",
" '''''''''''''' ",
" '&  %''''''''' ",
" '&  #''''''''' ",
" '&  #'!!!!!!'' ",
" '&  #'!!!!!!'' ",
" '&  #'!!!!!!'' ",
" '&  #'!!!!!!'' ",
" '&  #'!!!!!!'' ",
" '&  #'!!!!!!'' ",
" '&  #''''''''' ",
" '&  #''''''''' ",
" '&        $''' ",
" '&        $''' ",
" '&&&&&&&&&'''' ",
"                "
};
