/* XPM */
static char *user_xpm[] = {
"16 16 3 1 0 0",
"  c #000000",
"! c #3F28D9",
"# c None",
"                ",
" ############## ",
" ############## ",
" ##!!###!!##### ",
" ##!!###!!##### ",
" ##!!###!!##### ",
" ##!!###!!##### ",
" ##!!###!!##### ",
" ##!!###!!##### ",
" ##!!###!!##### ",
" ##!!###!!##### ",
" ##!!###!!##### ",
" ###!!!!!###### ",
" ############## ",
" ############## ",
"                "
};
