/* XPM */
static char *war_xpm[] = {
"16 16 3 1 0 0",
"  c #000000",
"! c #C0C0C0",
"# c None",
"                ",
" ############## ",
" ############## ",
" ############## ",
"   ###   ###  ! ",
"   !##   ###  ! ",
" #  !# ! !#! !! ",
" #  !! !  #  !# ",
" #  !  !  #  !# ",
" #  !  !# #  !# ",
" ## ! !!# ! !!# ",
" ##   !##   !## ",
" ##   !##   !## ",
" ##   !##   !## ",
" ############## ",
"                "
};
