<?xml version="1.0" encoding="UTF-8" standalone="no"?>
<!-- Created with Inkscape (http://www.inkscape.org/) -->

<svg
   version="1.1"
   id="svg2"
   width="32"
   height="32"
   viewBox="0 0 32 32"
   sodipodi:docname="clip_copy_sql.svg"
   inkscape:version="1.2.2 (732a01da63, 2022-12-09)"
   xmlns:inkscape="http://www.inkscape.org/namespaces/inkscape"
   xmlns:sodipodi="http://sodipodi.sourceforge.net/DTD/sodipodi-0.dtd"
   xmlns:xlink="http://www.w3.org/1999/xlink"
   xmlns="http://www.w3.org/2000/svg"
   xmlns:svg="http://www.w3.org/2000/svg">
  <defs
     id="defs6">
    <rect
       x="-24"
       y="19.728155"
       width="29.747573"
       height="30.291261"
       id="rect322" />
    <rect
       x="5.2815534"
       y="16"
       width="23.84466"
       height="16"
       id="rect316" />
    <rect
       x="5.4368932"
       y="14.990291"
       width="20.970874"
       height="15.14186"
       id="rect243" />
    <linearGradient
       id="linearGradient1097"
       inkscape:swatch="solid">
      <stop
         style="stop-color:#000000;stop-opacity:1;"
         offset="0"
         id="stop1095" />
    </linearGradient>
    <linearGradient
       id="linearGradient1002"
       inkscape:swatch="solid">
      <stop
         style="stop-color:#000000;stop-opacity:1;"
         offset="0"
         id="stop1000" />
    </linearGradient>
    <linearGradient
       inkscape:collect="always"
       xlink:href="#linearGradient1002"
       id="linearGradient1099"
       x1="-11.728155"
       y1="10.893204"
       x2="-4.9708743"
       y2="10.893204"
       gradientUnits="userSpaceOnUse"
       gradientTransform="matrix(1.0061074,0,0,1.0439072,25.022213,1.1492913)" />
    <linearGradient
       inkscape:collect="always"
       xlink:href="#linearGradient1002"
       id="linearGradient6479"
       gradientUnits="userSpaceOnUse"
       gradientTransform="matrix(1.0061074,0,0,1.0439072,25.022213,1.1492913)"
       x1="-11.728155"
       y1="10.893204"
       x2="-4.9708743"
       y2="10.893204" />
  </defs>
  <sodipodi:namedview
     id="namedview4"
     pagecolor="#ffffff"
     bordercolor="#111111"
     borderopacity="1"
     inkscape:showpageshadow="0"
     inkscape:pageopacity="0"
     inkscape:pagecheckerboard="1"
     inkscape:deskcolor="#d1d1d1"
     showgrid="false"
     inkscape:zoom="12.875"
     inkscape:cx="1.8640777"
     inkscape:cy="30.135922"
     inkscape:window-width="1431"
     inkscape:window-height="885"
     inkscape:window-x="-8"
     inkscape:window-y="-8"
     inkscape:window-maximized="1"
     inkscape:current-layer="layer1" />
  <g
     inkscape:groupmode="layer"
     inkscape:label="Image"
     id="g8"
     transform="translate(0,-0.0776699)"
     style="display:inline">
    <g
       id="g265"
       sodipodi:insensitive="true"
       style="display:inline">
      <g
         id="g6372"
         transform="translate(0.69902941,1.0097087)"
         sodipodi:insensitive="true"
         style="display:inline">
        <g
           id="g1201"
           transform="translate(-0.77669876,-0.81553406)">
          <path
             style="fill:#ffffff;fill-opacity:1;stroke:url(#linearGradient1099);stroke-width:1.02483;stroke-opacity:1;image-rendering:auto"
             d="m 13.222431,16.027506 6.798553,-7.1350577 -0.03907,7.2566767 z"
             id="path1060" />
          <path
             style="fill:#ffffff;fill-opacity:1;stroke:#000000;stroke-opacity:1"
             d="m 20.932038,8.1553398 9.631068,0.038835 -0.03883,21.3203882 -17.902912,-0.03883 c -0.09412,-3.984413 -0.07571,-12.879854 -4e-6,-12.970873 h 8.233009 z"
             id="path1101"
             sodipodi:nodetypes="ccccccc" />
        </g>
        <g
           id="g4378">
          <rect
             style="fill:#0a23b7;fill-opacity:1;stroke:#0a23b7;stroke-width:0.995985;stroke-opacity:1"
             id="rect4324-0"
             width="10.683627"
             height="0.042850271"
             x="15.978575"
             y="25.764982" />
          <rect
             style="fill:#0a23b7;fill-opacity:1;stroke:#0a23b7;stroke-width:0.995985;stroke-opacity:1"
             id="rect4324-5"
             width="10.683627"
             height="0.042850271"
             x="15.978575"
             y="23.247183" />
          <rect
             style="fill:#0a23b7;fill-opacity:1;stroke:#0a23b7;stroke-width:0.995985;stroke-opacity:1"
             id="rect4324-9"
             width="10.683627"
             height="0.042850271"
             x="15.978575"
             y="20.729383" />
          <rect
             style="fill:#0a23b7;fill-opacity:1;stroke:#0a23b7;stroke-width:0.995985;stroke-opacity:1"
             id="rect4324"
             width="10.683627"
             height="0.042850271"
             x="15.978575"
             y="18.211584" />
        </g>
      </g>
      <g
         id="g6372-5"
         transform="translate(-8.9338887,-6.732438)"
         style="display:inline"
         inkscape:label="g6372-5">
        <g
           id="g1201-3"
           transform="translate(-0.77669876,-0.81553406)">
          <path
             style="fill:#ffffff;fill-opacity:1;stroke:url(#linearGradient6479);stroke-width:1.02483;stroke-opacity:1;image-rendering:auto"
             d="m 13.222431,16.027506 6.798553,-7.1350577 -0.03907,7.2566767 z"
             id="path1060-1" />
          <path
             style="fill:#ffffff;fill-opacity:1;stroke:#000000;stroke-opacity:1"
             d="m 20.932038,8.1553398 9.631068,0.038835 -0.03883,21.3203882 -17.902912,-0.03883 c -0.09412,-3.984413 -0.07571,-12.879854 -4e-6,-12.970873 h 8.233009 z"
             id="path1101-5"
             sodipodi:nodetypes="ccccccc" />
        </g>
        <g
           id="g4378-9">
          <rect
             style="fill:#0a23b7;fill-opacity:1;stroke:#0a23b7;stroke-width:0.995985;stroke-opacity:1"
             id="rect4324-0-7"
             width="10.683627"
             height="0.042850271"
             x="15.978575"
             y="25.764982" />
          <rect
             style="fill:#0a23b7;fill-opacity:1;stroke:#0a23b7;stroke-width:0.995985;stroke-opacity:1"
             id="rect4324-5-7"
             width="10.683627"
             height="0.042850271"
             x="15.978575"
             y="23.247183" />
          <rect
             style="fill:#0a23b7;fill-opacity:1;stroke:#0a23b7;stroke-width:0.995985;stroke-opacity:1"
             id="rect4324-9-4"
             width="10.683627"
             height="0.042850271"
             x="15.978575"
             y="20.729383" />
          <rect
             style="fill:#0a23b7;fill-opacity:1;stroke:#0a23b7;stroke-width:0.995985;stroke-opacity:1"
             id="rect4324-2"
             width="10.683627"
             height="0.042850271"
             x="15.978575"
             y="18.211584" />
        </g>
      </g>
    </g>
  </g>
  <g
     inkscape:groupmode="layer"
     id="layer1"
     inkscape:label="Image 1"
     style="display:inline">
    <g
       aria-label="SQL"
       id="text320"
       style="white-space:pre;shape-inside:url(#rect322);display:inline"
       transform="translate(27.650485,-5.3592233)">
      <path
         d="m -16.488281,28.186245 q 0,0.509766 -0.240235,1.007813 -0.234375,0.498046 -0.662109,0.84375 -0.46875,0.375 -1.095703,0.585937 -0.621094,0.210938 -1.5,0.210938 -0.943359,0 -1.699219,-0.175782 -0.75,-0.175781 -1.529297,-0.521484 v -1.453125 h 0.08203 q 0.662109,0.550781 1.529296,0.849609 0.867188,0.298828 1.628907,0.298828 1.078125,0 1.675781,-0.404296 0.603516,-0.404297 0.603516,-1.078125 0,-0.580079 -0.28711,-0.855469 -0.28125,-0.275391 -0.861328,-0.427735 -0.439453,-0.117187 -0.955078,-0.193359 -0.509766,-0.07617 -1.083984,-0.193359 -1.160157,-0.246094 -1.722657,-0.837891 -0.55664,-0.597656 -0.55664,-1.552734 0,-1.095703 0.925781,-1.792969 0.925781,-0.703125 2.349609,-0.703125 0.919922,0 1.6875,0.175781 0.767578,0.175781 1.359375,0.433594 v 1.371094 h -0.08203 q -0.498047,-0.421875 -1.3125,-0.697266 -0.808594,-0.28125 -1.658203,-0.28125 -0.931641,0 -1.5,0.386719 -0.5625,0.386719 -0.5625,0.996094 0,0.544921 0.28125,0.855468 0.28125,0.310547 0.990234,0.47461 0.375,0.08203 1.066407,0.199218 0.691406,0.117188 1.171875,0.240235 0.972656,0.257812 1.464843,0.779297 0.492188,0.521484 0.492188,1.458984 z"
         id="path1092"
         style="fill:#ff0000" />
      <path
         d="m -6.84375,32.815151 q -0.3515625,0.08789 -0.6972656,0.123047 -0.3398438,0.04102 -0.6972657,0.04102 -1.0195312,0 -1.640625,-0.5625 -0.6152347,-0.556641 -0.6679687,-1.59961 -0.140625,0.02344 -0.275391,0.0293 -0.128906,0.01172 -0.251953,0.01172 -0.919922,0 -1.675781,-0.304687 -0.75,-0.304688 -1.277344,-0.884766 -0.527344,-0.580078 -0.814453,-1.423828 -0.28125,-0.84375 -0.28125,-1.927735 0,-1.066406 0.28125,-1.910156 0.28125,-0.849609 0.820313,-1.453125 0.515625,-0.574219 1.277343,-0.878906 0.767578,-0.304688 1.669922,-0.304688 0.9375,0 1.6816409,0.310547 0.75,0.304688 1.2714843,0.873047 0.5332032,0.585938 0.8144532,1.435547 0.2871094,0.849609 0.2871094,1.927734 0,1.59961 -0.65625,2.695313 -0.6503907,1.095703 -1.7519532,1.535156 0.023437,0.667969 0.3164063,1.03711 0.2929687,0.36914 1.0664062,0.36914 0.2402344,0 0.5683594,-0.07617 0.3339844,-0.07031 0.4746094,-0.128906 H -6.84375 Z m -1.3828125,-6.498047 q 0,-1.699218 -0.7617188,-2.61914 Q -9.75,22.772183 -11.068359,22.772183 q -1.330079,0 -2.091797,0.925781 -0.75586,0.919922 -0.75586,2.61914 0,1.716797 0.773438,2.63086 0.773437,0.908203 2.074219,0.908203 1.3007809,0 2.068359,-0.908203 0.7734375,-0.914063 0.7734375,-2.63086 z"
         id="path1094"
         style="fill:#ff0000" />
      <path
         d="M 0.33984375,30.676479 H -5.1796875 V 21.95187 h 1.1601563 v 7.693359 h 4.35937495 z"
         id="path1096"
         style="fill:#ff0000" />
    </g>
  </g>
</svg>
