<?xml version="1.0" encoding="UTF-8" standalone="no"?>
<!DOCTYPE svg PUBLIC "-//W3C//DTD SVG 1.1//EN" "http://www.w3.org/Graphics/SVG/1.1/DTD/svg11.dtd">
<svg xmlns="http://www.w3.org/2000/svg" version="1.1" viewBox="0 0 32 32">
<g stroke-width="2.00" fill="none" stroke-linecap="butt">
<path stroke="#b5a959" vector-effect="non-scaling-stroke" d="
  M 19.21 7.50
  Q 18.21 8.01 17.91 7.17
  Q 17.74 6.68 17.41 6.39
  Q 16.56 5.63 16.75 4.54"
/>
<path stroke="#b5a959" vector-effect="non-scaling-stroke" d="
  M 20.75 8.54
  Q 20.68 11.46 23.37 11.10"
/>
<path stroke="#9f9f9f" vector-effect="non-scaling-stroke" d="
  M 14.09 5.71
  C 10.54 7.86 15.99 11.10 17.25 9.18
  A 1.03 0.62 -52.5 0 0 17.37 8.14
  L 15.16 5.60
  A 1.03 0.54 -33.4 0 0 14.09 5.71"
/>
<path stroke="#9f9f9f" vector-effect="non-scaling-stroke" d="
  M 15.50 12.25
  L 13.08 9.67
  A 0.62 0.57 52.8 0 0 12.34 9.54
  Q 8.06 12.12 9.83 16.85
  A 1.38 1.03 6.3 0 0 10.58 17.55
  Q 12.65 18.36 14.80 18.22
  C 17.95 18.02 21.16 14.91 16.27 12.87
  Q 15.96 12.74 15.50 12.25"
/>
</g>
<path fill="#e7d030" d="
  M 19.21 7.50
  Q 18.21 8.01 17.91 7.17
  Q 17.74 6.68 17.41 6.39
  Q 16.56 5.63 16.75 4.54
  L 20.09 1.51
  A 1.64 0.63 -50.9 0 1 20.91 1.04
  C 26.65 0.19 19.71 6.77 19.21 7.50
  Z"
/>
<path fill="#828281" d="
  M 16.75 4.54
  Q 16.56 5.63 17.41 6.39
  Q 17.74 6.68 17.91 7.17
  Q 18.21 8.01 19.21 7.50
  Q 19.62 8.54 20.75 8.54
  Q 20.68 11.46 23.37 11.10
  Q 25.72 16.82 19.73 17.36
  A 1.27 1.22 16.8 0 0 18.91 17.78
  Q 16.33 20.73 12.49 20.07
  C 11.31 19.87 9.96 20.15 9.46 21.17
  A 1.08 0.79 51.8 0 0 9.49 22.00
  Q 11.91 27.49 6.86 30.09
  A 1.28 1.25 42.1 0 1 5.81 30.13
  C 3.48 29.18 5.97 26.69 6.66 25.44
  A 1.04 0.85 -46.8 0 0 6.72 24.56
  Q 4.83 20.79 7.48 17.76
  A 1.73 0.70 85.0 0 0 7.79 16.75
  L 8.12 11.93
  A 1.72 1.29 -28.3 0 1 8.53 11.04
  L 10.65 8.66
  A 1.44 0.79 79.2 0 0 10.92 7.82
  Q 11.07 2.40 16.75 4.54
  Z
  M 14.09 5.71
  C 10.54 7.86 15.99 11.10 17.25 9.18
  A 1.03 0.62 -52.5 0 0 17.37 8.14
  L 15.16 5.60
  A 1.03 0.54 -33.4 0 0 14.09 5.71
  Z
  M 15.50 12.25
  L 13.08 9.67
  A 0.62 0.57 52.8 0 0 12.34 9.54
  Q 8.06 12.12 9.83 16.85
  A 1.38 1.03 6.3 0 0 10.58 17.55
  Q 12.65 18.36 14.80 18.22
  C 17.95 18.02 21.16 14.91 16.27 12.87
  Q 15.96 12.74 15.50 12.25
  Z"
/>
<path fill="#e7d030" d="
  M 23.37 11.10
  Q 20.68 11.46 20.75 8.54
  C 21.46 8.06 27.85 1.57 26.92 7.04
  A 1.78 1.23 -27.2 0 1 26.47 7.88
  L 23.37 11.10
  Z"
/>
<path fill="#bbbcbc" d="
  M 17.25 9.18
  C 15.99 11.10 10.54 7.86 14.09 5.71
  A 1.03 0.54 -33.4 0 1 15.16 5.60
  L 17.37 8.14
  A 1.03 0.62 -52.5 0 1 17.25 9.18
  Z"
/>
<path fill="#bbbcbc" d="
  M 16.27 12.87
  C 21.16 14.91 17.95 18.02 14.80 18.22
  Q 12.65 18.36 10.58 17.55
  A 1.38 1.03 6.3 0 1 9.83 16.85
  Q 8.06 12.12 12.34 9.54
  A 0.62 0.57 52.8 0 1 13.08 9.67
  L 15.50 12.25
  Q 15.96 12.74 16.27 12.87
  Z"
/>
</svg>
