<?xml version="1.0" encoding="UTF-8" standalone="no"?>
<!-- Created with Inkscape (http://www.inkscape.org/) -->

<svg
   width="59.065338mm"
   height="59.065338mm"
   viewBox="0 0 6.3639856 6.3639856"
   version="1.1"
   id="svg35290"
   xml:space="preserve"
   inkscape:version="1.2.2 (732a01da63, 2022-12-09)"
   sodipodi:docname="edit_find.svg"
   xmlns:inkscape="http://www.inkscape.org/namespaces/inkscape"
   xmlns:sodipodi="http://sodipodi.sourceforge.net/DTD/sodipodi-0.dtd"
   xmlns:xlink="http://www.w3.org/1999/xlink"
   xmlns="http://www.w3.org/2000/svg"
   xmlns:svg="http://www.w3.org/2000/svg"><sodipodi:namedview
     id="namedview35292"
     pagecolor="#ffffff"
     bordercolor="#111111"
     borderopacity="1"
     inkscape:showpageshadow="0"
     inkscape:pageopacity="0"
     inkscape:pagecheckerboard="1"
     inkscape:deskcolor="#d1d1d1"
     inkscape:document-units="mm"
     showgrid="false"
     shape-rendering="auto"
     inkscape:zoom="1.4128928"
     inkscape:cx="322.7421"
     inkscape:cy="72.90008"
     inkscape:window-width="1920"
     inkscape:window-height="1017"
     inkscape:window-x="-4"
     inkscape:window-y="-4"
     inkscape:window-maximized="1"
     inkscape:current-layer="layer1" /><defs
     id="defs35287"><linearGradient
       inkscape:collect="always"
       id="linearGradient40941"><stop
         style="stop-color:#ffffff;stop-opacity:1;"
         offset="0"
         id="stop40937" /><stop
         style="stop-color:#2037b8;stop-opacity:1;"
         offset="1"
         id="stop40939" /></linearGradient><linearGradient
       inkscape:collect="always"
       xlink:href="#linearGradient40941"
       id="linearGradient40943"
       x1="145.77008"
       y1="130.59019"
       x2="148.53006"
       y2="130.59019"
       gradientUnits="userSpaceOnUse" /></defs><g
     inkscape:label="Слой 1"
     inkscape:groupmode="layer"
     id="layer1"
     transform="translate(-139.05627,-133.79422)"><g
       id="g39421"
       transform="matrix(-2.1961271,0,0,2.2315155,465.44839,-154.38247)"><path
         style="fill:none;stroke-width:0.0285075"
         d="m 145.72174,130.58612 v -1.42537 h 1.42537 1.42538 v 1.42537 1.42538 h -1.42538 -1.42537 z"
         id="path39451" /><path
         style="fill:url(#linearGradient40943);fill-opacity:1;stroke-width:0.0285075"
         d="m 148.13062,131.94204 c -0.047,-0.0213 -0.23848,-0.1932 -0.42542,-0.38199 -0.2723,-0.275 -0.3334,-0.35111 -0.30718,-0.3827 0.0259,-0.0312 0.009,-0.0622 -0.079,-0.14849 l -0.11169,-0.10906 -0.15128,0.0666 c -0.59122,0.26047 -1.2848,-0.18466 -1.28597,-0.82531 -6.3e-4,-0.34609 0.13089,-0.6127 0.39053,-0.79162 0.47346,-0.32628 1.10927,-0.16055 1.36324,0.35533 0.12016,0.24408 0.12894,0.53105 0.0236,0.77024 l -0.0666,0.15128 0.10906,0.11169 c 0.0863,0.0884 0.1173,0.10486 0.1485,0.079 0.0515,-0.0428 0.73288,0.62707 0.77853,0.76537 0.0439,0.13302 -0.0259,0.2844 -0.15626,0.33887 -0.11944,0.0499 -0.12148,0.0499 -0.23,7.8e-4 z"
         id="path39449" /><path
         style="fill:#d2d2d3;stroke-width:0.0285075"
         d="m 148.15913,131.94999 c -0.0549,-0.0144 -0.21231,-0.14961 -0.43969,-0.37778 -0.30976,-0.31085 -0.3494,-0.36115 -0.31616,-0.4012 0.0328,-0.0395 0.0231,-0.061 -0.0706,-0.15696 l -0.10856,-0.11118 -0.11029,0.0563 c -0.60674,0.30953 -1.3344,-0.13536 -1.34004,-0.81931 -0.002,-0.27626 0.071,-0.45152 0.27322,-0.65377 0.20225,-0.20225 0.37751,-0.2755 0.65377,-0.27322 0.68395,0.006 1.12884,0.7333 0.81931,1.34004 l -0.0563,0.11029 0.11118,0.10856 c 0.0959,0.0937 0.11744,0.10336 0.15696,0.0706 0.0401,-0.0332 0.0904,0.006 0.4012,0.31616 0.42753,0.42603 0.47964,0.54836 0.30712,0.72088 -0.0809,0.0808 -0.16317,0.10153 -0.28119,0.0707 z m -1.22464,-1.30342 c 0.56421,-0.25628 0.33625,-1.13029 -0.28103,-1.07746 -0.32564,0.0279 -0.51784,0.23761 -0.51817,0.56546 -1.7e-4,0.16511 0.011,0.2057 0.0853,0.31139 0.16363,0.23252 0.46016,0.31585 0.71387,0.20061 z"
         id="path39447" /><path
         style="fill:#7cd6f4;stroke-width:0.0285075"
         d="m 147.75528,131.60548 c -0.31124,-0.30516 -0.35409,-0.35835 -0.34109,-0.42336 0.0118,-0.0588 -0.007,-0.096 -0.0912,-0.17795 l -0.1061,-0.10361 -0.11665,0.0577 c -0.44568,0.2205 -0.99096,0.0367 -1.23113,-0.41492 -0.10665,-0.20055 -0.11117,-0.61676 -0.009,-0.81246 0.0914,-0.17481 0.24657,-0.33198 0.41739,-0.42281 0.20943,-0.11137 0.61728,-0.11137 0.82671,0 0.45,0.23929 0.63462,0.78707 0.41492,1.23113 l -0.0577,0.11665 0.10361,0.1061 c 0.0819,0.0839 0.11916,0.10299 0.17795,0.0912 0.065,-0.013 0.1182,0.0299 0.42336,0.34109 l 0.349,0.35595 v 0.11879 c 0,0.16727 -0.11818,0.28545 -0.28545,0.28545 h -0.11879 z m -0.81371,-0.95957 c 0.44198,-0.22665 0.42449,-0.8524 -0.0291,-1.04193 -0.37693,-0.1575 -0.79035,0.11766 -0.79035,0.52602 0,0.42003 0.4518,0.70447 0.81947,0.51591 z"
         id="path39445" /><path
         style="fill:#a5a6a8;stroke-width:0.0285075"
         d="m 147.75528,131.60548 c -0.31124,-0.30516 -0.35409,-0.35835 -0.34109,-0.42336 0.0118,-0.0588 -0.007,-0.096 -0.0912,-0.17795 l -0.1061,-0.10361 -0.11665,0.0577 c -0.44568,0.2205 -0.99096,0.0367 -1.23113,-0.41492 -0.10665,-0.20055 -0.11117,-0.61676 -0.009,-0.81246 0.0914,-0.17481 0.24657,-0.33198 0.41739,-0.42281 0.20943,-0.11137 0.61728,-0.11137 0.82671,0 0.45,0.23929 0.63462,0.78707 0.41492,1.23113 l -0.0577,0.11665 0.10361,0.1061 c 0.0819,0.0839 0.11916,0.10299 0.17795,0.0912 0.065,-0.013 0.1182,0.0299 0.42336,0.34109 l 0.349,0.35595 v 0.11879 c 0,0.16727 -0.11818,0.28545 -0.28545,0.28545 h -0.11879 z m -0.68123,-0.7179 c 0.29816,-0.14588 0.45674,-0.4089 0.45674,-0.75758 0,-0.25629 -0.0661,-0.42358 -0.23333,-0.59085 -0.41672,-0.41671 -1.12249,-0.29879 -1.37058,0.229 -0.34238,0.72838 0.42196,1.47424 1.14717,1.11943 z m -0.58588,-0.13953 c -0.28341,-0.10596 -0.43859,-0.32543 -0.43859,-0.62028 0,-0.36937 0.27076,-0.63918 0.64141,-0.63918 0.67268,0 0.89938,0.91091 0.30282,1.21677 -0.14212,0.0729 -0.37282,0.0923 -0.50564,0.0427 z m 0.4534,-0.10214 c 0.44198,-0.22665 0.42449,-0.8524 -0.0291,-1.04193 -0.37693,-0.1575 -0.79035,0.11766 -0.79035,0.52602 0,0.42003 0.4518,0.70447 0.81947,0.51591 z"
         id="path39443" /><path
         style="fill:#68b4cd;stroke-width:0.0285075"
         d="m 147.76378,131.58633 c -0.30064,-0.29823 -0.36482,-0.37576 -0.3379,-0.4082 0.0266,-0.0321 0.009,-0.0643 -0.0907,-0.16165 l -0.1239,-0.1216 -0.12475,0.0665 c -0.10544,0.0562 -0.16666,0.0665 -0.39557,0.0665 l -0.27082,8e-5 -0.15267,-0.0846 c -0.54797,-0.30352 -0.65613,-1.02036 -0.21978,-1.4567 0.43634,-0.43635 1.15318,-0.32819 1.4567,0.21978 l 0.0846,0.15267 -8e-5,0.27082 c -6e-5,0.22891 -0.0104,0.29013 -0.0666,0.39557 l -0.0665,0.12475 0.1216,0.1239 c 0.0974,0.0992 0.12959,0.11728 0.16165,0.0907 0.0324,-0.0269 0.10997,0.0373 0.4082,0.3379 l 0.36815,0.37114 v 0.10695 c 0,0.14913 -0.12447,0.2736 -0.2736,0.2736 h -0.10695 z m -0.68973,-0.69875 c 0.29816,-0.14588 0.45674,-0.4089 0.45674,-0.75758 0,-0.25629 -0.0661,-0.42358 -0.23333,-0.59085 -0.41672,-0.41671 -1.12249,-0.29879 -1.37058,0.229 -0.34238,0.72838 0.42196,1.47424 1.14717,1.11943 z m -0.58588,-0.13953 c -0.28341,-0.10596 -0.43859,-0.32543 -0.43859,-0.62028 0,-0.36937 0.27076,-0.63918 0.64141,-0.63918 0.67268,0 0.89938,0.91091 0.30282,1.21677 -0.14212,0.0729 -0.37282,0.0923 -0.50564,0.0427 z m 0.5221,-0.13155 c 0.29296,-0.20074 0.34237,-0.61415 0.10428,-0.87245 -0.13706,-0.14869 -0.25995,-0.19463 -0.47833,-0.17884 -0.35562,0.0257 -0.5746,0.33992 -0.50298,0.72169 0.0224,0.11931 0.18939,0.31796 0.31544,0.37521 0.13615,0.0618 0.4409,0.0371 0.56159,-0.0456 z"
         id="path39441" /><path
         style="fill:#5691a5;stroke-width:0.0285075"
         d="m 147.76378,131.58633 c -0.30064,-0.29823 -0.36482,-0.37576 -0.3379,-0.4082 0.0266,-0.0321 0.009,-0.0643 -0.0907,-0.16165 l -0.1239,-0.1216 -0.12475,0.0665 c -0.10544,0.0562 -0.16666,0.0665 -0.39557,0.0665 l -0.27082,8e-5 -0.15267,-0.0846 c -0.54797,-0.30352 -0.65613,-1.02036 -0.21978,-1.4567 0.43634,-0.43635 1.15318,-0.32819 1.4567,0.21978 l 0.0846,0.15267 -8e-5,0.27082 c -6e-5,0.22891 -0.0104,0.29013 -0.0666,0.39557 l -0.0665,0.12475 0.1216,0.1239 c 0.0974,0.0992 0.12959,0.11728 0.16165,0.0907 0.0324,-0.0269 0.10997,0.0373 0.4082,0.3379 l 0.36815,0.37114 v 0.10695 c 0,0.14913 -0.12447,0.2736 -0.2736,0.2736 h -0.10695 z m -0.67693,-0.70186 c 0.16723,-0.091 0.28512,-0.21242 0.38046,-0.39179 0.0919,-0.17286 0.0919,-0.55249 0,-0.72535 -0.16968,-0.31923 -0.42785,-0.4783 -0.77632,-0.4783 -0.9652,0 -1.17594,1.31732 -0.26504,1.65681 0.17522,0.0653 0.48018,0.037 0.6609,-0.0614 z m -0.59902,-0.1419 c -0.30482,-0.0973 -0.49515,-0.43406 -0.42427,-0.75076 0.0288,-0.12864 0.0619,-0.18374 0.18371,-0.30553 0.26926,-0.26926 0.6326,-0.27293 0.89649,-0.009 0.4768,0.47679 -0.0121,1.27079 -0.65593,1.06533 z m 0.52244,-0.12607 c 0.29296,-0.20074 0.34237,-0.61415 0.10428,-0.87245 -0.13706,-0.14869 -0.25995,-0.19463 -0.47833,-0.17884 -0.35562,0.0257 -0.5746,0.33992 -0.50298,0.72169 0.0224,0.11931 0.18939,0.31796 0.31544,0.37521 0.13615,0.0618 0.4409,0.0371 0.56159,-0.0456 z"
         id="path39439" /><path
         style="fill:#5b7093;stroke-width:0.0285075"
         d="m 147.76378,131.58633 c -0.30064,-0.29823 -0.36482,-0.37576 -0.3379,-0.4082 0.0266,-0.0321 0.009,-0.0643 -0.0907,-0.16165 l -0.1239,-0.1216 -0.12475,0.0665 c -0.10544,0.0562 -0.16666,0.0665 -0.39557,0.0665 l -0.27082,8e-5 -0.15267,-0.0846 c -0.54797,-0.30352 -0.65613,-1.02036 -0.21978,-1.4567 0.43634,-0.43635 1.15318,-0.32819 1.4567,0.21978 l 0.0846,0.15267 -8e-5,0.27082 c -6e-5,0.22891 -0.0104,0.29013 -0.0666,0.39557 l -0.0665,0.12475 0.1216,0.1239 c 0.0974,0.0992 0.12959,0.11728 0.16165,0.0907 0.0324,-0.0269 0.10997,0.0373 0.4082,0.3379 l 0.36815,0.37114 v 0.10695 c 0,0.14913 -0.12447,0.2736 -0.2736,0.2736 h -0.10695 z m -0.77141,-0.64888 c 0.19816,-0.0674 0.44242,-0.31562 0.50961,-0.51791 0.13712,-0.41283 -0.0394,-0.84954 -0.42613,-1.05426 -0.19569,-0.10358 -0.56372,-0.10929 -0.74753,-0.0116 -0.17903,0.0952 -0.30039,0.21284 -0.3943,0.38237 -0.11836,0.21367 -0.12184,0.56325 -0.008,0.7788 0.20598,0.38911 0.64861,0.56457 1.0661,0.42259 z m -0.42966,-0.17782 c -0.308,-0.0772 -0.49888,-0.31799 -0.49888,-0.62935 0,-0.36959 0.25773,-0.62744 0.62716,-0.62744 0.55135,0 0.84363,0.62591 0.4834,1.03516 -0.16557,0.1881 -0.40268,0.27401 -0.61168,0.22163 z m 0.44756,-0.14313 c 0.29296,-0.20074 0.34237,-0.61415 0.10428,-0.87245 -0.13706,-0.14869 -0.25995,-0.19463 -0.47833,-0.17884 -0.35562,0.0257 -0.5746,0.33992 -0.50298,0.72169 0.0224,0.11931 0.18939,0.31796 0.31544,0.37521 0.13615,0.0618 0.4409,0.0371 0.56159,-0.0456 z"
         id="path39437" /><path
         style="fill:#8a7045;stroke-width:0.0285075"
         d="m 147.76378,131.58633 c -0.30064,-0.29823 -0.36482,-0.37576 -0.3379,-0.4082 0.0266,-0.032 0.009,-0.0637 -0.0877,-0.15872 l -0.12092,-0.11868 -0.17049,0.0701 c -0.44964,0.18483 -0.96259,-0.006 -1.17377,-0.43559 -0.10609,-0.21603 -0.11422,-0.57192 -0.0179,-0.78141 0.0786,-0.17091 0.27034,-0.36275 0.45174,-0.45202 0.21352,-0.10507 0.56378,-0.10053 0.78932,0.0102 0.43007,0.21118 0.62042,0.72413 0.43559,1.17377 l -0.0701,0.17049 0.11868,0.12092 c 0.095,0.0968 0.12667,0.11429 0.15872,0.0877 0.0324,-0.0269 0.10997,0.0373 0.4082,0.3379 l 0.36815,0.37114 v 0.10695 c 0,0.14913 -0.12447,0.2736 -0.2736,0.2736 h -0.10695 z m -0.18865,-0.58727 0.0674,-0.0717 -0.10898,-0.11161 -0.10899,-0.11161 -0.079,0.0764 -0.079,0.0764 0.10292,0.1069 c 0.12212,0.12683 0.12004,0.12648 0.20579,0.0352 z m -0.58276,-0.0616 c 0.19107,-0.065 0.4411,-0.315 0.50607,-0.50607 0.11363,-0.33412 0.0391,-0.65632 -0.20946,-0.9051 -0.63213,-0.63279 -1.66418,0.006 -1.41189,0.87382 0.0604,0.20785 0.30073,0.46494 0.50046,0.53541 0.17021,0.0601 0.44141,0.0609 0.61482,0.002 z m -0.40115,-0.18107 c -0.61675,-0.0917 -0.72598,-0.96891 -0.15058,-1.20927 0.4203,-0.17557 0.87913,0.12727 0.88131,0.58168 0.002,0.39811 -0.33397,0.68657 -0.73073,0.62759 z m 0.40547,-0.13099 c 0.39545,-0.22758 0.3534,-0.84799 -0.0696,-1.02676 -0.11739,-0.0496 -0.35413,-0.0498 -0.47221,-3.7e-4 -0.12915,0.0541 -0.2985,0.25143 -0.32165,0.37485 -0.10217,0.54461 0.39627,0.92114 0.86345,0.65228 z"
         id="path39435" /><path
         style="fill:#585a5e;stroke-width:0.0285075"
         d="m 147.76378,131.58633 c -0.30064,-0.29823 -0.36482,-0.37576 -0.3379,-0.4082 0.0266,-0.032 0.009,-0.0637 -0.0877,-0.15872 l -0.12092,-0.11868 -0.17049,0.0701 c -0.44964,0.18483 -0.96259,-0.006 -1.17377,-0.43559 -0.10609,-0.21603 -0.11422,-0.57192 -0.0179,-0.78141 0.0786,-0.17091 0.27034,-0.36275 0.45174,-0.45202 0.21352,-0.10507 0.56378,-0.10053 0.78932,0.0102 0.43007,0.21118 0.62042,0.72413 0.43559,1.17377 l -0.0701,0.17049 0.11868,0.12092 c 0.095,0.0968 0.12667,0.11429 0.15872,0.0877 0.0324,-0.0269 0.10997,0.0373 0.4082,0.3379 l 0.36815,0.37114 v 0.10695 c 0,0.14913 -0.12447,0.2736 -0.2736,0.2736 h -0.10695 z m 0.62471,0.24117 c 0.13151,-0.13152 0.10289,-0.19153 -0.27149,-0.56914 l -0.34147,-0.3444 -0.15029,0.15029 -0.15029,0.15029 0.3444,0.34147 c 0.37761,0.37438 0.43762,0.403 0.56914,0.27149 z m -0.81336,-0.82844 0.0674,-0.0717 -0.10898,-0.11161 -0.10899,-0.11161 -0.079,0.0764 -0.079,0.0764 0.10292,0.1069 c 0.12212,0.12683 0.12004,0.12648 0.20579,0.0352 z m -0.58276,-0.0616 c 0.19107,-0.065 0.4411,-0.315 0.50607,-0.50607 0.11363,-0.33412 0.0391,-0.65632 -0.20946,-0.9051 -0.63213,-0.63279 -1.66418,0.006 -1.41189,0.87382 0.0604,0.20785 0.30073,0.46494 0.50046,0.53541 0.17021,0.0601 0.44141,0.0609 0.61482,0.002 z m -0.40115,-0.18107 c -0.61675,-0.0917 -0.72598,-0.96891 -0.15058,-1.20927 0.4203,-0.17557 0.87913,0.12727 0.88131,0.58168 0.002,0.39811 -0.33397,0.68657 -0.73073,0.62759 z m 0.40547,-0.13099 c 0.39545,-0.22758 0.3534,-0.84799 -0.0696,-1.02676 -0.11739,-0.0496 -0.35413,-0.0498 -0.47221,-3.7e-4 -0.12915,0.0541 -0.2985,0.25143 -0.32165,0.37485 -0.10217,0.54461 0.39627,0.92114 0.86345,0.65228 z"
         id="path39433" /><path
         id="path39431"
         style="fill:#325663;stroke-width:0.0285075"
         d="M 146.69632 129.23394 C 146.69931 129.23395 146.7023 129.23397 146.7053 129.23399 C 147.07131 129.23699 147.35648 129.4164 147.51774 129.74529 C 147.61534 129.94437 147.61823 130.30761 147.52372 130.51316 L 147.45912 130.65386 L 147.57907 130.77607 C 147.67397 130.87277 147.70719 130.89145 147.73834 130.86557 C 147.79144 130.82147 148.47574 131.49692 148.50278 131.62006 C 148.54958 131.8331 148.33188 132.01242 148.13052 131.92671 L 148.13062 131.92661 C 148.09922 131.91321 147.92066 131.74808 147.73372 131.55956 C 147.46177 131.28531 147.40034 131.20891 147.42647 131.17743 C 147.45227 131.14633 147.43347 131.11304 147.33697 131.01817 L 147.21477 130.89823 L 147.07406 130.96283 C 146.86851 131.05723 146.50527 131.05434 146.30619 130.95684 C 145.84037 130.72845 145.65733 130.19112 145.88662 129.72515 C 146.0482 129.3968 146.31743 129.23347 146.69632 129.23394 z M 146.6982 129.27092 C 146.17793 129.27092 145.69575 129.77636 145.87709 130.40011 C 145.93749 130.60794 146.17783 130.86506 146.37756 130.93553 C 146.54777 130.99563 146.81896 130.99643 146.99237 130.93753 L 146.99237 130.93745 C 147.18344 130.87245 147.43347 130.62246 147.49844 130.43139 C 147.61207 130.09727 147.53754 129.77507 147.28898 129.52629 C 147.11119 129.34832 146.90178 129.27092 146.6982 129.27092 z M 146.68763 129.49655 C 147.02275 129.49562 147.32021 129.76315 147.32196 130.12881 C 147.32396 130.52692 146.98797 130.81536 146.59121 130.75638 C 145.97446 130.66468 145.86524 129.78749 146.44064 129.54713 C 146.52273 129.51284 146.60629 129.49678 146.68763 129.49655 z M 146.6893 129.54531 C 146.38648 129.54575 146.11135 129.78806 146.11135 130.13001 C 146.11135 130.58662 146.58209 130.85899 146.98593 130.63604 C 147.37228 130.42275 147.37236 129.85353 146.98608 129.62715 C 146.88994 129.5708 146.78815 129.54516 146.6893 129.54531 z M 147.42089 130.70037 L 147.34077 130.77717 L 147.26068 130.85397 L 147.36653 130.96238 C 147.49199 131.09087 147.48946 131.09042 147.57526 130.99908 L 147.57514 130.99906 L 147.64253 130.92737 L 147.53171 130.81387 L 147.42089 130.70037 z M 147.77553 130.91397 L 147.62524 131.06425 L 147.47494 131.21453 L 147.81934 131.55601 C 148.19695 131.93039 148.25697 131.95902 148.38849 131.82751 C 148.52 131.69599 148.49139 131.63598 148.11701 131.25837 L 147.77553 130.91397 z " /><path
         style="fill:#4b3d25;stroke-width:0.0285075"
         d="m 148.13062,131.9266 c -0.0314,-0.0134 -0.20997,-0.17852 -0.39691,-0.36704 -0.27195,-0.27425 -0.33338,-0.35065 -0.30725,-0.38213 0.0258,-0.0311 0.007,-0.0644 -0.0895,-0.15927 l -0.1222,-0.11993 -0.14071,0.0646 c -0.20555,0.0944 -0.56879,0.0915 -0.76787,-0.006 -0.46582,-0.22839 -0.64885,-0.76571 -0.41956,-1.23168 0.16285,-0.33094 0.43505,-0.49425 0.81867,-0.49117 0.36601,0.003 0.65118,0.18241 0.81244,0.5113 0.0976,0.19908 0.10051,0.56232 0.006,0.76787 l -0.0646,0.14071 0.11993,0.1222 c 0.0949,0.0967 0.12813,0.11538 0.15928,0.0895 0.0531,-0.0441 0.73741,0.63136 0.76445,0.7545 0.0468,0.21304 -0.1709,0.39235 -0.37226,0.30664 z m 0.25787,-0.0991 c 0.13151,-0.13152 0.10289,-0.19153 -0.27149,-0.56914 l -0.34147,-0.3444 -0.15029,0.15029 -0.15029,0.15029 0.3444,0.34147 c 0.37761,0.37438 0.43762,0.403 0.56914,0.27149 z m -0.84767,-1.00456 -0.12014,-0.12242 -0.0801,0.0768 -0.0801,0.0768 0.12015,0.12242 0.12015,0.12243 0.0801,-0.0768 0.0801,-0.0768 z m -0.49102,0.0916 c 0.5504,-0.24469 0.67595,-0.95339 0.24638,-1.3907 -0.33461,-0.34065 -0.86229,-0.33831 -1.20596,0.005 -0.34373,0.34374 -0.34609,0.87389 -0.005,1.20423 0.28385,0.27519 0.61396,0.33715 0.96493,0.18112 z m -0.63081,-0.211 c -0.44048,-0.20008 -0.47859,-0.83401 -0.0665,-1.10671 0.14393,-0.0952 0.4136,-0.12305 0.56761,-0.0585 0.52202,0.21871 0.53544,0.95976 0.0213,1.17455 -0.14206,0.0593 -0.38057,0.0551 -0.52236,-0.009 z m 0.56694,-0.0675 c 0.38635,-0.21329 0.38643,-0.78252 1.5e-4,-1.0089 -0.39067,-0.22895 -0.87474,0.0493 -0.87474,0.50287 0,0.45661 0.47075,0.72898 0.87459,0.50603 z"
         id="path39429" /><path
         style="fill:#243b42;stroke-width:0.0285075"
         d="m 148.13062,131.9266 c -0.0314,-0.0134 -0.20997,-0.17852 -0.39691,-0.36704 -0.26111,-0.26332 -0.33282,-0.35144 -0.30933,-0.38016 0.023,-0.0282 0.004,-0.0684 -0.0782,-0.16309 l -0.10873,-0.12571 -0.15208,0.0654 c -0.62694,0.26971 -1.29279,-0.15444 -1.29221,-0.82314 4.5e-4,-0.52546 0.38138,-0.90151 0.91205,-0.90037 l 0.22806,4.8e-4 0.1853,0.10154 c 0.42666,0.23379 0.59811,0.73706 0.40208,1.18024 l -0.0615,0.13896 0.11993,0.1222 c 0.0949,0.0967 0.12813,0.11538 0.15928,0.0895 0.0531,-0.0441 0.73741,0.63136 0.76445,0.7545 0.0468,0.21304 -0.1709,0.39235 -0.37226,0.30664 z m 0.26186,-0.0911 c 0.0446,-0.0418 0.066,-0.0943 0.066,-0.1616 0,-0.089 -0.036,-0.13592 -0.33901,-0.44184 l -0.33901,-0.34221 -0.16481,0.16481 -0.16481,0.16481 0.34221,0.33901 c 0.30044,0.29762 0.35389,0.33901 0.43784,0.33901 0.0589,0 0.12094,-0.0238 0.16161,-0.062 z m -0.85166,-1.01254 -0.12014,-0.12242 -0.0801,0.0768 -0.0801,0.0768 0.12015,0.12242 0.12015,0.12243 0.0801,-0.0768 0.0801,-0.0768 z m -0.49102,0.0916 c 0.5504,-0.24469 0.67595,-0.95339 0.24638,-1.3907 -0.33461,-0.34065 -0.86229,-0.33831 -1.20596,0.005 -0.34373,0.34374 -0.34609,0.87389 -0.005,1.20423 0.28385,0.27519 0.61396,0.33715 0.96493,0.18112 z m -0.63081,-0.211 c -0.44048,-0.20008 -0.47859,-0.83401 -0.0665,-1.10671 0.14393,-0.0952 0.4136,-0.12305 0.56761,-0.0585 0.52202,0.21871 0.53544,0.95976 0.0213,1.17455 -0.14206,0.0593 -0.38057,0.0551 -0.52236,-0.009 z m 0.56694,-0.0675 c 0.38635,-0.21329 0.38643,-0.78252 1.5e-4,-1.0089 -0.39067,-0.22895 -0.87474,0.0493 -0.87474,0.50287 0,0.45661 0.47075,0.72898 0.87459,0.50603 z"
         id="path39427" /><path
         style="fill:#313130;stroke-width:0.0285075"
         d="m 148.13062,131.9266 c -0.0314,-0.0134 -0.20997,-0.17852 -0.39691,-0.36704 -0.26111,-0.26332 -0.33282,-0.35144 -0.30933,-0.38016 0.023,-0.0282 0.004,-0.0684 -0.0782,-0.16309 l -0.10873,-0.12571 -0.15208,0.0654 c -0.62694,0.26971 -1.29279,-0.15444 -1.29221,-0.82314 4.5e-4,-0.52546 0.38138,-0.90151 0.91205,-0.90037 l 0.22806,4.8e-4 0.1853,0.10154 c 0.42666,0.23379 0.59811,0.73706 0.40208,1.18024 l -0.0615,0.13896 0.11993,0.1222 c 0.0949,0.0967 0.12813,0.11538 0.15928,0.0895 0.0531,-0.0441 0.73741,0.63136 0.76445,0.7545 0.0468,0.21304 -0.1709,0.39235 -0.37226,0.30664 z m 0.26186,-0.0911 c 0.0446,-0.0418 0.066,-0.0943 0.066,-0.1616 0,-0.089 -0.036,-0.13592 -0.33901,-0.44184 l -0.33901,-0.34221 -0.16481,0.16481 -0.16481,0.16481 0.34221,0.33901 c 0.30044,0.29762 0.35389,0.33901 0.43784,0.33901 0.0589,0 0.12094,-0.0238 0.16161,-0.062 z m -0.85166,-1.01254 -0.12014,-0.12242 -0.0801,0.0768 -0.0801,0.0768 0.12015,0.12242 0.12015,0.12243 0.0801,-0.0768 0.0801,-0.0768 z m -0.45961,0.075 c 0.52755,-0.25588 0.64106,-0.96056 0.22219,-1.37942 -0.33239,-0.33239 -0.8885,-0.33149 -1.22196,0.002 -0.40858,0.40859 -0.30007,1.11881 0.21076,1.37942 0.26448,0.13492 0.50804,0.13432 0.78901,-0.002 z m -0.66881,-0.19952 c -0.30262,-0.15366 -0.42956,-0.51535 -0.28936,-0.82444 0.0782,-0.17247 0.12952,-0.22487 0.29713,-0.3036 0.25372,-0.11917 0.52162,-0.0743 0.71615,0.11992 0.28412,0.28369 0.23284,0.7481 -0.10746,0.9733 -0.16364,0.10829 -0.44092,0.12396 -0.61646,0.0348 z m 0.57353,-0.0624 c 0.38816,-0.21429 0.38642,-0.78253 -0.003,-1.0108 -0.51163,-0.29983 -1.0972,0.28372 -0.79763,0.79489 0.168,0.28668 0.50698,0.37808 0.80072,0.21591 z"
         id="path39425" /><path
         style="fill:#030304;stroke-width:0.0285075"
         d="m 148.10212,131.9016 c -0.047,-0.0303 -0.22565,-0.1968 -0.3969,-0.36998 -0.27224,-0.2753 -0.3066,-0.32064 -0.27334,-0.36072 0.0329,-0.0397 0.0217,-0.0625 -0.0836,-0.1698 l -0.12167,-0.12397 -0.16089,0.0752 c -0.2267,0.10602 -0.52276,0.1064 -0.74529,9.5e-4 -0.5786,-0.27417 -0.71104,-1.00192 -0.26499,-1.45604 0.34904,-0.35535 0.92145,-0.35781 1.27379,-0.005 0.26378,0.26378 0.33957,0.68061 0.18416,1.0129 l -0.0752,0.16089 0.12397,0.12167 c 0.10729,0.1053 0.13013,0.11655 0.16981,0.0836 0.0401,-0.0333 0.087,0.003 0.37394,0.28759 0.18045,0.1791 0.34725,0.36185 0.37067,0.40612 0.1196,0.22605 -0.15832,0.47622 -0.37439,0.33701 z m 0.29932,-0.0611 c 0.0363,-0.0363 0.057,-0.095 0.057,-0.1616 v -0.10459 l -0.34148,-0.3444 -0.34148,-0.34441 -0.16453,0.16453 -0.16453,0.16453 0.34441,0.34148 0.3444,0.34148 h 0.10459 c 0.0666,0 0.12531,-0.0207 0.1616,-0.057 z m -0.86062,-1.01751 -0.12014,-0.12242 -0.0801,0.0768 -0.0801,0.0768 0.12015,0.12242 0.12015,0.12243 0.0801,-0.0768 0.0801,-0.0768 z m -0.48715,0.0994 c 0.66067,-0.31035 0.68012,-1.22727 0.033,-1.55738 -0.75196,-0.3836 -1.54441,0.40885 -1.16081,1.16081 0.21424,0.41995 0.70821,0.59365 1.12777,0.39657 z m -0.64963,-0.24352 c -0.22134,-0.11221 -0.32596,-0.28833 -0.32596,-0.54877 0,-0.25814 0.10379,-0.43203 0.32828,-0.55002 0.62436,-0.32816 1.22619,0.49335 0.72708,0.99247 -0.19827,0.19826 -0.46994,0.23786 -0.7294,0.10632 z m 0.47216,0.0179 c 0.15661,-0.0435 0.34122,-0.23329 0.385,-0.39586 0.15109,-0.56111 -0.48963,-0.99189 -0.9388,-0.63117 -0.28024,0.22505 -0.29892,0.62103 -0.0414,0.87851 0.1685,0.1685 0.35534,0.21512 0.59524,0.14852 z"
         id="path39423" /></g></g></svg>
