<?xml version="1.0" encoding="UTF-8" standalone="no"?>
<!-- Created with Inkscape (http://www.inkscape.org/) -->

<svg
   width="59.065338mm"
   height="59.065338mm"
   viewBox="0 0 6.3639856 6.3639856"
   version="1.1"
   id="svg35290"
   xml:space="preserve"
   inkscape:version="1.2.2 (732a01da63, 2022-12-09)"
   sodipodi:docname="edit_redo.svg"
   xmlns:inkscape="http://www.inkscape.org/namespaces/inkscape"
   xmlns:sodipodi="http://sodipodi.sourceforge.net/DTD/sodipodi-0.dtd"
   xmlns="http://www.w3.org/2000/svg"
   xmlns:svg="http://www.w3.org/2000/svg"><sodipodi:namedview
     id="namedview35292"
     pagecolor="#ffffff"
     bordercolor="#111111"
     borderopacity="1"
     inkscape:showpageshadow="0"
     inkscape:pageopacity="0"
     inkscape:pagecheckerboard="1"
     inkscape:deskcolor="#d1d1d1"
     inkscape:document-units="mm"
     showgrid="false"
     shape-rendering="auto"
     inkscape:zoom="1.4128928"
     inkscape:cx="322.7421"
     inkscape:cy="71.838429"
     inkscape:window-width="1920"
     inkscape:window-height="1017"
     inkscape:window-x="-4"
     inkscape:window-y="-4"
     inkscape:window-maximized="1"
     inkscape:current-layer="layer1" /><defs
     id="defs35287" /><g
     inkscape:label="Слой 1"
     inkscape:groupmode="layer"
     id="layer1"
     transform="translate(-139.05627,-133.79422)"><g
       id="g39337"
       transform="matrix(-1.4441225,-0.77087556,-0.72088129,1.3504655,452.77353,77.012614)"><path
         style="fill:none;stroke-width:0.0285075"
         d="m 148.68771,130.10188 v -1.42537 h 1.42537 1.42538 v 1.42537 1.42538 h -1.42538 -1.42537 z"
         id="path39367" /><path
         style="fill:#dbe3ef;stroke-width:0.0285075"
         d="m 150.11308,131.02838 v -0.1853 h 0.29329 c 0.24795,0 0.31269,-0.01 0.41882,-0.0641 0.28769,-0.14701 0.35912,-0.4891 0.15323,-0.7338 -0.13784,-0.16381 -0.17564,-0.17132 -0.86281,-0.17132 h -0.62747 l -0.008,0.24728 -0.008,0.24728 -0.36059,-0.33993 c -0.19832,-0.18696 -0.36059,-0.34634 -0.36059,-0.35418 0,-0.008 0.16227,-0.16722 0.36059,-0.35418 l 0.36059,-0.33993 0.008,0.245 0.008,0.24499 0.66173,0.009 0.66172,0.009 0.13329,0.0616 c 0.57556,0.2658 0.70727,0.99022 0.25921,1.42568 -0.18657,0.18132 -0.36702,0.23738 -0.76417,0.23738 h -0.32677 z"
         id="path39365" /><path
         style="fill:#cedae9;stroke-width:0.0285075"
         d="m 150.11308,131.03077 v -0.18292 l 0.3373,-0.01 0.33729,-0.01 0.10461,-0.0799 c 0.214,-0.16341 0.26932,-0.45323 0.12744,-0.66762 -0.12833,-0.19393 -0.18744,-0.20752 -0.90271,-0.20752 h -0.62887 l -0.008,0.24276 -0.008,0.24275 -0.35635,-0.34253 -0.35634,-0.34253 0.35634,-0.34253 0.35635,-0.34253 0.008,0.24276 0.008,0.24275 0.53341,1.7e-4 c 0.56462,1.7e-4 0.79894,0.0246 0.95751,0.0999 0.55352,0.26266 0.65852,0.98964 0.20307,1.4059 -0.20127,0.18395 -0.36109,0.23304 -0.75874,0.23304 h -0.31031 z"
         id="path39363" /><path
         style="fill:#bacae1;stroke-width:0.0285075"
         d="m 150.11308,131.03175 v -0.18867 h 0.29748 c 0.31666,0 0.41733,-0.0236 0.52588,-0.12306 0.0863,-0.0791 0.17297,-0.26559 0.17378,-0.37395 0.001,-0.1353 -0.10849,-0.32564 -0.23586,-0.40998 l -0.11554,-0.0765 -0.63645,-0.01 -0.63645,-0.009 v 0.24468 c 0,0.13458 -0.01,0.24437 -0.0214,0.24399 -0.0118,-3.7e-4 -0.17532,-0.1479 -0.36347,-0.32783 l -0.34209,-0.32715 0.34209,-0.32714 c 0.18815,-0.17993 0.35171,-0.32746 0.36347,-0.32784 0.0118,-3.8e-4 0.0214,0.10835 0.0214,0.24162 v 0.24232 h 0.66743 0.66744 l 0.17978,0.0931 c 0.62815,0.32518 0.61789,1.1947 -0.018,1.52539 -0.12633,0.0657 -0.18385,0.0755 -0.50601,0.0864 l -0.36347,0.0123 z"
         id="path39361" /><path
         style="fill:#afc3dd;stroke-width:0.0285075"
         d="m 150.11308,131.03131 v -0.18823 h 0.30025 c 0.3459,0 0.44388,-0.0306 0.57488,-0.17985 0.23109,-0.2632 0.0991,-0.69349 -0.24172,-0.78815 -0.0583,-0.0162 -0.36579,-0.0295 -0.68329,-0.0296 l -0.57728,-1.6e-4 v 0.24231 c 0,0.13327 -0.01,0.2418 -0.0214,0.24116 -0.0118,-6.3e-4 -0.17532,-0.14815 -0.36347,-0.32783 l -0.34209,-0.32669 0.34209,-0.32668 c 0.18815,-0.17968 0.35171,-0.32721 0.36347,-0.32784 0.0118,-6.3e-4 0.0214,0.10707 0.0214,0.23933 v 0.24048 l 0.69131,0.009 0.6913,0.009 0.15203,0.0842 c 0.61215,0.33909 0.57652,1.24667 -0.06,1.52911 -0.12251,0.0543 -0.21111,0.0681 -0.49823,0.0774 l -0.34922,0.0113 z"
         id="path39359" /><path
         style="fill:#a6bbd9;stroke-width:0.0285075"
         d="m 150.11308,131.02838 v -0.1853 h 0.30025 c 0.3462,0 0.44386,-0.0306 0.5754,-0.18044 0.20074,-0.22863 0.13626,-0.58543 -0.13455,-0.74451 l -0.0997,-0.0586 -0.63429,-0.009 -0.63429,-0.009 v 0.24427 c 0,0.13435 -0.01,0.24369 -0.0214,0.24297 -0.0118,-7.1e-4 -0.17532,-0.14804 -0.36347,-0.32739 l -0.34209,-0.32609 0.34209,-0.32688 c 0.18815,-0.17978 0.35171,-0.32751 0.36347,-0.32828 0.0118,-7.7e-4 0.0214,0.10682 0.0214,0.23908 v 0.24048 l 0.69131,0.009 c 0.75543,0.01 0.75485,0.01 0.99676,0.19977 0.31437,0.24704 0.37746,0.8113 0.12756,1.14072 -0.20311,0.26773 -0.44741,0.36467 -0.91905,0.36467 h -0.26942 z"
         id="path39357" /><path
         style="fill:#8faad0;stroke-width:0.0285075"
         d="m 150.11308,131.03182 v -0.18874 h 0.31683 c 0.26675,0 0.33329,-0.009 0.42098,-0.0585 0.38568,-0.21677 0.31839,-0.78843 -0.10737,-0.91219 -0.0619,-0.018 -0.33636,-0.0265 -0.68745,-0.0214 l -0.5844,0.009 -0.0143,0.23121 -0.0143,0.23122 -0.34209,-0.32387 -0.34209,-0.32386 0.34209,-0.32386 0.34209,-0.32386 0.0143,0.23121 0.0143,0.23121 0.68418,0.0143 0.68418,0.0143 0.13083,0.0605 c 0.64275,0.2973 0.64591,1.22687 0.005,1.54032 -0.14339,0.0701 -0.20008,0.0802 -0.51213,0.0906 l -0.35089,0.0117 z"
         id="path39355" /><path
         style="fill:#7397c6;stroke-width:0.0285075"
         d="m 150.11308,131.03229 v -0.18921 h 0.31472 c 0.38076,0 0.49803,-0.0456 0.61055,-0.23764 0.15733,-0.26848 0.0591,-0.57427 -0.22683,-0.70624 -0.0996,-0.046 -0.19226,-0.0527 -0.73296,-0.0533 l -0.61893,-6.2e-4 -0.008,0.23872 -0.008,0.23873 -0.33792,-0.32425 -0.33792,-0.32425 0.33792,-0.32424 0.33792,-0.32425 0.008,0.23872 0.008,0.23873 h 0.63514 c 0.76502,0 0.85277,0.0186 1.08425,0.23018 0.28508,0.26055 0.3579,0.64742 0.18645,0.99053 -0.17129,0.34278 -0.38975,0.45756 -0.91742,0.48203 l -0.33497,0.0155 z"
         id="path39353" /><path
         style="fill:#408bec;stroke-width:0.0285075"
         d="m 150.11308,131.02838 v -0.15679 l 0.23519,-7e-4 c 0.41427,-0.001 0.59929,-0.0761 0.70621,-0.28564 0.0988,-0.19366 0.067,-0.42136 -0.0809,-0.57953 -0.13894,-0.1486 -0.2042,-0.1604 -0.88697,-0.1604 h -0.62693 l -0.008,0.23518 -0.008,0.23519 -0.32783,-0.31358 c -0.1803,-0.17247 -0.32783,-0.32 -0.32783,-0.32784 0,-0.008 0.14753,-0.15536 0.32783,-0.32783 l 0.32783,-0.31359 0.008,0.23336 0.008,0.23337 0.69018,0.009 0.69019,0.009 0.14605,0.077 c 0.62106,0.32762 0.62396,1.19418 0.005,1.50346 l -0.17445,0.0872 h -0.3518 -0.35179 z"
         id="path39351" /><path
         style="fill:#6288bd;stroke-width:0.0285075"
         d="m 150.11308,131.02838 v -0.15679 l 0.23519,-7e-4 c 0.41427,-0.001 0.59929,-0.0761 0.70621,-0.28564 0.0988,-0.19366 0.067,-0.42136 -0.0809,-0.57953 -0.13894,-0.1486 -0.2042,-0.1604 -0.88697,-0.1604 h -0.62693 l -0.008,0.23518 -0.008,0.23519 -0.32783,-0.31358 c -0.1803,-0.17247 -0.32783,-0.32 -0.32783,-0.32784 0,-0.008 0.14753,-0.15536 0.32783,-0.32783 l 0.32783,-0.31359 0.008,0.23336 0.008,0.23337 0.69018,0.009 0.69019,0.009 0.14605,0.077 c 0.62106,0.32762 0.62396,1.19418 0.005,1.50346 l -0.17445,0.0872 h -0.3518 -0.35179 z m 0.77556,0.084 c 0.27039,-0.0921 0.49669,-0.38331 0.52713,-0.67828 0.0341,-0.3305 -0.15873,-0.66706 -0.47056,-0.82124 l -0.13369,-0.0661 -0.69015,-0.01 -0.69015,-0.01 -0.008,-0.20763 -0.008,-0.20764 -0.29795,0.28112 -0.29795,0.28112 0.29795,0.28113 0.29795,0.28112 0.008,-0.20986 0.008,-0.20985 h 0.65561 0.65561 l 0.11124,0.0567 c 0.39313,0.20056 0.39041,0.75564 -0.005,0.95251 -0.12793,0.0637 -0.18538,0.074 -0.41378,0.074 h -0.26522 v 0.12829 0.12828 h 0.29425 c 0.19134,0 0.33973,-0.0155 0.42429,-0.0443 z"
         id="path39349" /><path
         style="fill:#4584d7;stroke-width:0.0285075"
         d="m 150.11308,131.03197 v -0.15321 l 0.32071,-0.0128 c 0.36224,-0.0144 0.4577,-0.0489 0.58011,-0.20937 0.0808,-0.10599 0.1204,-0.31488 0.0858,-0.45288 -0.0254,-0.10128 -0.18414,-0.27403 -0.29391,-0.3199 -0.0679,-0.0284 -0.25705,-0.0385 -0.7191,-0.0385 h -0.62693 l -0.008,0.23356 -0.008,0.23356 -0.32784,-0.31908 -0.32783,-0.31909 0.32783,-0.31908 0.32784,-0.31909 0.008,0.23171 0.008,0.23171 0.67593,0.009 0.67593,0.009 0.14254,0.0656 c 0.65675,0.30227 0.65969,1.22801 0.005,1.5329 -0.13033,0.0607 -0.18787,0.0687 -0.49663,0.0689 l -0.34922,2.8e-4 z m 0.77556,0.0804 c 0.27039,-0.0921 0.49669,-0.38331 0.52713,-0.67828 0.0341,-0.3305 -0.15873,-0.66706 -0.47056,-0.82124 l -0.13369,-0.0661 -0.69015,-0.01 -0.69015,-0.01 -0.008,-0.20763 -0.008,-0.20764 -0.29795,0.28112 -0.29795,0.28112 0.29795,0.28113 0.29795,0.28112 0.008,-0.20986 0.008,-0.20985 h 0.65561 0.65561 l 0.11124,0.0567 c 0.39313,0.20056 0.39041,0.75564 -0.005,0.95251 -0.12793,0.0637 -0.18538,0.074 -0.41378,0.074 h -0.26522 v 0.12829 0.12828 h 0.29425 c 0.19134,0 0.33973,-0.0155 0.42429,-0.0443 z"
         id="path39347" /><path
         style="fill:#5782bb;stroke-width:0.0285075"
         d="m 150.11308,131.02838 c 0,-0.0862 0.01,-0.15679 0.0214,-0.15679 0.0118,0 0.0214,0.0705 0.0214,0.15679 0,0.0862 -0.01,0.15679 -0.0214,0.15679 -0.0118,0 -0.0214,-0.0706 -0.0214,-0.15679 z m 0.62944,0.12799 c 0.24394,-0.0413 0.4903,-0.22073 0.60622,-0.44157 0.0247,-0.047 0.0454,-0.0717 0.046,-0.0548 6.3e-4,0.0169 -0.0374,0.089 -0.0846,0.16019 -0.13398,0.20227 -0.41195,0.36851 -0.60465,0.36161 -0.0804,-0.003 -0.0752,-0.006 0.037,-0.0254 z m -0.0664,-0.30366 c 0.0196,-0.008 0.0517,-0.008 0.0713,0 0.0196,0.008 0.004,0.0144 -0.0356,0.0144 -0.0392,0 -0.0552,-0.006 -0.0356,-0.0144 z m 0.1956,-0.0639 c 0.14103,-0.086 0.21765,-0.21783 0.23993,-0.41281 l 0.0199,-0.17431 0.004,0.13823 c 0.002,0.0761 -0.0167,0.18173 -0.042,0.23501 -0.0491,0.10355 -0.21857,0.26825 -0.27578,0.26807 -0.019,-6e-5 0.005,-0.0244 0.0541,-0.0542 z m 0.54425,-0.35906 c 0.0172,-0.26069 0.0324,-0.30046 0.0327,-0.0855 1.4e-4,0.0941 -0.0101,0.1967 -0.0228,0.22806 -0.0134,0.0331 -0.0176,-0.0265 -0.01,-0.14254 z m -2.30064,-0.43636 -0.32783,-0.31909 0.32783,-0.31908 0.32784,-0.31909 0.008,0.23303 0.008,0.23303 0.6474,0.008 0.6474,0.008 -0.6616,0.007 -0.6616,0.007 -0.008,-0.21388 -0.008,-0.21389 -0.29933,0.28516 -0.29933,0.28515 0.29933,0.28516 0.29933,0.28515 0.008,-0.21388 0.008,-0.21389 h 0.64548 0.64547 l 0.12491,0.0605 c 0.12133,0.0587 0.29263,0.26218 0.2536,0.3012 -0.0101,0.0101 -0.0184,0.004 -0.0184,-0.0138 0,-0.0569 -0.18134,-0.24101 -0.27659,-0.28081 -0.0679,-0.0284 -0.25705,-0.0385 -0.7191,-0.0385 h -0.62693 l -0.008,0.23356 -0.008,0.23356 z m 2.28285,0.14649 c -0.001,-0.0183 -0.01,-0.0568 -0.0186,-0.0855 l -0.0164,-0.0522 0.0327,0.051 c 0.018,0.028 0.0264,0.0665 0.0187,0.0855 -0.0101,0.025 -0.0146,0.0253 -0.0163,0.001 z m -0.13763,-0.27875 c -0.0516,-0.0733 -0.15321,-0.16338 -0.24068,-0.21354 -0.15965,-0.0916 -0.16941,-0.11939 -0.0145,-0.0414 0.11681,0.0588 0.26979,0.20271 0.32246,0.30327 0.0599,0.11431 0.0345,0.0961 -0.0673,-0.0484 z m -0.46862,-0.32033 c 0.0206,-0.008 0.0452,-0.007 0.0546,0.002 0.009,0.009 -0.007,0.0162 -0.0374,0.015 -0.0332,-10e-4 -0.04,-0.008 -0.0172,-0.0172 z"
         id="path39345" /><path
         style="fill:#4b81c7;stroke-width:0.0285075"
         d="m 150.11308,131.02838 c 0,-0.0862 0.01,-0.15679 0.0214,-0.15679 0.0118,0 0.0214,0.0705 0.0214,0.15679 0,0.0862 -0.01,0.15679 -0.0214,0.15679 -0.0118,0 -0.0214,-0.0706 -0.0214,-0.15679 z m 0.54877,0.13714 c 0.0274,-0.007 0.0723,-0.007 0.0998,0 0.0274,0.007 0.005,0.013 -0.0499,0.013 -0.0549,0 -0.0773,-0.006 -0.0499,-0.013 z m 0.27795,-0.068 c 0.0706,-0.0318 0.186,-0.11174 0.25654,-0.17754 l 0.12826,-0.11964 -0.114,0.12357 c -0.11076,0.12005 -0.28769,0.23342 -0.36231,0.23215 -0.0202,-3.5e-4 0.021,-0.0267 0.0915,-0.0585 z m -0.2334,-0.24539 c 0.0206,-0.008 0.0452,-0.007 0.0546,0.002 0.009,0.009 -0.007,0.0162 -0.0374,0.015 -0.0332,-0.001 -0.04,-0.008 -0.0172,-0.0172 z m 0.13363,-0.0422 c 0.0313,-0.0173 0.0897,-0.0586 0.1296,-0.0918 0.0399,-0.0332 0.0305,-0.0186 -0.021,0.0323 -0.0515,0.051 -0.10978,0.0923 -0.12961,0.0918 -0.0198,-4.7e-4 -0.0104,-0.015 0.021,-0.0323 z m 0.50117,-0.0808 c 0.0416,-0.0873 0.0547,-0.10344 0.0547,-0.0672 0,0.0153 -0.0199,0.0527 -0.0443,0.0831 l -0.0443,0.0553 z m -0.2725,-0.14046 c 0.0128,-0.0224 0.033,-0.11858 0.045,-0.2138 l 0.0218,-0.17313 -0.007,0.1786 c -0.004,0.10366 -0.023,0.19337 -0.045,0.2138 -0.0306,0.0283 -0.0334,0.0273 -0.0147,-0.005 z m 0.32947,-0.0187 c 0.001,-0.0332 0.008,-0.04 0.0172,-0.0172 0.008,0.0206 0.007,0.0452 -0.002,0.0546 -0.009,0.009 -0.0162,-0.007 -0.015,-0.0374 z m 0.0285,-0.22806 c 0.001,-0.0332 0.008,-0.04 0.0172,-0.0172 0.008,0.0206 0.007,0.0452 -0.002,0.0546 -0.009,0.009 -0.0162,-0.007 -0.015,-0.0374 z m -2.31136,-0.35308 -0.32783,-0.31447 0.32783,-0.31447 0.32784,-0.31447 0.008,0.22842 0.008,0.22841 0.6474,0.008 0.6474,0.008 -0.6616,0.007 -0.6616,0.007 -0.008,-0.21388 -0.008,-0.21389 -0.29933,0.28516 -0.29933,0.28515 0.29933,0.28516 0.29933,0.28515 0.008,-0.21388 0.008,-0.21389 h 0.64548 0.64547 l 0.12072,0.0584 c 0.0664,0.0321 0.1378,0.0792 0.15867,0.10462 0.0209,0.0254 -0.0188,0.009 -0.0882,-0.0371 l -0.12611,-0.0832 -0.6638,-0.009 -0.66379,-0.009 -0.008,0.23041 -0.008,0.23041 z m 2.31136,0.23905 c 0.001,-0.0332 0.008,-0.04 0.0172,-0.0172 0.008,0.0206 0.007,0.0452 -0.002,0.0546 -0.009,0.009 -0.0162,-0.007 -0.015,-0.0374 z m -0.36874,-0.11878 -0.0335,-0.0784 0.0432,0.0553 c 0.0238,0.0304 0.0432,0.0657 0.0432,0.0784 0,0.0433 -0.0193,0.0231 -0.0529,-0.0553 z m 0.34023,0.0308 c -10e-4,-0.0183 -0.01,-0.0568 -0.0186,-0.0855 l -0.0164,-0.0522 0.0327,0.051 c 0.018,0.028 0.0264,0.0665 0.0187,0.0855 -0.0101,0.025 -0.0146,0.0253 -0.0163,0.001 z m -0.13763,-0.27875 c -0.0516,-0.0733 -0.15321,-0.16338 -0.24068,-0.21354 -0.0832,-0.0477 -0.1378,-0.0869 -0.12127,-0.0871 0.0972,-8.7e-4 0.35779,0.22496 0.45205,0.39171 0.045,0.0797 -0.006,0.0277 -0.0901,-0.0911 z"
         id="path39343" /><path
         style="fill:#4d7fc1;stroke-width:0.0285075"
         d="m 150.12192,131.02838 c 1.6e-4,-0.0941 0.005,-0.12913 0.0118,-0.0779 0.006,0.0512 0.006,0.12821 -2.9e-4,0.17105 -0.007,0.0428 -0.0117,9.1e-4 -0.0115,-0.0932 z m 0.61298,0.13732 c 0.0206,-0.008 0.0452,-0.007 0.0546,0.002 0.009,0.009 -0.007,0.0162 -0.0374,0.015 -0.0332,-0.001 -0.04,-0.008 -0.0172,-0.0172 z m 0.26192,-0.076 c 0,-0.007 0.0336,-0.034 0.0748,-0.061 0.0411,-0.0269 0.0661,-0.0349 0.0554,-0.0177 -0.0203,0.0329 -0.1302,0.0993 -0.1302,0.0787 z m 0.22806,-0.20034 c 0,-0.006 0.0224,-0.0284 0.0499,-0.0499 l 0.0499,-0.0391 -0.0391,0.0499 c -0.0372,0.0475 -0.0606,0.0626 -0.0606,0.0391 z m -0.51848,-0.0372 c 0.0206,-0.008 0.0452,-0.007 0.0546,0.002 0.009,0.009 -0.007,0.0162 -0.0374,0.015 -0.0332,-0.001 -0.04,-0.008 -0.0172,-0.0172 z m 0.26191,-0.13731 c 0.0368,-0.0392 0.0734,-0.0713 0.0812,-0.0713 0.008,0 -0.0159,0.0321 -0.0527,0.0713 -0.0368,0.0392 -0.0734,0.0713 -0.0812,0.0713 -0.008,0 0.0159,-0.0321 0.0527,-0.0713 z m 0.37289,0.0143 c 0.0416,-0.0873 0.0547,-0.10344 0.0547,-0.0672 0,0.0153 -0.0199,0.0527 -0.0443,0.0831 l -0.0443,0.0553 z m -0.2222,-0.38485 c 2.1e-4,-0.0784 0.006,-0.10708 0.0123,-0.0637 0.007,0.0433 0.006,0.10747 -3.9e-4,0.14254 -0.007,0.0351 -0.0121,-4e-4 -0.0119,-0.0788 z m 0.30768,-0.002 c 0.001,-0.0332 0.008,-0.04 0.0172,-0.0172 0.008,0.0206 0.007,0.0452 -0.002,0.0546 -0.009,0.009 -0.0162,-0.007 -0.015,-0.0374 z m -2.04054,-0.10088 c -0.0422,-0.0494 -0.044,-0.0567 -0.007,-0.0282 l 0.0499,0.0386 v -0.21729 -0.2173 l 0.64855,0.007 0.64855,0.007 -0.63315,0.008 -0.63315,0.008 -0.008,0.23068 -0.008,0.23067 z m 2.04054,-0.0131 c 0.001,-0.0332 0.008,-0.04 0.0172,-0.0172 0.008,0.0206 0.007,0.0452 -0.002,0.0546 -0.009,0.009 -0.0162,-0.007 -0.015,-0.0374 z m -0.36874,-0.11878 -0.0335,-0.0784 0.0432,0.0553 c 0.0238,0.0304 0.0432,0.0657 0.0432,0.0784 0,0.0433 -0.0193,0.0231 -0.0529,-0.0553 z m -2.05689,-0.22117 -0.21262,-0.21405 0.22735,-0.22069 0.22734,-0.22069 -0.21285,0.22093 -0.21285,0.22093 0.21238,0.21381 c 0.11681,0.11759 0.20596,0.2138 0.19813,0.2138 -0.008,0 -0.10994,-0.0963 -0.22688,-0.21404 z m 2.17927,-0.13517 -0.0837,-0.0926 0.0927,0.0837 c 0.051,0.0461 0.0926,0.0877 0.0926,0.0926 0,0.022 -0.0235,0.003 -0.10157,-0.0837 z m -1.75142,-0.43823 v -0.2173 l -0.0499,0.0386 c -0.0369,0.0286 -0.035,0.0212 0.007,-0.0282 l 0.057,-0.0668 0.008,0.23068 0.008,0.23068 0.6474,0.008 0.6474,0.008 -0.6628,0.007 -0.6628,0.007 z"
         id="path39341" /><path
         style="fill:#4e7ab5;stroke-width:0.0285075"
         d="m 150.12192,131.02838 c 1.6e-4,-0.0941 0.005,-0.12913 0.0118,-0.0779 0.006,0.0512 0.006,0.12821 -2.9e-4,0.17105 -0.007,0.0428 -0.0117,9.1e-4 -0.0115,-0.0932 z m 0.81788,-0.28159 c 0,-0.006 0.0225,-0.0284 0.0499,-0.0499 l 0.0499,-0.0391 -0.0391,0.0499 c -0.0372,0.0475 -0.0607,0.0626 -0.0607,0.0391 z m 0.17824,-0.40259 c 3.1e-4,-0.0627 0.006,-0.085 0.013,-0.0496 0.007,0.0355 0.007,0.0868 -5.8e-4,0.11403 -0.007,0.0273 -0.0127,-0.002 -0.0124,-0.0645 z m 0.30864,-0.11641 c 0.001,-0.0332 0.008,-0.04 0.0172,-0.0172 0.008,0.0206 0.007,0.0452 -0.002,0.0546 -0.009,0.009 -0.0162,-0.007 -0.015,-0.0374 z m -2.36935,-0.28982 -0.15581,-0.16392 0.16391,0.15582 c 0.15229,0.14476 0.17698,0.17201 0.15582,0.17201 -0.004,0 -0.0782,-0.0738 -0.16392,-0.16391 z m 0.69228,-0.11393 c 0.16855,-0.005 0.44436,-0.005 0.61292,0 0.16855,0.005 0.0306,0.009 -0.30646,0.009 -0.3371,0 -0.47501,-0.004 -0.30646,-0.009 z m 1.43071,-0.0714 -0.0837,-0.0926 0.0927,0.0837 c 0.051,0.0461 0.0926,0.0877 0.0926,0.0926 0,0.022 -0.0235,0.003 -0.10157,-0.0837 z m -2.12201,-0.34922 c 0.0852,-0.0862 0.16126,-0.15679 0.16909,-0.15679 0.008,0 -0.0554,0.0706 -0.14059,0.15679 -0.0852,0.0862 -0.16125,0.15679 -0.16909,0.15679 -0.008,0 0.0554,-0.0705 0.14059,-0.15679 z m 0.72142,0.10698 c 0.18511,-0.005 0.48017,-0.005 0.65567,4e-5 0.17551,0.005 0.0241,0.009 -0.33657,0.009 -0.36062,-2e-5 -0.50421,-0.004 -0.3191,-0.009 z"
         id="path39339" /></g></g></svg>
