<?xml version="1.0" encoding="UTF-8" standalone="no"?>
<!-- Created with Inkscape (http://www.inkscape.org/) -->

<svg
   width="59.065338mm"
   height="59.065338mm"
   viewBox="0 0 6.3639856 6.3639856"
   version="1.1"
   id="svg35290"
   xml:space="preserve"
   inkscape:version="1.2.2 (732a01da63, 2022-12-09)"
   sodipodi:docname="file_new.svg"
   xmlns:inkscape="http://www.inkscape.org/namespaces/inkscape"
   xmlns:sodipodi="http://sodipodi.sourceforge.net/DTD/sodipodi-0.dtd"
   xmlns="http://www.w3.org/2000/svg"
   xmlns:svg="http://www.w3.org/2000/svg"><sodipodi:namedview
     id="namedview35292"
     pagecolor="#ffffff"
     bordercolor="#111111"
     borderopacity="1"
     inkscape:showpageshadow="0"
     inkscape:pageopacity="0"
     inkscape:pagecheckerboard="1"
     inkscape:deskcolor="#d1d1d1"
     inkscape:document-units="mm"
     showgrid="false"
     shape-rendering="auto"
     inkscape:zoom="1.4128928"
     inkscape:cx="263.28961"
     inkscape:cy="50.251512"
     inkscape:window-width="1920"
     inkscape:window-height="1017"
     inkscape:window-x="-4"
     inkscape:window-y="-4"
     inkscape:window-maximized="1"
     inkscape:current-layer="layer1" /><defs
     id="defs35287" /><g
     inkscape:label="Слой 1"
     inkscape:groupmode="layer"
     id="layer1"
     transform="translate(-139.05627,-133.79422)"><g
       id="g49144"
       transform="matrix(2.0075551,0,0,1.9960568,-158.86994,-124.57976)"><path
         style="fill:#aaaaaa;fill-opacity:1;stroke-width:0.0285075"
         d="m 150.48592,130.07141 -0.41299,-0.42048 0.42048,0.41299 c 0.23127,0.22714 0.42049,0.41636 0.42049,0.42048 0,0.0204 -0.0443,-0.0224 -0.42798,-0.41299 z m -0.0857,0.0855 -0.29881,-0.30645 0.30645,0.29882 c 0.16855,0.16435 0.30646,0.30225 0.30646,0.30645 0,0.0206 -0.0366,-0.0142 -0.3141,-0.29882 z"
         id="path49150" /><path
         style="fill:none;fill-opacity:1;stroke-width:0.0285075"
         d="m 151.02793,132.39114 c 0,-0.006 0.0224,-0.0284 0.0499,-0.0499 0.0452,-0.0355 0.0462,-0.0344 0.0108,0.0108 -0.0372,0.0475 -0.0607,0.0626 -0.0607,0.0391 z m -0.75545,-0.84447 c 0.0284,-0.0314 0.058,-0.057 0.0659,-0.057 0.008,0 -0.009,0.0257 -0.0373,0.057 -0.0284,0.0314 -0.058,0.057 -0.0659,0.057 -0.008,0 0.009,-0.0257 0.0373,-0.057 z"
         id="path49148" /><path
         style="fill:#333333;fill-opacity:1;stroke-width:0.0285075"
         d="m 150.55756,132.48945 c -0.047,-0.0113 -0.11355,-0.0357 -0.14779,-0.0541 -0.0434,-0.0233 -0.30442,-0.0335 -0.86236,-0.0335 h -0.80008 v -1.36836 -1.36836 h 0.66316 0.66315 l 0.42013,0.42083 0.42013,0.42083 v 0.44856 0.44855 l 0.13988,0.13551 c 0.26564,0.25732 0.26188,0.58999 -0.009,0.82814 -0.14475,0.1271 -0.30203,0.16646 -0.48686,0.12185 z m 0.35857,-0.15237 c 0.30332,-0.20441 0.30332,-0.57819 0,-0.7826 -0.27974,-0.18852 -0.68641,0.0433 -0.68641,0.3913 0,0.34798 0.40667,0.57981 0.68641,0.3913 z m -0.28731,-0.22026 v -0.11403 h -0.11403 c -0.095,0 -0.11403,-0.01 -0.11403,-0.057 0,-0.0475 0.019,-0.057 0.11403,-0.057 h 0.11403 v -0.11403 c 0,-0.095 0.01,-0.11403 0.057,-0.11403 0.0475,0 0.057,0.019 0.057,0.11403 v 0.11403 h 0.11403 c 0.095,0 0.11403,0.01 0.11403,0.057 0,0.0475 -0.019,0.057 -0.11403,0.057 h -0.11403 v 0.11403 c 0,0.095 -0.01,0.11403 -0.057,0.11403 -0.0475,0 -0.057,-0.019 -0.057,-0.11403 z m -0.43732,0.0927 c -0.11574,-0.22864 -0.0766,-0.46993 0.10574,-0.65229 0.12352,-0.12353 0.31002,-0.19777 0.43619,-0.17365 l 0.0664,0.0127 v -0.4094 -0.40941 h -0.39911 -0.3991 v -0.39911 -0.3991 h -0.57015 -0.57015 v 1.25433 1.25433 h 0.68491 0.68491 z m 0.52285,-1.75372 c 0,-0.004 -0.1347,-0.14187 -0.29933,-0.30594 l -0.29933,-0.29831 v 0.30594 0.30595 h 0.29933 c 0.16463,0 0.29933,-0.003 0.29933,-0.008 z"
         id="path49146" /></g><path
       style="opacity:1;fill:#ffffff;fill-opacity:1"
       d="m 157.12445,206.66609 c -12.32573,-1.90891 -23.09807,-11.15049 -26.65763,-22.86958 -6.12397,-20.16183 11.09902,-41.22269 32.68871,-39.97288 7.3823,0.42735 13.39814,3.33146 19.46166,9.39499 7.70954,7.70954 11.31552,17.81197 9.55729,26.77548 -3.26805,16.66055 -19.5739,29.0688 -35.05003,26.67199 z m 7.50975,-13.44549 c 0.26866,-0.97318 0.52022,-4.35996 0.55902,-7.52618 l 0.0705,-5.75677 7.06688,-0.28384 c 4.11966,-0.16547 7.41574,-0.63272 7.9034,-1.12038 1.11177,-1.11176 1.06658,-4.77771 -0.0759,-6.15426 -0.71224,-0.8582 -2.44603,-1.09937 -7.90341,-1.09937 h -6.99102 l -0.0104,-6.19297 c -0.0128,-7.61387 -0.87276,-9.64386 -4.22107,-9.96446 -3.62137,-0.34674 -4.26171,1.03786 -4.26171,9.21503 v 6.9424 h -7.3449 c -8.23292,0 -9.18123,0.4697 -8.80511,4.36118 0.31299,3.23824 2.41634,4.1089 9.95704,4.1216 l 6.19297,0.0104 v 6.93613 c 0,7.96492 0.44791,8.7972 4.56911,8.49003 2.3057,-0.17186 2.89315,-0.52466 3.29453,-1.97857 z"
       id="path49588"
       transform="matrix(0.02850749,0,0,0.02850749,139.05627,133.79422)" /><path
       style="opacity:1;fill:#ffffff;fill-opacity:1;stroke-width:0.707768"
       d="M 32.911201,111.47342 V 24.064104 h 39.634996 39.634993 v 27.956827 27.956827 h 28.31071 28.31071 v 28.157052 28.15705 l -4.87914,-0.67438 c -16.34484,-2.25911 -36.87986,12.6939 -41.55741,30.26091 -1.252,4.702 -1.23891,14.64293 0.0255,19.3928 0.54594,2.05082 1.97539,5.8289 3.17656,8.39574 1.20114,2.56684 2.18391,4.79046 2.18391,4.94139 0,0.15093 -21.3392,0.27442 -47.420438,0.27442 H 32.911201 Z"
       id="path49659"
       transform="matrix(0.02850749,0,0,0.02850749,139.05627,133.79422)" /><path
       style="opacity:1;fill:#ffffff;fill-opacity:1;stroke-width:0.707768"
       d="M 120.67441,50.821934 V 30.159323 l 19.71267,20.131785 19.71267,20.131785 -7.85756,0.437712 c -4.32166,0.240742 -13.19236,0.479613 -19.71267,0.530826 l -11.85511,0.09311 z"
       id="path50213"
       transform="matrix(0.02850749,0,0,0.02850749,139.05627,133.79422)" /></g></svg>
