<?xml version="1.0" encoding="UTF-8" standalone="no"?>
<!-- Created with Inkscape (http://www.inkscape.org/) -->

<svg
   width="59.065338mm"
   height="59.065338mm"
   viewBox="0 0 6.3639856 6.3639856"
   version="1.1"
   id="svg35290"
   xml:space="preserve"
   inkscape:version="1.2.2 (732a01da63, 2022-12-09)"
   sodipodi:docname="file_open.svg"
   xmlns:inkscape="http://www.inkscape.org/namespaces/inkscape"
   xmlns:sodipodi="http://sodipodi.sourceforge.net/DTD/sodipodi-0.dtd"
   xmlns="http://www.w3.org/2000/svg"
   xmlns:svg="http://www.w3.org/2000/svg"><sodipodi:namedview
     id="namedview35292"
     pagecolor="#ffffff"
     bordercolor="#111111"
     borderopacity="1"
     inkscape:showpageshadow="0"
     inkscape:pageopacity="0"
     inkscape:pagecheckerboard="1"
     inkscape:deskcolor="#d1d1d1"
     inkscape:document-units="mm"
     showgrid="false"
     shape-rendering="auto"
     inkscape:zoom="1.4128928"
     inkscape:cx="204.191"
     inkscape:cy="52.374816"
     inkscape:window-width="1431"
     inkscape:window-height="885"
     inkscape:window-x="-8"
     inkscape:window-y="-8"
     inkscape:window-maximized="1"
     inkscape:current-layer="layer1" /><defs
     id="defs35287" /><g
     inkscape:label="Слой 1"
     inkscape:groupmode="layer"
     id="layer1"
     transform="translate(-139.05627,-133.79422)"><g
       id="g44744"
       transform="matrix(1.8562259,0,0,2.0705216,-136.82137,-136.29621)"><path
         style="fill:#feeecc;stroke-width:0.0285075"
         d="m 149.10884,133.30319 c -0.14691,-0.0606 -0.15271,-0.0965 -0.15271,-0.94628 v -0.79028 l 0.0687,-0.08 0.0687,-0.08 0.35175,-0.009 0.35175,-0.009 0.12709,0.13015 0.1271,0.13014 h 0.50486 c 0.27768,0 0.52564,0.008 0.55102,0.0177 0.0587,0.0225 0.12956,0.15823 0.12956,0.24823 0,0.0506 0.0239,0.0791 0.089,0.10607 0.16141,0.0669 0.16991,0.14216 0.0765,0.67849 -0.0704,0.4043 -0.0931,0.48521 -0.15318,0.54592 l -0.0705,0.0713 -1.00427,0.006 c -0.55235,0.003 -1.03177,-0.005 -1.06537,-0.0193 z"
         id="path44760" /><path
         style="fill:#fee7b1;stroke-width:0.0285075"
         d="m 149.10558,133.28905 c -0.0512,-0.0226 -0.10558,-0.0745 -0.12116,-0.11549 -0.0373,-0.098 -0.0372,-1.52589 4e-5,-1.62388 0.0435,-0.11445 0.18335,-0.15727 0.51362,-0.15727 h 0.28721 l 0.13715,0.12828 0.13714,0.12829 h 0.51477 0.51477 l 0.0738,0.0877 c 0.0406,0.0482 0.0743,0.122 0.0749,0.16392 7.7e-4,0.0535 0.0276,0.0932 0.0902,0.13322 0.14155,0.0906 0.15276,0.12685 0.11627,0.37621 -0.0778,0.53152 -0.13054,0.75654 -0.19504,0.83156 l -0.0645,0.0751 -0.99313,0.007 c -0.81379,0.006 -1.00991,-6.8e-4 -1.086,-0.0343 z"
         id="path44758" /><path
         style="fill:#fedda8;stroke-width:0.0285075"
         d="m 149.11223,133.29112 c -0.1464,-0.0638 -0.1561,-0.12169 -0.1561,-0.93221 0,-0.84364 0.009,-0.88544 0.19247,-0.93651 0.0588,-0.0163 0.22607,-0.0297 0.37177,-0.0298 l 0.26492,-1.6e-4 0.13715,0.12828 0.13714,0.12829 h 0.49921 0.49921 l 0.0751,0.0591 c 0.0494,0.0389 0.0814,0.0982 0.0934,0.17348 0.0107,0.0671 0.0373,0.12105 0.0642,0.13047 0.0939,0.0329 0.17414,0.13195 0.17414,0.21495 0,0.11374 -0.13645,0.8743 -0.17147,0.95578 -0.0586,0.13635 -0.15265,0.14827 -1.16034,0.14706 -0.70856,-8.4e-4 -0.95538,-0.0102 -1.02075,-0.0387 z"
         id="path44756" /><path
         style="fill:#fed476;stroke-width:0.0285075"
         d="m 149.13466,133.29912 c -0.16778,-0.0485 -0.17853,-0.10489 -0.17853,-0.93746 0,-0.77707 0.0143,-0.8788 0.12956,-0.92303 0.0254,-0.01 0.19644,-0.0177 0.38012,-0.0177 h 0.33397 l 0.11135,0.11403 0.11135,0.11403 h 0.51776 0.51776 l 0.0735,0.0578 c 0.0507,0.0399 0.0793,0.0968 0.0924,0.18371 0.0146,0.0972 0.0322,0.12789 0.0772,0.13462 0.0321,0.005 0.0849,0.0444 0.11735,0.0881 l 0.0591,0.0794 -0.0804,0.47649 c -0.0442,0.26208 -0.0983,0.50473 -0.12007,0.53923 -0.0218,0.0345 -0.0879,0.0761 -0.14684,0.0925 -0.13405,0.0372 -1.86578,0.0357 -1.99544,-0.002 z"
         id="path44754" /><path
         style="fill:#febe54;stroke-width:0.0285075"
         d="m 149.03949,133.22885 -0.0691,-0.0736 v -0.79362 -0.79361 l 0.0691,-0.0736 0.0691,-0.0736 h 0.34558 0.34559 l 0.11135,0.11403 0.11135,0.11403 h 0.5229 0.5229 l 0.07,0.07 c 0.0479,0.0479 0.07,0.10177 0.07,0.17066 0,0.0881 0.0125,0.10589 0.0997,0.14235 0.1659,0.0693 0.17337,0.12269 0.0866,0.6188 -0.0935,0.53467 -0.0913,0.52656 -0.16538,0.5956 l -0.0602,0.056 h -1.03018 -1.03017 z"
         id="path44752" /><path
         style="fill:#fec827;stroke-width:0.0285075"
         d="m 149.05975,133.24333 -0.0751,-0.0591 v -0.82258 -0.82257 l 0.0751,-0.0591 c 0.0662,-0.0521 0.1144,-0.0591 0.40757,-0.0591 h 0.33246 l 0.11135,0.11403 0.11135,0.11403 h 0.49451 c 0.62315,0 0.69123,0.0263 0.69123,0.26725 0,0.0787 0.013,0.0954 0.0926,0.11883 0.16974,0.05 0.17803,0.11776 0.0808,0.66091 -0.0759,0.42434 -0.0939,0.48538 -0.15962,0.5423 l -0.074,0.0641 h -1.00658 -1.00659 z"
         id="path44750" /><path
         style="fill:#feaf0f;stroke-width:0.0285075"
         d="m 149.05975,133.24333 -0.0751,-0.0591 v -0.82258 -0.82257 l 0.0751,-0.0591 c 0.0662,-0.0521 0.1144,-0.0591 0.40757,-0.0591 h 0.33246 l 0.11135,0.11403 0.11135,0.11403 h 0.49451 c 0.62633,0 0.69123,0.0256 0.69123,0.27273 v 0.097 l -0.84503,0.008 -0.84504,0.008 -0.0518,0.0713 c -0.0328,0.0452 -0.0838,0.24875 -0.13916,0.55589 -0.119,0.66018 -0.11445,0.64142 -0.15566,0.64142 -0.0202,0 -0.0705,-0.0266 -0.11177,-0.0591 z"
         id="path44748" /><path
         style="fill:#fe9f00;stroke-width:0.0285075"
         d="m 149.05461,133.23244 -0.07,-0.07 v -0.80081 -0.8008 l 0.07,-0.07 0.07,-0.07 h 0.3376 0.3376 l 0.10967,0.11231 0.10967,0.11231 0.52581,0.009 0.52581,0.009 0.0687,0.08 c 0.039,0.0453 0.0687,0.11633 0.0687,0.16391 v 0.0839 h -0.79635 c -0.43808,0 -0.82864,0.0123 -0.86812,0.0273 -0.10957,0.0417 -0.14299,0.14086 -0.24774,0.73529 -0.10324,0.58584 -0.11367,0.60653 -0.2414,0.4788 z"
         id="path44746" /></g><g
       id="path46138"
       inkscape:label="Стрелка"><path
         style="color:#000000;fill:#0863cb;stroke-linecap:round;stroke-linejoin:round;stroke-miterlimit:2.8;-inkscape-stroke:none"
         d="m 140.86133,134.08984 c -0.32661,0.10235 -0.55729,0.33292 -0.69336,0.58008 -0.13607,0.24716 -0.18954,0.50889 -0.14453,0.73438 a 0.1866685,0.1866685 0 0 0 0.21875,0.14648 0.1866685,0.1866685 0 0 0 0.14648,-0.21875 c -0.02,-0.10041 0.007,-0.30388 0.10547,-0.48242 0.0983,-0.17854 0.25668,-0.33478 0.47852,-0.4043 0.22183,-0.0695 0.5206,-0.0596 0.92773,0.14258 0.40713,0.20218 0.91602,0.601 1.51563,1.28711 a 0.1866685,0.1866685 0 0 0 0.26171,0.0176 0.1866685,0.1866685 0 0 0 0.0176,-0.26367 c -0.621,-0.7106 -1.15884,-1.14158 -1.6289,-1.375 -0.47007,-0.23343 -0.87848,-0.26642 -1.20508,-0.16407 z"
         id="path1892" /><g
         id="g1882"><g
           id="path1884"><path
             style="color:#000000;fill:#0863cb;fill-rule:evenodd;stroke-width:0.186669pt;-inkscape-stroke:none"
             d="m 144.26443,136.56237 -1.76532,-0.60165 1.40558,-1.22836 z"
             id="path1888" /><path
             style="color:#000000;fill:#0863cb;fill-rule:evenodd;-inkscape-stroke:none"
             d="m 143.98437,134.49609 -1.73046,1.51368 2.17382,0.74023 -0.041,-0.21094 z m -0.16015,0.47071 0.27734,1.41015 -1.35937,-0.46484 z"
             id="path1890" /></g></g></g></g></svg>
