<?xml version="1.0" encoding="UTF-8" standalone="no"?>

<svg
   width="800px"
   height="800px"
   viewBox="0 0 24 24"
   version="1.1"
   id="svg52"
   sodipodi:docname="floppy.svg"
   inkscape:version="1.2.2 (732a01da63, 2022-12-09)"
   xmlns:inkscape="http://www.inkscape.org/namespaces/inkscape"
   xmlns:sodipodi="http://sodipodi.sourceforge.net/DTD/sodipodi-0.dtd"
   xmlns="http://www.w3.org/2000/svg"
   xmlns:svg="http://www.w3.org/2000/svg">
  <defs
     id="defs56" />
  <sodipodi:namedview
     id="namedview54"
     pagecolor="#ffffff"
     bordercolor="#000000"
     borderopacity="0.25"
     inkscape:showpageshadow="2"
     inkscape:pageopacity="0.0"
     inkscape:pagecheckerboard="0"
     inkscape:deskcolor="#d1d1d1"
     showgrid="false"
     inkscape:zoom="0.92625"
     inkscape:cx="399.46019"
     inkscape:cy="400.53981"
     inkscape:window-width="1920"
     inkscape:window-height="921"
     inkscape:window-x="-8"
     inkscape:window-y="-8"
     inkscape:window-maximized="1"
     inkscape:current-layer="svg52" />
  <g
     transform="rotate(180,12.000001,526.20001)"
     id="g50">
    <path
       d="m 5,1031.4 c -1.1046,0 -2,0.9 -2,2 v 14 c 0,1.1 0.8954,2 2,2 h 13 1 c 1.105,0 2,-0.9 2,-2 v -13 l -3,-3 z"
       fill="#3498db"
       id="path30" />
    <path
       d="m 7,1031.4 v 1 5 c 0,0.5 0.4477,1 1,1 h 8 c 0.552,0 1,-0.5 1,-1 v -5 -1 z"
       fill="#2980b9"
       id="path32" />
    <path
       d="m 7,3 v 5 c 0,0.5523 0.4477,1 1,1 h 8 c 0.552,0 1,-0.4477 1,-1 V 3 Z"
       transform="translate(0,1028.4)"
       fill="#ecf0f1"
       id="path34" />
    <path
       d="m 6,1040.4 c -0.5523,0 -1,0.4 -1,1 v 3 2 3 h 4 6 4 v -3 -2 -3 c 0,-0.6 -0.448,-1 -1,-1 h -4 -4 z"
       fill="#ecf0f1"
       id="path36" />
    <g
       fill="#bdc3c7"
       id="g44">
      <rect
         height="1"
         width="14"
         y="1048.4"
         x="5"
         id="rect38" />
      <rect
         height="1"
         width="10"
         y="1042.4"
         x="7"
         id="rect40" />
      <rect
         height="1"
         width="10"
         y="1044.4"
         x="7"
         id="rect42" />
    </g>
    <rect
       height="4"
       width="3"
       y="1032.4"
       x="13"
       fill="#3498db"
       id="rect46" />
    <rect
       height="0.99997997"
       width="3"
       y="1032.4"
       x="13"
       fill="#2980b9"
       id="rect48" />
  </g>
</svg>
