<?xml version="1.0" encoding="UTF-8" standalone="no"?>
<!-- Created with Inkscape (http://www.inkscape.org/) -->

<svg
   width="59.065338mm"
   height="59.065338mm"
   viewBox="0 0 6.3639856 6.3639856"
   version="1.1"
   id="svg35290"
   xml:space="preserve"
   inkscape:version="1.2.2 (732a01da63, 2022-12-09)"
   sodipodi:docname="help.svg"
   xmlns:inkscape="http://www.inkscape.org/namespaces/inkscape"
   xmlns:sodipodi="http://sodipodi.sourceforge.net/DTD/sodipodi-0.dtd"
   xmlns="http://www.w3.org/2000/svg"
   xmlns:svg="http://www.w3.org/2000/svg"><sodipodi:namedview
     id="namedview35292"
     pagecolor="#ffffff"
     bordercolor="#111111"
     borderopacity="1"
     inkscape:showpageshadow="0"
     inkscape:pageopacity="0"
     inkscape:pagecheckerboard="1"
     inkscape:deskcolor="#d1d1d1"
     inkscape:document-units="mm"
     showgrid="false"
     shape-rendering="auto"
     inkscape:zoom="2.8257856"
     inkscape:cx="102.80327"
     inkscape:cy="98.910547"
     inkscape:window-width="1920"
     inkscape:window-height="1017"
     inkscape:window-x="-4"
     inkscape:window-y="-4"
     inkscape:window-maximized="1"
     inkscape:current-layer="layer1" /><defs
     id="defs35287"><rect
       x="33.972853"
       y="73.253965"
       width="237.45609"
       height="233.56337"
       id="rect15604" /><rect
       x="83.516598"
       y="67.237939"
       width="50.95928"
       height="102.62633"
       id="rect15598" /></defs><g
     inkscape:label="Слой 1"
     inkscape:groupmode="layer"
     id="layer1"
     transform="translate(-139.05627,-133.79422)"><g
       aria-label="?"
       transform="scale(1.0346273,0.96653163)"
       id="text15610"
       style="font-weight:bold;font-size:7.26491px;-inkscape-font-specification:'sans-serif, Bold';fill:#00ff00;stroke:#008000;stroke-width:0.2532;stroke-linecap:square;stroke-linejoin:bevel"><path
         d="m 139.33654,140.42737 q 0,0.35828 -0.10642,0.63497 -0.10288,0.27315 -0.29443,0.47534 -0.19156,0.2022 -0.46115,0.36183 -0.26605,0.15963 -0.60305,0.29088 v 0.80879 h -1.24865 v -1.19545 q 0.25186,-0.0674 0.45405,-0.13834 0.20575,-0.071 0.42923,-0.23058 0.20929,-0.14189 0.32635,-0.3299 0.12061,-0.18801 0.12061,-0.42568 0,-0.35473 -0.23058,-0.50372 -0.22702,-0.15253 -0.64206,-0.15253 -0.25541,0 -0.57821,0.10996 -0.31926,0.10997 -0.58531,0.28379 h -0.14189 v -1.08193 q 0.22702,-0.0958 0.69882,-0.19865 0.47179,-0.10642 0.95777,-0.10642 0.87619,0 1.39055,0.38666 0.51437,0.38665 0.51437,1.01098 z m -1.36572,3.99074 h -1.43312 v -0.9365 h 1.43312 z"
         id="path168" /></g></g></svg>
