<?xml version="1.0" encoding="UTF-8" standalone="no"?>
<!DOCTYPE svg PUBLIC "-//W3C//DTD SVG 1.1//EN" "http://www.w3.org/Graphics/SVG/1.1/DTD/svg11.dtd">
<svg xmlns="http://www.w3.org/2000/svg" version="1.1" viewBox="0 0 32 32">
<path stroke="#c2d86f" stroke-width="2.00" fill="none" stroke-linecap="butt" vector-effect="non-scaling-stroke" d="
  M 18.88 20.84
  C 18.87 15.32 30.65 12.04 24.05 5.72
  C 18.46 0.36 11.05 1.81 6.89 8.02
  C 5.63 9.91 6.31 11.77 8.00 12.96"
/>
<path fill="#acbe71" fill-opacity="0.996" d="
  M 18.88 20.84
  C 18.87 15.32 30.65 12.04 24.05 5.72
  C 18.46 0.36 11.05 1.81 6.89 8.02
  C 5.63 9.91 6.31 11.77 8.00 12.96
  C 3.51 13.24 4.89 8.09 6.70 5.91
  C 12.15 -0.65 25.70 -0.45 27.25 9.78
  Q 27.55 11.76 26.26 13.11
  L 18.88 20.84
  Z"
/>
<path fill="#d8f16d" d="
  M 18.88 20.84
  L 11.64 20.90
  A 0.62 0.45 -2.5 0 1 11.02 20.49
  Q 10.70 16.98 12.43 13.94
  A 1.48 0.44 -15.4 0 1 13.32 13.39
  Q 15.78 12.49 17.25 10.24
  Q 17.61 9.70 17.00 9.73
  L 16.75 9.75
  A 0.68 0.31 -58.9 0 0 16.34 10.03
  Q 13.29 13.87 8.00 12.96
  C 6.31 11.77 5.63 9.91 6.89 8.02
  C 11.05 1.81 18.46 0.36 24.05 5.72
  C 30.65 12.04 18.87 15.32 18.88 20.84
  Z"
/>
<rect fill="#d8f16d" x="-4.73" y="-3.77" transform="translate(15.03,25.97) rotate(-0.2)" width="9.46" height="7.54" rx="0.60"/>
</svg>
