<?xml version="1.0" encoding="UTF-8" standalone="no"?>
<!DOCTYPE svg PUBLIC "-//W3C//DTD SVG 1.1//EN" "http://www.w3.org/Graphics/SVG/1.1/DTD/svg11.dtd">
<svg xmlns="http://www.w3.org/2000/svg" version="1.1" viewBox="0 0 32 32">
<g stroke-width="2.00" fill="none" stroke-linecap="butt">
<path stroke="#85929a" vector-effect="non-scaling-stroke" d="
  M 6.54 20.25
  L 9.75 21.71"
/>
<path stroke="#caafa4" vector-effect="non-scaling-stroke" d="
  M 9.75 21.71
  L 11.11 22.92
  A 0.69 0.59 -39.8 0 0 11.89 22.93
  L 14.00 21.50"
/>
<path stroke="#cbc5c3" vector-effect="non-scaling-stroke" d="
  M 14.00 21.50
  L 12.50 23.49
  A 1.27 0.48 76.2 0 0 12.39 24.38
  Q 12.88 28.57 17.02 28.40
  A 1.25 0.64 6.5 0 0 17.87 28.08
  Q 21.52 23.40 16.10 20.88
  A 1.05 0.82 -40.3 0 0 15.28 20.91
  L 14.00 21.50"
/>
<path stroke="#caafa4" vector-effect="non-scaling-stroke" d="
  M 14.00 21.50
  Q 14.80 20.09 16.21 20.32
  A 0.52 0.38 5.6 0 0 16.81 19.96
  Q 16.80 19.54 16.25 19.46"
/>
<path stroke="#85929a" vector-effect="non-scaling-stroke" d="
  M 16.25 19.46
  Q 21.98 18.25 16.52 18.85
  C 14.09 19.12 13.36 18.15 10.93 19.39"
/>
<path stroke="#caafa4" vector-effect="non-scaling-stroke" d="
  M 10.93 19.39
  L 9.46 21.00"
/>
<path stroke="#85929a" vector-effect="non-scaling-stroke" d="
  M 9.46 21.00
  L 6.79 19.50"
/>
<path stroke="#c2bdbd" vector-effect="non-scaling-stroke" d="
  M 8.05 4.67
  C 3.28 5.72 0.74 12.20 4.49 15.11
  Q 6.75 16.86 6.32 14.03
  Q 5.63 9.46 8.46 6.00"
/>
<path stroke="#d1b6b0" vector-effect="non-scaling-stroke" d="
  M 8.46 6.00
  Q 5.35 11.64 7.56 17.77
  Q 7.93 18.79 8.62 17.96
  Q 9.61 16.75 11.25 16.46"
/>
<path stroke="#caafa4" vector-effect="non-scaling-stroke" d="
  M 11.25 16.46
  L 17.29 16.25"
/>
<path stroke="#d1b6b0" vector-effect="non-scaling-stroke" d="
  M 17.29 16.25
  Q 20.95 15.88 23.62 18.16
  A 0.40 0.39 34.9 0 0 24.22 18.06
  Q 24.89 16.81 26.00 15.96"
/>
<path stroke="#c2bdbd" vector-effect="non-scaling-stroke" d="
  M 26.00 15.96
  C 30.85 12.45 29.71 5.90 23.57 4.70"
/>
<path stroke="#d1b6b0" vector-effect="non-scaling-stroke" d="
  M 23.57 4.70
  Q 15.92 0.24 8.05 4.67"
/>
<path stroke="#e5d1ce" vector-effect="non-scaling-stroke" d="
  M 23.57 4.70
  C 25.95 9.01 25.93 10.44 26.00 15.96"
/>
<path stroke="#edc3b4" vector-effect="non-scaling-stroke" d="
  M 17.29 16.25
  Q 18.40 15.59 18.29 14.25"
/>
<path stroke="#a8a6aa" vector-effect="non-scaling-stroke" d="
  M 18.29 14.25
  Q 24.31 15.77 23.29 9.75"
/>
<path stroke="#e5d1ce" vector-effect="non-scaling-stroke" d="
  M 23.29 9.75
  C 22.05 6.95 19.23 6.51 17.26 8.74
  Q 16.56 9.53 15.79 10.25"
/>
<path stroke="#a8a6aa" vector-effect="non-scaling-stroke" d="
  M 15.79 10.25
  L 15.50 10.04"
/>
<path stroke="#e5d1ce" vector-effect="non-scaling-stroke" d="
  M 15.50 10.04
  Q 12.17 4.58 8.71 10.00"
/>
<path stroke="#a8a6aa" vector-effect="non-scaling-stroke" d="
  M 8.71 10.00
  Q 7.73 13.31 11.00 14.54"
/>
<path stroke="#edc3b4" vector-effect="non-scaling-stroke" d="
  M 11.00 14.54
  L 11.25 16.46"
/>
<path stroke="#e5d1ce" vector-effect="non-scaling-stroke" d="
  M 8.46 6.00
  Q 9.67 4.26 8.05 4.67"
/>
<path stroke="#99adb8" vector-effect="non-scaling-stroke" d="
  M 23.29 9.75
  Q 23.21 15.72 17.46 13.50"
/>
<path stroke="#decac2" vector-effect="non-scaling-stroke" d="
  M 17.46 13.50
  L 15.79 11.50"
/>
<path stroke="#99adb8" vector-effect="non-scaling-stroke" d="
  M 15.79 11.50
  L 15.79 10.25"
/>
<path stroke="#a19f9e" vector-effect="non-scaling-stroke" d="
  M 18.29 14.25
  L 17.46 13.50"
/>
<path stroke="#99adb8" vector-effect="non-scaling-stroke" d="
  M 15.50 10.04
  C 14.70 16.10 7.92 14.70 8.71 10.00"
/>
<path stroke="#a19f9e" vector-effect="non-scaling-stroke" d="
  M 15.79 11.50
  Q 14.62 14.93 11.00 14.54"
/>
<path stroke="#99adb8" vector-effect="non-scaling-stroke" d="
  M 21.35 11.21
  C 21.62 10.09 19.03 9.93 18.77 11.09
  A 0.50 0.32 1.1 0 0 19.32 11.46
  L 20.75 11.37
  A 0.65 0.15 -2.2 0 0 21.35 11.21"
/>
<path stroke="#99adb8" vector-effect="non-scaling-stroke" d="
  M 13.66 11.16
  C 13.72 10.48 11.52 10.18 11.00 10.96
  A 0.33 0.19 12.9 0 0 11.33 11.27
  L 13.01 11.41
  A 0.63 0.30 4.4 0 0 13.66 11.16"
/>
<path stroke="#a19f9e" vector-effect="non-scaling-stroke" d="
  M 16.25 19.46
  Q 13.63 18.72 10.93 19.39"
/>
<path stroke="#a19f9e" vector-effect="non-scaling-stroke" d="
  M 9.75 21.71
  L 9.46 21.00"
/>
</g>
<path fill="#ada29f" d="
  M 16.44 32.00
  L 15.69 32.00
  Q 12.92 29.32 10.53 24.44
  Q 9.57 22.49 6.99 21.40
  A 1.01 0.57 15.1 0 1 6.36 20.78
  Q 6.33 20.49 6.54 20.25
  L 9.75 21.71
  L 11.11 22.92
  A 0.69 0.59 -39.8 0 0 11.89 22.93
  L 14.00 21.50
  L 12.50 23.49
  A 1.27 0.48 76.2 0 0 12.39 24.38
  Q 12.88 28.57 17.02 28.40
  A 1.25 0.64 6.5 0 0 17.87 28.08
  Q 21.52 23.40 16.10 20.88
  A 1.05 0.82 -40.3 0 0 15.28 20.91
  L 14.00 21.50
  Q 14.80 20.09 16.21 20.32
  A 0.52 0.38 5.6 0 0 16.81 19.96
  Q 16.80 19.54 16.25 19.46
  Q 21.98 18.25 16.52 18.85
  C 14.09 19.12 13.36 18.15 10.93 19.39
  L 9.46 21.00
  L 6.79 19.50
  Q 5.39 17.73 3.24 16.59
  A 1.39 1.21 7.4 0 1 2.62 15.89
  C 0.57 10.06 1.13 5.35 7.46 2.89
  Q 19.25 -1.68 29.11 5.70
  A 1.65 0.80 25.7 0 1 29.75 6.50
  Q 30.96 11.14 29.54 15.72
  A 1.12 0.01 -39.9 0 1 28.69 16.44
  L 25.83 18.83
  A 1.00 0.71 68.4 0 0 25.61 19.72
  C 25.96 21.35 22.94 22.58 21.84 23.69
  A 1.98 1.51 81.0 0 0 21.38 24.54
  Q 20.23 29.12 16.44 32.00
  Z
  M 8.05 4.67
  C 3.28 5.72 0.74 12.20 4.49 15.11
  Q 6.75 16.86 6.32 14.03
  Q 5.63 9.46 8.46 6.00
  Q 5.35 11.64 7.56 17.77
  Q 7.93 18.79 8.62 17.96
  Q 9.61 16.75 11.25 16.46
  L 17.29 16.25
  Q 20.95 15.88 23.62 18.16
  A 0.40 0.39 34.9 0 0 24.22 18.06
  Q 24.89 16.81 26.00 15.96
  C 30.85 12.45 29.71 5.90 23.57 4.70
  Q 15.92 0.24 8.05 4.67
  Z"
/>
<path fill="#f4cac0" d="
  M 23.57 4.70
  C 25.95 9.01 25.93 10.44 26.00 15.96
  Q 24.89 16.81 24.22 18.06
  A 0.40 0.39 34.9 0 1 23.62 18.16
  Q 20.95 15.88 17.29 16.25
  Q 18.40 15.59 18.29 14.25
  Q 24.31 15.77 23.29 9.75
  C 22.05 6.95 19.23 6.51 17.26 8.74
  Q 16.56 9.53 15.79 10.25
  L 15.50 10.04
  Q 12.17 4.58 8.71 10.00
  Q 7.73 13.31 11.00 14.54
  L 11.25 16.46
  Q 9.61 16.75 8.62 17.96
  Q 7.93 18.79 7.56 17.77
  Q 5.35 11.64 8.46 6.00
  Q 9.67 4.26 8.05 4.67
  Q 15.92 0.24 23.57 4.70
  Z"
/>
<path fill="#d6d8db" d="
  M 8.05 4.67
  Q 9.67 4.26 8.46 6.00
  Q 5.63 9.46 6.32 14.03
  Q 6.75 16.86 4.49 15.11
  C 0.74 12.20 3.28 5.72 8.05 4.67
  Z"
/>
<path fill="#d6d8db" d="
  M 23.57 4.70
  C 29.71 5.90 30.85 12.45 26.00 15.96
  C 25.93 10.44 25.95 9.01 23.57 4.70
  Z"
/>
<path fill="#d6d8db" d="
  M 23.29 9.75
  Q 23.21 15.72 17.46 13.50
  L 15.79 11.50
  L 15.79 10.25
  Q 16.56 9.53 17.26 8.74
  C 19.23 6.51 22.05 6.95 23.29 9.75
  Z
  M 21.35 11.21
  C 21.62 10.09 19.03 9.93 18.77 11.09
  A 0.50 0.32 1.1 0 0 19.32 11.46
  L 20.75 11.37
  A 0.65 0.15 -2.2 0 0 21.35 11.21
  Z"
/>
<path fill="#d6d8db" d="
  M 15.50 10.04
  C 14.70 16.10 7.92 14.70 8.71 10.00
  Q 12.17 4.58 15.50 10.04
  Z
  M 13.66 11.16
  C 13.72 10.48 11.52 10.18 11.00 10.96
  A 0.33 0.19 12.9 0 0 11.33 11.27
  L 13.01 11.41
  A 0.63 0.30 4.4 0 0 13.66 11.16
  Z"
/>
<path fill="#5c8194" d="
  M 23.29 9.75
  Q 24.31 15.77 18.29 14.25
  L 17.46 13.50
  Q 23.21 15.72 23.29 9.75
  Z"
/>
<path fill="#5c8194" d="
  M 8.71 10.00
  C 7.92 14.70 14.70 16.10 15.50 10.04
  L 15.79 10.25
  L 15.79 11.50
  Q 14.62 14.93 11.00 14.54
  Q 7.73 13.31 8.71 10.00
  Z"
/>
<path fill="#5c8194" d="
  M 18.77 11.09
  C 19.03 9.93 21.62 10.09 21.35 11.21
  A 0.65 0.15 -2.2 0 1 20.75 11.37
  L 19.32 11.46
  A 0.50 0.32 1.1 0 1 18.77 11.09
  Z"
/>
<path fill="#5c8194" d="
  M 11.00 10.96
  C 11.52 10.18 13.72 10.48 13.66 11.16
  A 0.63 0.30 4.4 0 1 13.01 11.41
  L 11.33 11.27
  A 0.33 0.19 12.9 0 1 11.00 10.96
  Z"
/>
<path fill="#e6bca8" d="
  M 15.79 11.50
  L 17.46 13.50
  L 18.29 14.25
  Q 18.40 15.59 17.29 16.25
  L 11.25 16.46
  L 11.00 14.54
  Q 14.62 14.93 15.79 11.50
  Z"
/>
<path fill="#5c8194" d="
  M 16.25 19.46
  Q 13.63 18.72 10.93 19.39
  C 13.36 18.15 14.09 19.12 16.52 18.85
  Q 21.98 18.25 16.25 19.46
  Z"
/>
<path fill="#e6bca8" d="
  M 16.25 19.46
  Q 16.80 19.54 16.81 19.96
  A 0.52 0.38 5.6 0 1 16.21 20.32
  Q 14.80 20.09 14.00 21.50
  L 11.89 22.93
  A 0.69 0.59 -39.8 0 1 11.11 22.92
  L 9.75 21.71
  L 9.46 21.00
  L 10.93 19.39
  Q 13.63 18.72 16.25 19.46
  Z"
/>
<path fill="#5c8194" d="
  M 6.79 19.50
  L 9.46 21.00
  L 9.75 21.71
  L 6.54 20.25
  L 6.79 19.50
  Z"
/>
<path fill="#e8e7e7" d="
  M 14.00 21.50
  L 15.28 20.91
  A 1.05 0.82 -40.3 0 1 16.10 20.88
  Q 21.52 23.40 17.87 28.08
  A 1.25 0.64 6.5 0 1 17.02 28.40
  Q 12.88 28.57 12.39 24.38
  A 1.27 0.48 76.2 0 1 12.50 23.49
  L 14.00 21.50
  Z"
/>
</svg>
