<?xml version="1.0" encoding="UTF-8" standalone="no"?>
<!DOCTYPE svg PUBLIC "-//W3C//DTD SVG 1.1//EN" "http://www.w3.org/Graphics/SVG/1.1/DTD/svg11.dtd">
<svg xmlns="http://www.w3.org/2000/svg" version="1.1" viewBox="0 0 32 32">
<g stroke-width="2.00" fill="none" stroke-linecap="butt">
<path stroke="#6f7e34" vector-effect="non-scaling-stroke" d="
  M 12.00 6.96
  L 11.25 7.29"
/>
<path stroke="#c4b276" vector-effect="non-scaling-stroke" d="
  M 11.25 7.29
  Q 10.46 6.84 10.30 5.95
  A 1.27 0.75 -41.0 0 1 10.59 5.09
  C 11.59 3.77 9.66 1.90 8.82 3.30
  A 1.29 0.73 61.8 0 0 8.80 4.22
  Q 9.26 5.72 8.50 7.04"
/>
<path stroke="#8c7a3a" stroke-opacity="0.996" vector-effect="non-scaling-stroke" d="
  M 8.50 7.04
  L 7.79 5.50"
/>
<path stroke="#2c671e" stroke-opacity="0.996" vector-effect="non-scaling-stroke" d="
  M 28.50 8.04
  L 29.50 8.96"
/>
<path stroke="#67a668" vector-effect="non-scaling-stroke" d="
  M 29.50 8.96
  Q 24.60 10.21 25.38 5.58
  A 0.92 0.75 -69.5 0 0 25.10 4.75
  C 23.60 3.60 23.74 6.93 23.71 8.00
  A 0.69 0.47 90.0 0 1 23.26 8.66
  L 17.51 9.10
  A 0.50 0.44 -10.6 0 0 17.05 9.68
  Q 18.02 12.48 15.83 14.05
  A 0.84 0.65 46.9 0 1 14.90 13.90
  Q 13.20 12.36 11.29 13.47
  A 1.29 0.60 84.4 0 0 10.93 14.50
  Q 10.95 19.94 14.92 16.35
  Q 16.63 14.82 17.21 17.77
  Q 17.62 19.90 17.39 22.07
  A 0.70 0.64 -85.9 0 0 18.00 22.84
  L 21.75 22.96
  A 0.95 0.77 72.9 0 1 22.44 23.42
  Q 23.47 25.21 25.15 23.12"
/>
<path stroke="#2c671e" stroke-opacity="0.996" vector-effect="non-scaling-stroke" d="
  M 25.15 23.12
  L 25.04 24.25"
/>
<path stroke="#7a9455" vector-effect="non-scaling-stroke" d="
  M 15.87 23.77
  Q 13.05 21.85 10.28 23.68"
/>
<path stroke="#6f7e34" vector-effect="non-scaling-stroke" d="
  M 9.96 24.50
  L 9.21 23.25"
/>
<path stroke="#8c7a3a" stroke-opacity="0.996" vector-effect="non-scaling-stroke" d="
  M 1.71 21.25
  L 1.04 22.50"
/>
<path stroke="#978f5b" vector-effect="non-scaling-stroke" d="
  M 3.25 6.04
  Q 4.55 7.54 7.00 7.00
  Q 7.94 6.79 7.71 6.00"
/>
<path stroke="#90a46b" vector-effect="non-scaling-stroke" d="
  M 11.25 7.29
  C 10.93 8.71 16.28 5.94 15.74 10.52
  C 15.69 10.89 15.82 14.75 14.45 11.49
  Q 13.70 9.70 11.45 11.47
  C 7.25 14.78 9.71 21.33 15.08 18.65
  A 0.35 0.32 -15.5 0 1 15.57 18.90
  C 15.98 24.52 10.74 20.10 9.21 23.25"
/>
<path stroke="#c4b276" vector-effect="non-scaling-stroke" d="
  M 9.21 23.25
  Q 8.88 23.49 8.46 23.53
  A 1.03 0.65 63.3 0 1 7.71 23.08
  C 6.61 21.55 4.18 22.02 2.57 22.20
  A 0.65 0.59 -11.7 0 1 1.89 21.80
  L 1.71 21.25"
/>
<path stroke="#ad9f71" vector-effect="non-scaling-stroke" d="
  M 1.71 21.25
  L 1.75 8.23
  A 0.72 0.72 -79.0 0 1 2.74 7.56
  Q 5.81 8.78 8.50 7.04"
/>
<path stroke="#2c671e" stroke-opacity="0.996" vector-effect="non-scaling-stroke" d="
  M 28.75 13.21
  L 28.75 12.29"
/>
<path stroke="#579d5d" stroke-opacity="0.996" vector-effect="non-scaling-stroke" d="
  M 29.50 8.96
  Q 31.45 11.20 28.75 12.29"
/>
<path stroke="#67a668" vector-effect="non-scaling-stroke" d="
  M 28.75 12.29
  C 24.45 10.44 22.04 18.07 27.14 20.58
  A 0.83 0.76 -49.8 0 0 27.98 20.47
  Q 29.76 19.09 30.04 21.25"
/>
<path stroke="#579d5d" stroke-opacity="0.996" vector-effect="non-scaling-stroke" d="
  M 30.04 21.25
  C 30.64 23.87 26.76 22.95 25.15 23.12"
/>
<path stroke="#67a668" vector-effect="non-scaling-stroke" d="
  M 26.25 14.04
  C 24.14 15.15 24.32 18.93 25.96 18.00"
/>
<path stroke="#2c671e" stroke-opacity="0.996" vector-effect="non-scaling-stroke" d="
  M 30.96 20.00
  L 30.04 21.25"
/>
</g>
<path fill="#a38d3f" fill-opacity="0.996" d="
  M 12.00 6.96
  L 11.25 7.29
  Q 10.46 6.84 10.30 5.95
  A 1.27 0.75 -41.0 0 1 10.59 5.09
  C 11.59 3.77 9.66 1.90 8.82 3.30
  A 1.29 0.73 61.8 0 0 8.80 4.22
  Q 9.26 5.72 8.50 7.04
  L 7.79 5.50
  Q 6.50 1.19 11.19 1.97
  A 0.70 0.60 4.2 0 1 11.78 2.55
  L 12.00 6.96
  Z"
/>
<path fill="#e4d7ad" d="
  M 11.25 7.29
  C 10.93 8.71 16.28 5.94 15.74 10.52
  C 15.69 10.89 15.82 14.75 14.45 11.49
  Q 13.70 9.70 11.45 11.47
  C 7.25 14.78 9.71 21.33 15.08 18.65
  A 0.35 0.32 -15.5 0 1 15.57 18.90
  C 15.98 24.52 10.74 20.10 9.21 23.25
  Q 8.88 23.49 8.46 23.53
  A 1.03 0.65 63.3 0 1 7.71 23.08
  C 6.61 21.55 4.18 22.02 2.57 22.20
  A 0.65 0.59 -11.7 0 1 1.89 21.80
  L 1.71 21.25
  L 1.75 8.23
  A 0.72 0.72 -79.0 0 1 2.74 7.56
  Q 5.81 8.78 8.50 7.04
  Q 9.26 5.72 8.80 4.22
  A 1.29 0.73 61.8 0 1 8.82 3.30
  C 9.66 1.90 11.59 3.77 10.59 5.09
  A 1.27 0.75 -41.0 0 0 10.30 5.95
  Q 10.46 6.84 11.25 7.29
  Z"
/>
<path fill="#3c7029" d="
  M 28.50 8.04
  L 29.50 8.96
  Q 24.60 10.21 25.38 5.58
  A 0.92 0.75 -69.5 0 0 25.10 4.75
  C 23.60 3.60 23.74 6.93 23.71 8.00
  A 0.69 0.47 90.0 0 1 23.26 8.66
  L 17.51 9.10
  A 0.50 0.44 -10.6 0 0 17.05 9.68
  Q 18.02 12.48 15.83 14.05
  A 0.84 0.65 46.9 0 1 14.90 13.90
  Q 13.20 12.36 11.29 13.47
  A 1.29 0.60 84.4 0 0 10.93 14.50
  Q 10.95 19.94 14.92 16.35
  Q 16.63 14.82 17.21 17.77
  Q 17.62 19.90 17.39 22.07
  A 0.70 0.64 -85.9 0 0 18.00 22.84
  L 21.75 22.96
  A 0.95 0.77 72.9 0 1 22.44 23.42
  Q 23.47 25.21 25.15 23.12
  L 25.04 24.25
  L 24.63 28.27
  A 0.79 0.73 -89.8 0 1 23.97 28.98
  Q 19.09 29.53 22.00 25.43
  Q 22.97 24.07 21.25 23.99
  L 15.87 23.77
  Q 13.05 21.85 10.28 23.68
  L 9.96 24.50
  L 9.21 23.25
  C 10.74 20.10 15.98 24.52 15.57 18.90
  A 0.35 0.32 -15.5 0 0 15.08 18.65
  C 9.71 21.33 7.25 14.78 11.45 11.47
  Q 13.70 9.70 14.45 11.49
  C 15.82 14.75 15.69 10.89 15.74 10.52
  C 16.28 5.94 10.93 8.71 11.25 7.29
  L 12.00 6.96
  L 15.57 7.00
  A 1.98 1.15 -16.1 0 1 16.57 7.25
  Q 19.14 8.87 22.23 7.84
  A 0.77 0.39 -18.8 0 0 22.84 7.21
  L 22.16 5.40
  A 1.16 0.49 62.4 0 1 22.09 4.52
  C 23.49 1.99 28.34 3.06 26.37 5.97
  A 1.76 0.90 -42.5 0 0 26.04 6.86
  Q 26.06 8.71 28.50 8.04
  Z"
/>
<path fill="#91dca6" d="
  M 29.50 8.96
  Q 31.45 11.20 28.75 12.29
  C 24.45 10.44 22.04 18.07 27.14 20.58
  A 0.83 0.76 -49.8 0 0 27.98 20.47
  Q 29.76 19.09 30.04 21.25
  C 30.64 23.87 26.76 22.95 25.15 23.12
  Q 23.47 25.21 22.44 23.42
  A 0.95 0.77 72.9 0 0 21.75 22.96
  L 18.00 22.84
  A 0.70 0.64 -85.9 0 1 17.39 22.07
  Q 17.62 19.90 17.21 17.77
  Q 16.63 14.82 14.92 16.35
  Q 10.95 19.94 10.93 14.50
  A 1.29 0.60 84.4 0 1 11.29 13.47
  Q 13.20 12.36 14.90 13.90
  A 0.84 0.65 46.9 0 0 15.83 14.05
  Q 18.02 12.48 17.05 9.68
  A 0.50 0.44 -10.6 0 1 17.51 9.10
  L 23.26 8.66
  A 0.69 0.47 90.0 0 0 23.71 8.00
  C 23.74 6.93 23.60 3.60 25.10 4.75
  A 0.92 0.75 -69.5 0 1 25.38 5.58
  Q 24.60 10.21 29.50 8.96
  Z"
/>
<path fill="#756635" fill-opacity="0.996" d="
  M 7.79 5.50
  L 8.50 7.04
  Q 5.81 8.78 2.74 7.56
  A 0.72 0.72 -79.0 0 0 1.75 8.23
  L 1.71 21.25
  L 1.04 22.50
  Q 1.02 14.75 1.00 7.00
  Q 1.00 5.31 3.25 6.04
  Q 4.55 7.54 7.00 7.00
  Q 7.94 6.79 7.71 6.00
  L 7.79 5.50
  Z"
/>
<path fill="#b8b781" d="
  M 3.25 6.04
  L 7.71 6.00
  Q 7.94 6.79 7.00 7.00
  Q 4.55 7.54 3.25 6.04
  Z"
/>
<path fill="#1c5e13" fill-opacity="0.992" d="
  M 28.50 8.04
  C 32.08 6.93 31.09 11.99 30.73 14.24
  Q 30.63 14.82 30.21 14.46
  L 28.75 13.21
  L 28.75 12.29
  Q 31.45 11.20 29.50 8.96
  L 28.50 8.04
  Z"
/>
<path fill="#3c7029" d="
  M 28.75 12.29
  L 28.75 13.21
  Q 27.30 12.69 26.25 14.04
  C 24.14 15.15 24.32 18.93 25.96 18.00
  L 26.00 18.47
  A 0.58 0.53 89.2 0 0 26.50 19.00
  Q 28.12 19.11 29.50 18.24
  A 1.27 1.05 -52.1 0 1 30.35 18.05
  Q 31.47 18.24 30.96 20.00
  L 30.04 21.25
  Q 29.76 19.09 27.98 20.47
  A 0.83 0.76 -49.8 0 1 27.14 20.58
  C 22.04 18.07 24.45 10.44 28.75 12.29
  Z"
/>
<path fill="#91dca6" d="
  M 26.25 14.04
  L 25.96 18.00
  C 24.32 18.93 24.14 15.15 26.25 14.04
  Z"
/>
<path fill="#1c5e13" fill-opacity="0.992" d="
  M 30.96 20.00
  C 32.71 25.38 27.43 23.72 25.04 24.25
  L 25.15 23.12
  C 26.76 22.95 30.64 23.87 30.04 21.25
  L 30.96 20.00
  Z"
/>
<path fill="#a38d3f" fill-opacity="0.996" d="
  M 1.71 21.25
  L 1.89 21.80
  A 0.65 0.59 -11.7 0 0 2.57 22.20
  C 4.18 22.02 6.61 21.55 7.71 23.08
  A 1.03 0.65 63.3 0 0 8.46 23.53
  Q 8.88 23.49 9.21 23.25
  L 9.96 24.50
  C 13.38 26.33 8.79 28.32 6.75 28.02
  A 0.90 0.53 4.0 0 1 6.01 27.51
  Q 5.80 25.85 7.01 24.75
  Q 7.77 24.06 6.79 24.03
  C 5.45 23.99 0.31 24.85 1.04 22.50
  L 1.71 21.25
  Z"
/>
<path fill="#b8b781" d="
  M 15.87 23.77
  Q 13.19 24.42 10.28 23.68
  Q 13.05 21.85 15.87 23.77
  Z"
/>
</svg>
