<?xml version="1.0" encoding="UTF-8" standalone="no"?>
<!-- Created with Inkscape (http://www.inkscape.org/) -->

<svg
   width="59.065338mm"
   height="59.065338mm"
   viewBox="0 0 6.3639856 6.3639856"
   version="1.1"
   id="svg35290"
   xml:space="preserve"
   inkscape:version="1.2.2 (732a01da63, 2022-12-09)"
   sodipodi:docname="query_rollback.svg"
   xmlns:inkscape="http://www.inkscape.org/namespaces/inkscape"
   xmlns:sodipodi="http://sodipodi.sourceforge.net/DTD/sodipodi-0.dtd"
   xmlns="http://www.w3.org/2000/svg"
   xmlns:svg="http://www.w3.org/2000/svg"><sodipodi:namedview
     id="namedview35292"
     pagecolor="#ffffff"
     bordercolor="#111111"
     borderopacity="1"
     inkscape:showpageshadow="0"
     inkscape:pageopacity="0"
     inkscape:pagecheckerboard="1"
     inkscape:deskcolor="#d1d1d1"
     inkscape:document-units="mm"
     showgrid="false"
     shape-rendering="auto"
     inkscape:zoom="2.8257856"
     inkscape:cx="19.99444"
     inkscape:cy="116.60474"
     inkscape:window-width="1920"
     inkscape:window-height="1017"
     inkscape:window-x="-4"
     inkscape:window-y="-4"
     inkscape:window-maximized="1"
     inkscape:current-layer="layer1" /><defs
     id="defs35287" /><g
     inkscape:label="Слой 1"
     inkscape:groupmode="layer"
     id="layer1"
     transform="translate(-139.05627,-133.79422)"><g
       id="_3"
       data-name="3"
       transform="matrix(0.34575468,0,0,0.32813123,139.47223,135.31964)"><path
         class="cls-1"
         d="M 13.32,5.5 A 0.87,0.87 0 0 0 13.5,5 C 13.5,3.9 11,3 8,3 5,3 2.5,3.9 2.5,5 a 0.87,0.87 0 0 0 0.18,0.5 0.78,0.78 0 0 0 0,1 0.78,0.78 0 0 0 0,1 0.78,0.78 0 0 0 0,1 0.78,0.78 0 0 0 0,1 0.78,0.78 0 0 0 0,1 A 0.87,0.87 0 0 0 2.5,11 c 0,1.1 2.5,2 5.5,2 3,0 5.5,-0.9 5.5,-2 a 0.87,0.87 0 0 0 -0.18,-0.5 0.78,0.78 0 0 0 0,-1 0.78,0.78 0 0 0 0,-1 0.78,0.78 0 0 0 0,-1 0.78,0.78 0 0 0 0,-1 0.78,0.78 0 0 0 0,-1 z"
         id="path14656"
         style="fill:#f9f9d1" /><ellipse
         class="cls-2"
         cx="8"
         cy="5"
         rx="5.5"
         ry="2"
         id="ellipse14658"
         style="fill:#ac9230" /><path
         class="cls-2"
         d="M 8,12 C 5.44,12 3.29,11.36 2.68,10.5 A 0.87,0.87 0 0 0 2.5,11 c 0,1.1 2.5,2 5.5,2 3,0 5.5,-0.9 5.5,-2 A 0.87,0.87 0 0 0 13.32,10.5 C 12.71,11.36 10.56,12 8,12 Z"
         id="path14660"
         style="fill:#ac9230" /><path
         class="cls-2"
         d="M 8,8 C 5.44,8 3.29,7.36 2.68,6.5 A 0.87,0.87 0 0 0 2.5,7 C 2.5,8.1 5,9 8,9 11,9 13.5,8.1 13.5,7 A 0.87,0.87 0 0 0 13.32,6.5 C 12.71,7.36 10.56,8 8,8 Z"
         id="path14662"
         style="fill:#ac9230" /><path
         class="cls-2"
         d="M 8,10 C 5.44,10 3.29,9.36 2.68,8.5 A 0.87,0.87 0 0 0 2.5,9 c 0,1.1 2.5,2 5.5,2 3,0 5.5,-0.9 5.5,-2 A 0.87,0.87 0 0 0 13.32,8.5 C 12.71,9.36 10.56,10 8,10 Z"
         id="path14664"
         style="fill:#ac9230" /></g><path
       style="fill:#ff0000;fill-opacity:1;stroke:#800000;stroke-width:0.190385;stroke-linecap:square;stroke-linejoin:bevel;stroke-dasharray:none;stroke-opacity:1"
       d="m 141.34148,137.75901 1.80551,0.0149 -0.0119,-1.42733 h 0.55828 l -1.43728,-1.57265 -1.47292,1.57265 h 0.55828 z"
       id="path14782"
       sodipodi:nodetypes="cccccccc" /></g></svg>
