<?xml version="1.0" encoding="UTF-8" standalone="no"?>
<!-- Created with Inkscape (http://www.inkscape.org/) -->

<svg
   width="59.065338mm"
   height="59.065338mm"
   viewBox="0 0 6.3639856 6.3639856"
   version="1.1"
   id="svg35290"
   xml:space="preserve"
   inkscape:version="1.2.2 (732a01da63, 2022-12-09)"
   sodipodi:docname="query_pgscript.svg"
   xmlns:inkscape="http://www.inkscape.org/namespaces/inkscape"
   xmlns:sodipodi="http://sodipodi.sourceforge.net/DTD/sodipodi-0.dtd"
   xmlns:xlink="http://www.w3.org/1999/xlink"
   xmlns="http://www.w3.org/2000/svg"
   xmlns:svg="http://www.w3.org/2000/svg"><sodipodi:namedview
     id="namedview35292"
     pagecolor="#ffffff"
     bordercolor="#111111"
     borderopacity="1"
     inkscape:showpageshadow="0"
     inkscape:pageopacity="0"
     inkscape:pagecheckerboard="1"
     inkscape:deskcolor="#d1d1d1"
     inkscape:document-units="mm"
     showgrid="false"
     shape-rendering="auto"
     inkscape:zoom="1.4128928"
     inkscape:cx="150.40065"
     inkscape:cy="50.605396"
     inkscape:window-width="1920"
     inkscape:window-height="1017"
     inkscape:window-x="-4"
     inkscape:window-y="-4"
     inkscape:window-maximized="1"
     inkscape:current-layer="layer1" /><defs
     id="defs35287"><linearGradient
       inkscape:collect="always"
       id="linearGradient5167"><stop
         style="stop-color:#a6c656;stop-opacity:1;"
         offset="0"
         id="stop5163" /><stop
         style="stop-color:#bad389;stop-opacity:1;"
         offset="1"
         id="stop5165" /></linearGradient><linearGradient
       inkscape:collect="always"
       xlink:href="#linearGradient5167"
       id="linearGradient5169"
       x1="140.3624"
       y1="136.9209"
       x2="142.6531"
       y2="136.9209"
       gradientUnits="userSpaceOnUse"
       gradientTransform="matrix(1.2432163,0,0,1.1292705,-34.225341,-17.720005)" /></defs><g
     inkscape:label="Слой 1"
     inkscape:groupmode="layer"
     id="layer1"
     transform="translate(-139.05627,-133.79422)"><g
       aria-label="S"
       transform="scale(1.1860073,0.84316512)"
       id="text9663"
       style="font-weight:bold;font-size:2.59314px;-inkscape-font-specification:'sans-serif, Bold';fill:#800000;stroke-width:1.6106;stroke-linecap:round;stroke-linejoin:round"><path
         d="m 122.27052,165.33414 q 0,0.27856 -0.23678,0.45329 -0.23551,0.17347 -0.64069,0.17347 -0.23424,0 -0.40897,-0.0405 -0.17347,-0.0418 -0.32541,-0.10509 v -0.45203 h 0.0532 q 0.15067,0.12029 0.3368,0.18486 0.1874,0.0646 0.3596,0.0646 0.0443,0 0.11648,-0.008 0.0722,-0.008 0.11776,-0.0253 0.0557,-0.0228 0.0912,-0.057 0.0367,-0.0342 0.0367,-0.10129 0,-0.062 -0.0532,-0.10636 -0.0519,-0.0456 -0.1532,-0.0696 -0.10636,-0.0253 -0.22538,-0.0469 -0.11776,-0.0228 -0.22159,-0.057 -0.23804,-0.0772 -0.34313,-0.20892 -0.10383,-0.13295 -0.10383,-0.32921 0,-0.26336 0.23551,-0.42923 0.23678,-0.16714 0.60777,-0.16714 0.18613,0 0.36719,0.0367 0.18233,0.0354 0.31528,0.0899 v 0.4343 h -0.0519 q -0.11396,-0.0912 -0.27983,-0.15194 -0.1646,-0.062 -0.3368,-0.062 -0.0608,0 -0.12156,0.009 -0.0595,0.008 -0.11522,0.0304 -0.0494,0.019 -0.0848,0.0582 -0.0355,0.038 -0.0355,0.0874 0,0.0747 0.057,0.11522 0.057,0.0393 0.21525,0.0722 0.10383,0.0215 0.19879,0.0418 0.0962,0.0203 0.20639,0.0557 0.21652,0.0709 0.31908,0.19372 0.10383,0.12156 0.10383,0.31655 z"
         id="path236" /></g><path
       style="fill:url(#linearGradient5169);fill-opacity:1;stroke:#619f1e;stroke-width:0.251753;stroke-linecap:round;stroke-linejoin:round;stroke-opacity:1"
       d="m 140.40758,134.78092 0.0252,4.23959 2.55857,-2.05734 z"
       id="path183" /><g
       aria-label="P"
       transform="scale(1.4166969,0.70586729)"
       id="text9553"
       style="font-weight:bold;font-size:2.3773px;-inkscape-font-specification:'sans-serif, Bold';fill:#000080;stroke-width:11.9619;stroke-linecap:round;stroke-linejoin:round"><path
         d="m 102.48348,191.07562 q 0,0.11608 -0.0406,0.22752 -0.0406,0.11027 -0.11608,0.18572 -0.10331,0.10215 -0.23099,0.15439 -0.12653,0.0522 -0.31574,0.0522 h -0.27743 v 0.56299 h -0.44574 v -1.72842 h 0.73362 q 0.16483,0 0.27743,0.029 0.11376,0.0279 0.20082,0.0847 0.10447,0.0685 0.15902,0.17528 0.0557,0.10679 0.0557,0.25653 z m -0.46083,0.0105 q 0,-0.0731 -0.0395,-0.12537 -0.0395,-0.0534 -0.0917,-0.0743 -0.0696,-0.0279 -0.13581,-0.0302 -0.0662,-0.003 -0.17644,-0.003 h -0.0766 v 0.51771 h 0.12769 q 0.11376,0 0.18689,-0.0139 0.0743,-0.0139 0.1242,-0.0557 0.043,-0.0371 0.0615,-0.0882 0.0197,-0.0522 0.0197,-0.12653 z"
         id="path242" /></g><g
       aria-label="G"
       transform="scale(1.1683181,0.85593128)"
       id="text9607"
       style="font-weight:bold;font-size:2.19563px;-inkscape-font-specification:'sans-serif, Bold';fill:#008000;stroke-width:1.75334;stroke-linecap:round;stroke-linejoin:round"><path
         d="m 123.99324,160.73776 q -0.10721,0.0418 -0.2841,0.0836 -0.1769,0.0407 -0.35272,0.0407 -0.40739,0 -0.63789,-0.22085 -0.2305,-0.22192 -0.2305,-0.61216 0,-0.37201 0.23265,-0.59929 0.23264,-0.22836 0.64861,-0.22836 0.15759,0 0.30018,0.029 0.14259,0.0279 0.31734,0.11257 v 0.37416 h -0.0461 q -0.03,-0.0225 -0.0879,-0.0633 -0.0579,-0.0418 -0.1115,-0.0707 -0.0622,-0.0343 -0.1458,-0.059 -0.0825,-0.0247 -0.17582,-0.0247 -0.10936,0 -0.19834,0.0322 -0.089,0.0322 -0.15974,0.0986 -0.0675,0.0643 -0.10721,0.16403 -0.0386,0.0986 -0.0386,0.22835 0,0.26481 0.14044,0.40525 0.14044,0.14044 0.4149,0.14044 0.0236,0 0.0515,-0.001 0.0289,-0.001 0.0525,-0.003 v -0.31305 h -0.31841 v -0.30125 h 0.73652 z"
         id="path239" /></g></g></svg>
