<?xml version="1.0" encoding="UTF-8" standalone="no"?>
<!-- Created with Inkscape (http://www.inkscape.org/) -->

<svg
   width="223.23907"
   height="223.23907"
   viewBox="0 0 6.3639856 6.3639856"
   version="1.1"
   id="svg35290"
   xml:space="preserve"
   inkscape:version="1.2.2 (732a01da63, 2022-12-09)"
   sodipodi:docname="sql_32_p.svg"
   xmlns:inkscape="http://www.inkscape.org/namespaces/inkscape"
   xmlns:sodipodi="http://sodipodi.sourceforge.net/DTD/sodipodi-0.dtd"
   xmlns="http://www.w3.org/2000/svg"
   xmlns:svg="http://www.w3.org/2000/svg"><sodipodi:namedview
     id="namedview35292"
     pagecolor="#ffffff"
     bordercolor="#111111"
     borderopacity="1"
     inkscape:showpageshadow="0"
     inkscape:pageopacity="0"
     inkscape:pagecheckerboard="1"
     inkscape:deskcolor="#d1d1d1"
     inkscape:document-units="mm"
     showgrid="true"
     shape-rendering="auto"
     inkscape:zoom="1.9981322"
     inkscape:cx="-49.045804"
     inkscape:cy="146.38671"
     inkscape:window-width="1920"
     inkscape:window-height="1017"
     inkscape:window-x="-4"
     inkscape:window-y="-4"
     inkscape:window-maximized="1"
     inkscape:current-layer="layer1"><inkscape:grid
       type="xygrid"
       id="grid78338"
       originx="0"
       originy="0" /></sodipodi:namedview><defs
     id="defs35287"><rect
       x="115"
       y="65"
       width="65"
       height="44.999996"
       id="rect14260" /><linearGradient
       id="linearGradient101960"
       inkscape:swatch="solid"><stop
         style="stop-color:#564f66;stop-opacity:1;"
         offset="0"
         id="stop101958" /></linearGradient><inkscape:path-effect
       effect="fill_between_many"
       method="originald"
       linkedpaths="#path74159,0,1"
       id="path-effect74161"
       is_visible="true"
       lpeversion="0"
       join="true"
       close="true"
       autoreverse="true" /><inkscape:path-effect
       effect="fill_between_many"
       method="originald"
       linkedpaths="#path74159,0,1|#path74163,0,1"
       id="path-effect74165"
       is_visible="true"
       lpeversion="0"
       join="true"
       close="true"
       autoreverse="true" /><style
       id="style13965">.cls-1 { fill:#f9f9d1; }
.cls-2 { fill:#ac9230; }
</style></defs><g
     inkscape:label="Слой 1"
     inkscape:groupmode="layer"
     id="layer1"
     transform="translate(-139.05627,-133.79422)"><path
       class="cls-1"
       d="m 144.83469,135.61858 a 0.40894377,0.45113009 0 0 0 0.0847,-0.25927 c 0,-0.57039 -1.17512,-1.03707 -2.58528,-1.03707 -1.41014,0 -2.58527,0.46668 -2.58527,1.03707 a 0.40894377,0.45113009 0 0 0 0.0847,0.25927 0.36663924,0.40446145 0 0 0 0,0.51854 0.36663924,0.40446145 0 0 0 0,0.51855 0.36663924,0.40446145 0 0 0 0,0.51854 0.36663924,0.40446145 0 0 0 0,0.51854 0.36663924,0.40446145 0 0 0 0,0.51854 0.40894377,0.45113009 0 0 0 -0.0847,0.25927 c 0,0.57039 1.17513,1.03708 2.58527,1.03708 1.41016,0 2.58528,-0.46669 2.58528,-1.03708 a 0.40894377,0.45113009 0 0 0 -0.0847,-0.25927 0.36663924,0.40446145 0 0 0 0,-0.51854 0.36663924,0.40446145 0 0 0 0,-0.51854 0.36663924,0.40446145 0 0 0 0,-0.51854 0.36663924,0.40446145 0 0 0 0,-0.51855 0.36663924,0.40446145 0 0 0 0,-0.51854 z"
       id="path13971"
       style="display:inline;fill:#fff6d5;stroke-width:0.4937" /><ellipse
       class="cls-2  cls-1 "
       cx="142.33401"
       cy="135.35931"
       rx="2.5852766"
       ry="1.0370806"
       id="ellipse13973"
       style="display:inline;fill:#d4aa00;stroke-width:0.4937" /><path
       class="cls-2  cls-1 "
       d="m 142.33402,138.9891 c -1.20333,0 -2.21393,-0.33187 -2.50067,-0.77781 a 0.40894377,0.45113009 0 0 0 -0.0847,0.25927 c 0,0.57039 1.17513,1.03708 2.58527,1.03708 1.41016,0 2.58529,-0.46669 2.58529,-1.03708 a 0.40894377,0.45113009 0 0 0 -0.0847,-0.25927 c -0.28673,0.44594 -1.29734,0.77781 -2.50067,0.77781 z"
       id="path13975"
       style="display:inline;fill:#d4aa00;stroke-width:0.4937" /><path
       class="cls-2  cls-1 "
       d="m 142.33402,136.91494 c -1.20333,0 -2.21393,-0.33186 -2.50067,-0.77782 a 0.40894377,0.45113009 0 0 0 -0.0847,0.25928 c 0,0.57039 1.17513,1.03708 2.58527,1.03708 1.41016,0 2.58529,-0.46669 2.58529,-1.03708 a 0.40894377,0.45113009 0 0 0 -0.0847,-0.25928 c -0.28673,0.44596 -1.29734,0.77782 -2.50067,0.77782 z"
       id="path13977"
       style="display:inline;fill:#d4aa00;stroke-width:0.4937" /><path
       class="cls-2  cls-1 "
       d="m 142.33402,137.95202 c -1.20333,0 -2.21393,-0.33187 -2.50067,-0.77781 a 0.40894377,0.45113009 0 0 0 -0.0847,0.25927 c 0,0.57039 1.17513,1.03708 2.58527,1.03708 1.41016,0 2.58529,-0.46669 2.58529,-1.03708 a 0.40894377,0.45113009 0 0 0 -0.0847,-0.25927 c -0.28673,0.44594 -1.29734,0.77781 -2.50067,0.77781 z"
       id="path13979"
       style="display:inline;fill:#d4aa00;stroke-width:0.4937" /><ellipse
       style="display:inline;fill:#e6e6e6;fill-opacity:1;stroke:#008080;stroke-width:0.36891834;stroke-linecap:round;stroke-linejoin:round;stroke-dasharray:none;stroke-opacity:0.992157"
       id="path14109"
       cx="142.55319"
       cy="136.38202"
       rx="1.5369048"
       ry="1.5737121" /><rect
       style="fill:#008080;fill-opacity:1;stroke:none;stroke-width:0.375572;stroke-linecap:round;stroke-linejoin:round;stroke-dasharray:none;stroke-opacity:0.992157"
       id="rect14163"
       width="0.30705273"
       height="3.2660396"
       x="201.5407"
       y="-33.746758"
       transform="matrix(0.5905095,0.80703069,-0.66412128,0.74762486,0,0)" /><g
       transform="matrix(0.04311716,0,0,0.06185092,136.32376,131.48516)"
       id="text14258"><path
         d="m 132.09503,82.323282 q 0,2.721351 -2.31315,4.42838 -2.30078,1.694659 -6.2591,1.694659 -2.28841,0 -3.99544,-0.395833 -1.69466,-0.408202 -3.17903,-1.026691 v -4.41601 h 0.51953 q 1.472,1.175129 3.29036,1.805987 1.83072,0.630859 3.51301,0.630859 0.43294,0 1.13802,-0.07422 0.70508,-0.07422 1.15039,-0.247395 0.54427,-0.222656 0.89062,-0.55664 0.35873,-0.333984 0.35873,-0.989582 0,-0.606119 -0.51953,-1.039061 -0.50716,-0.445312 -1.49675,-0.680338 -1.03906,-0.247395 -2.20182,-0.457681 -1.15038,-0.222656 -2.16471,-0.55664 -2.32551,-0.754557 -3.3522,-2.041013 -1.01433,-1.298827 -1.01433,-3.216142 0,-2.572913 2.30078,-4.193354 2.31315,-1.63281 5.93749,-1.63281 1.81836,0 3.58724,0.358724 1.78125,0.346353 3.08007,0.878254 v 4.242832 h -0.50716 q -1.11328,-0.890623 -2.73372,-1.484373 -1.60807,-0.606119 -3.29036,-0.606119 -0.59375,0 -1.1875,0.08659 -0.58138,0.07422 -1.12565,0.296874 -0.48242,0.185547 -0.82877,0.56901 -0.34636,0.371093 -0.34636,0.853515 0,0.729816 0.55664,1.125649 0.55664,0.383463 2.10287,0.705077 1.01432,0.210287 1.94205,0.408203 0.9401,0.197916 2.01627,0.54427 2.11524,0.692707 3.11719,1.892576 1.01432,1.187498 1.01432,3.092443 z"
         id="path185" /><path
         d="m 146.9635,83.57263 q 0.69271,-0.841145 1.02669,-1.979164 0.33398,-1.150389 0.33398,-2.696611 0,-1.65755 -0.38346,-2.820309 -0.38346,-1.162759 -1.00195,-1.880206 -0.63086,-0.742186 -1.45963,-1.07617 -0.81641,-0.333984 -1.70703,-0.333984 -0.903,0 -1.70703,0.321614 -0.79167,0.321614 -1.45964,1.063801 -0.61848,0.692707 -1.01432,1.917315 -0.38346,1.212238 -0.38346,2.820309 0,1.64518 0.37109,2.807938 0.38347,1.15039 1.00195,1.880206 0.61849,0.729817 1.44727,1.076171 0.82877,0.346353 1.74414,0.346353 0.91536,0 1.74413,-0.346353 0.82878,-0.358724 1.44727,-1.10091 z m 0.50716,4.317051 q 0.0495,1.224608 0.66797,1.756508 0.61849,0.531901 2.11523,0.531901 0.50716,0 1.19987,-0.173177 0.6927,-0.173177 0.96484,-0.309244 h 0.47005 v 3.26562 q -0.69271,0.160807 -1.50911,0.284505 -0.80404,0.123698 -2.47396,0.123698 -1.472,0 -2.57291,-0.371094 -1.08854,-0.358723 -1.81836,-1.026691 -0.71744,-0.655598 -1.07617,-1.546222 -0.35872,-0.890624 -0.42057,-1.979164 -4.1315,-0.235026 -6.44465,-2.75846 -2.30078,-2.535804 -2.30078,-6.778636 0,-4.44075 2.52343,-7.013663 2.52344,-2.585283 6.96419,-2.585283 4.42838,0 6.96418,2.585283 2.5358,2.572913 2.5358,7.013663 0,3.27799 -1.48437,5.665357 -1.48437,2.374996 -4.30468,3.315099 z"
         id="path187" /><path
         d="M 170.16919,88.112337 H 156.88406 V 69.693742 h 4.74999 v 14.8561 h 8.53514 z"
         id="path189"
         style="display:inline" /></g></g></svg>
