<?xml version="1.0" encoding="UTF-8" standalone="no"?>
<!-- Created with Inkscape (http://www.inkscape.org/) -->

<svg
   width="59.065338mm"
   height="59.065338mm"
   viewBox="0 0 6.3639856 6.3639856"
   version="1.1"
   id="svg35290"
   xml:space="preserve"
   inkscape:version="1.2.2 (732a01da63, 2022-12-09)"
   sodipodi:docname="storedata.svg"
   xmlns:inkscape="http://www.inkscape.org/namespaces/inkscape"
   xmlns:sodipodi="http://sodipodi.sourceforge.net/DTD/sodipodi-0.dtd"
   xmlns:xlink="http://www.w3.org/1999/xlink"
   xmlns="http://www.w3.org/2000/svg"
   xmlns:svg="http://www.w3.org/2000/svg"><sodipodi:namedview
     id="namedview35292"
     pagecolor="#ffffff"
     bordercolor="#111111"
     borderopacity="1"
     inkscape:showpageshadow="0"
     inkscape:pageopacity="0"
     inkscape:pagecheckerboard="1"
     inkscape:deskcolor="#d1d1d1"
     inkscape:document-units="mm"
     showgrid="false"
     shape-rendering="auto"
     inkscape:zoom="1.4128928"
     inkscape:cx="263.28961"
     inkscape:cy="51.313163"
     inkscape:window-width="1920"
     inkscape:window-height="1017"
     inkscape:window-x="-4"
     inkscape:window-y="-4"
     inkscape:window-maximized="1"
     inkscape:current-layer="layer1" /><defs
     id="defs35287" /><g
     inkscape:label="Слой 1"
     inkscape:groupmode="layer"
     id="layer1"
     transform="translate(-139.05627,-133.79422)"><g
       id="g44569"
       transform="matrix(2.4952777,0,0,2.3985857,-238.70926,-184.61433)"><path
         style="fill:#f2f2f2;stroke-width:0.0285075"
         d="m 151.61687,135.09501 c -0.0676,-0.0676 -0.0676,-2.00934 0,-2.07697 0.0388,-0.0388 0.16335,-0.0448 0.93083,-0.0448 h 0.88603 l 0.15246,0.15245 0.15245,0.15246 v 0.88603 c 0,0.76748 -0.006,0.89203 -0.0448,0.93083 -0.0676,0.0676 -2.00934,0.0676 -2.07697,0 z m 0.46476,-0.89153 c -0.0725,-0.011 -0.13896,0.0603 -0.13896,0.14916 0,0.0495 0.0136,0.044 0.10172,-0.0411 l 0.10173,-0.0982 z"
         id="path44631" /><path
         style="fill:#edeef0;stroke-width:0.0285075"
         d="m 151.61687,135.09501 c -0.0676,-0.0676 -0.0676,-2.00934 0,-2.07697 0.0388,-0.0388 0.16335,-0.0448 0.93083,-0.0448 h 0.88603 l 0.15246,0.15245 0.15245,0.15246 v 0.88603 c 0,0.76748 -0.006,0.89203 -0.0448,0.93083 -0.0676,0.0676 -2.00934,0.0676 -2.07697,0 z m 0.67605,-0.88993 c -0.34834,-0.0103 -0.35025,-0.008 -0.35025,0.36241 v 0.27202 l 0.31419,-0.3131 0.31418,-0.31309 z m 0.10587,-1.16057 0.0713,-0.0407 -0.16392,-10e-4 c -0.0902,-5.6e-4 -0.16392,0.0108 -0.16392,0.0251 0,0.0641 0.15579,0.0742 0.25657,0.0166 z"
         id="path44629" /><path
         style="fill:#eaebeb;stroke-width:0.0285075"
         d="m 151.61925,135.08768 c -0.042,-0.0464 -0.0472,-0.16052 -0.0472,-1.03611 v -0.98397 l 0.0521,-0.0472 c 0.0461,-0.0417 0.1525,-0.0472 0.92074,-0.0472 h 0.86861 l 0.16255,0.15494 0.16254,0.15494 v 0.88116 0.88117 l -0.0521,0.0472 c -0.0464,0.042 -0.16052,0.0472 -1.03611,0.0472 h -0.98397 z m 0.74839,-0.88239 c -0.23041,-0.005 -0.35891,0.003 -0.38533,0.0249 -0.03,0.0249 -0.0396,0.1202 -0.0396,0.39248 v 0.35959 l 0.38533,-0.38446 0.38533,-0.38445 z m 0.15281,-1.07629 c 0.0585,-0.0398 0.1064,-0.0847 0.1064,-0.0998 0,-0.0155 -0.10582,-0.0275 -0.24232,-0.0275 h -0.24231 v 0.0998 0.0998 h 0.13592 c 0.0985,0 0.16519,-0.0199 0.24231,-0.0723 z"
         id="path44627" /><path
         style="fill:#e3e3e3;stroke-width:0.0285075"
         d="m 151.61925,135.08768 c -0.042,-0.0464 -0.0472,-0.16052 -0.0472,-1.03611 v -0.98397 l 0.0521,-0.0472 c 0.0461,-0.0417 0.1525,-0.0472 0.92074,-0.0472 h 0.86861 l 0.16255,0.15494 0.16254,0.15494 v 0.88116 0.88117 l -0.0521,0.0472 c -0.0464,0.042 -0.16052,0.0472 -1.03611,0.0472 h -0.98397 z m 0.96484,-0.4325 0.45545,-0.45612 h -0.51423 c -0.36194,0 -0.52436,0.0101 -0.54843,0.0342 -0.0432,0.0432 -0.0472,0.74341 -0.005,0.82289 0.064,0.11965 0.14507,0.0665 0.61191,-0.40098 z m -0.0554,-1.3081 c 0.10544,-0.0479 0.32625,-0.2658 0.32625,-0.32196 0,-0.0128 -0.16036,-0.0234 -0.35635,-0.0234 h -0.35634 v 0.19955 0.19955 l 0.13541,-6.2e-4 c 0.0745,-3.5e-4 0.18744,-0.0243 0.25103,-0.0531 z"
         id="path44625" /><path
         style="fill:#d8e3e9;stroke-width:0.0285075"
         d="m 151.61925,135.08768 c -0.042,-0.0464 -0.0472,-0.16052 -0.0472,-1.03611 v -0.98397 l 0.0521,-0.0472 c 0.0461,-0.0417 0.1525,-0.0472 0.92074,-0.0472 h 0.86861 l 0.16255,0.15494 0.16254,0.15494 v 0.88116 0.88117 l -0.0521,0.0472 c -0.0464,0.042 -0.16052,0.0472 -1.03611,0.0472 h -0.98397 z m 1.28691,-0.41247 c 0.23948,-0.23986 0.4264,-0.44511 0.41539,-0.45612 -0.0369,-0.0369 -1.30699,-0.0235 -1.34467,0.0142 -0.0432,0.0432 -0.0472,0.74341 -0.005,0.82289 0.0255,0.0477 0.0613,0.0551 0.26404,0.0551 h 0.23453 z m -0.25081,-1.15563 0.1568,-0.0776 0.008,-0.17737 0.008,-0.17738 h 0.10962 c 0.0711,0 0.11538,-0.015 0.12603,-0.0428 0.0142,-0.0369 -0.0475,-0.0428 -0.45307,-0.0428 h -0.46948 v 0.29695 c 0,0.21043 0.0104,0.30139 0.0356,0.31219 0.074,0.0316 0.32655,-0.0166 0.4775,-0.0913 z"
         id="path44623" /><path
         style="fill:#bbe5f7;stroke-width:0.0285075"
         d="m 151.61925,135.08768 c -0.042,-0.0464 -0.0472,-0.16052 -0.0472,-1.03611 v -0.98397 l 0.0521,-0.0472 c 0.0461,-0.0417 0.15247,-0.0472 0.92026,-0.0472 h 0.86813 l 0.16302,0.16474 0.16303,0.16475 v 0.87136 0.87136 l -0.0521,0.0472 c -0.0464,0.042 -0.16052,0.0472 -1.03611,0.0472 h -0.98397 z m 1.28905,-0.41461 c 0.24065,-0.24103 0.4265,-0.44493 0.41301,-0.45311 -0.0135,-0.008 -0.31681,-0.0194 -0.67403,-0.025 -0.55386,-0.009 -0.65348,-0.004 -0.67661,0.0326 -0.0368,0.0579 -0.0355,0.7595 0.002,0.82859 0.0255,0.0477 0.0613,0.0551 0.26404,0.0551 h 0.23453 z m -0.25295,-1.15349 0.1568,-0.0776 0.008,-0.17737 0.008,-0.17738 h 0.10962 c 0.0711,0 0.11538,-0.015 0.12603,-0.0428 0.0142,-0.0369 -0.0475,-0.0428 -0.45307,-0.0428 h -0.46948 v 0.29695 c 0,0.21043 0.0104,0.30139 0.0356,0.31219 0.074,0.0316 0.32655,-0.0166 0.4775,-0.0913 z"
         id="path44621" /><path
         style="fill:#d8dde1;stroke-width:0.0285075"
         d="m 151.62908,135.08279 -0.057,-0.057 v -0.96926 -0.96925 l 0.057,-0.057 0.057,-0.057 h 0.85979 0.85978 l 0.16649,0.16648 0.16648,0.16649 v 0.85978 0.85979 l -0.057,0.057 -0.057,0.057 -0.76258,-0.005 c -0.41941,-0.003 -0.67919,-0.01 -0.57727,-0.0154 l 0.1853,-0.01 0.43419,-0.43271 c 0.23881,-0.238 0.42336,-0.44356 0.41011,-0.45681 -0.0133,-0.0133 -0.30523,-0.0316 -0.64884,-0.0408 l -0.62474,-0.0167 -0.0498,0.0498 c -0.0435,0.0435 -0.0488,0.10057 -0.0419,0.45245 l 0.008,0.40263 0.0713,0.036 c 0.0639,0.0323 0.0498,0.0361 -0.13541,0.0364 -0.16903,3.4e-4 -0.21707,-0.01 -0.2637,-0.0566 z m 1.02627,-1.56321 0.1568,-0.0776 0.008,-0.17737 0.008,-0.17738 h 0.10962 c 0.0711,0 0.11538,-0.015 0.12603,-0.0428 0.0142,-0.0369 -0.0475,-0.0428 -0.45307,-0.0428 h -0.46948 v 0.29695 c 0,0.21043 0.0104,0.30139 0.0356,0.31219 0.074,0.0316 0.32655,-0.0166 0.4775,-0.0913 z"
         id="path44619" /><path
         style="fill:#dbdbdc;stroke-width:0.0285075"
         d="m 151.62908,135.08279 -0.057,-0.057 v -0.96926 -0.96925 l 0.057,-0.057 0.057,-0.057 h 0.85979 0.85978 l 0.16649,0.16648 0.16648,0.16649 v 0.85978 0.85979 l -0.057,0.057 -0.057,0.057 -0.76258,-0.005 c -0.41941,-0.003 -0.67919,-0.01 -0.57727,-0.0154 l 0.1853,-0.01 0.43419,-0.43271 c 0.23881,-0.238 0.42336,-0.44356 0.41011,-0.45681 -0.0133,-0.0133 -0.30523,-0.0316 -0.64884,-0.0408 l -0.62474,-0.0167 -0.0498,0.0498 c -0.0435,0.0435 -0.0488,0.10057 -0.0419,0.45245 l 0.008,0.40263 0.0713,0.036 c 0.0639,0.0323 0.0498,0.0361 -0.13541,0.0364 -0.16903,3.4e-4 -0.21707,-0.01 -0.2637,-0.0566 z m 1.14417,-1.45775 c 0.0435,-0.0435 0.0532,-0.097 0.0532,-0.29546 v -0.24231 h 0.12828 0.12829 v 0.11403 c 0,0.0627 0.0136,0.11403 0.0302,0.11403 0.0166,0 0.0223,-0.0128 0.0126,-0.0285 -0.01,-0.0157 -0.003,-0.0285 0.0143,-0.0285 0.0175,0 0.0239,-0.0128 0.0143,-0.0285 -0.01,-0.0157 -0.004,-0.0285 0.0117,-0.0285 0.0161,0 0.0211,-0.0214 0.0111,-0.0474 -0.0129,-0.0337 -0.008,-0.0409 0.0182,-0.0249 0.0273,0.0169 0.0313,0.006 0.016,-0.0417 -0.0139,-0.0437 -0.0103,-0.0579 0.0112,-0.0446 0.0174,0.0107 0.0316,0.006 0.0316,-0.0107 0,-0.0202 -0.18365,-0.0302 -0.55589,-0.0302 h -0.5559 v 0.32308 c 0,0.1777 0.009,0.33233 0.0205,0.34364 0.0113,0.0113 0.14133,0.0181 0.28894,0.0151 0.21914,-0.004 0.27815,-0.0152 0.32154,-0.0586 z"
         id="path44617" /><path
         style="fill:#d4d4d4;stroke-width:0.0285075"
         d="m 151.62908,135.08279 -0.057,-0.057 v -0.96926 -0.96925 l 0.057,-0.057 0.057,-0.057 h 0.85979 0.85978 l 0.16649,0.16648 0.16648,0.16649 v 0.85978 0.85979 l -0.057,0.057 -0.057,0.057 -0.76258,-0.006 c -0.41941,-0.003 -0.58939,-0.0102 -0.37772,-0.015 l 0.38485,-0.009 0.24944,-0.24808 0.24944,-0.24807 v -0.15906 c 0,-0.26419 0.0194,-0.25656 -0.70017,-0.27577 l -0.62709,-0.0167 -0.0498,0.0498 c -0.0435,0.0435 -0.0488,0.10057 -0.0419,0.45245 l 0.008,0.40263 0.0713,0.036 c 0.0639,0.0323 0.0498,0.0361 -0.13541,0.0364 -0.16903,3.4e-4 -0.21707,-0.01 -0.2637,-0.0566 z m 1.29877,-1.43872 0.0553,-0.0419 -0.0784,-9.1e-4 -0.0784,-9.1e-4 v -0.25656 -0.25657 h 0.12703 0.12704 l 0.008,0.20668 0.008,0.20668 0.0924,-0.15679 c 0.0527,-0.0894 0.0925,-0.19663 0.0926,-0.24944 l 2.7e-4,-0.0927 h -0.57015 -0.57015 v 0.32308 c 0,0.1777 0.009,0.33164 0.019,0.34209 0.0407,0.0406 0.70903,0.0207 0.76663,-0.0229 z"
         id="path44615" /><path
         style="fill:#cad1d7;stroke-width:0.0285075"
         d="m 151.62908,135.08279 -0.057,-0.057 v -0.96926 -0.96925 l 0.057,-0.057 0.057,-0.057 h 0.85979 0.85978 l 0.16649,0.16648 0.16648,0.16649 v 0.85978 0.85979 l -0.057,0.057 -0.057,0.057 -0.76258,-0.006 -0.76257,-0.006 0.60348,-0.0154 c 0.33191,-0.008 0.61414,-0.026 0.62716,-0.039 0.0433,-0.0432 0.046,-0.76835 0.003,-0.82619 -0.0342,-0.0462 -0.10467,-0.0534 -0.66537,-0.0684 l -0.62709,-0.0167 -0.0498,0.0498 c -0.0435,0.0435 -0.0488,0.10057 -0.0419,0.45245 l 0.008,0.40263 0.0713,0.036 c 0.0639,0.0323 0.0498,0.0361 -0.13541,0.0364 -0.16903,3.4e-4 -0.21707,-0.01 -0.2637,-0.0566 z m 1.55144,-1.51602 0.102,-0.11917 v -0.22292 -0.22293 h -0.57015 -0.57015 v 0.32308 c 0,0.1777 0.009,0.33164 0.019,0.34209 0.0105,0.0104 0.22113,0.019 0.46816,0.019 h 0.44914 z m -0.35412,-0.22293 v -0.25657 h 0.12828 0.12829 v 0.25657 0.25656 h -0.12829 -0.12828 z"
         id="path44613" /><path
         style="fill:#b1d5e6;stroke-width:0.0285075"
         d="m 151.62908,135.08279 -0.057,-0.057 v -0.96926 -0.96925 l 0.057,-0.057 0.057,-0.057 h 0.85979 0.85978 l 0.16649,0.16648 0.16648,0.16649 v 0.85978 0.85979 l -0.057,0.057 -0.057,0.057 -0.76258,-0.007 -0.76257,-0.007 0.59866,-0.008 c 0.52158,-0.007 0.60324,-0.0142 0.63429,-0.0559 0.054,-0.0725 0.0495,-0.78821 -0.005,-0.8336 -0.0273,-0.0227 -0.24712,-0.0394 -0.66363,-0.0505 l -0.62281,-0.0166 -0.0498,0.0498 c -0.0435,0.0435 -0.0488,0.10057 -0.0419,0.45245 l 0.008,0.40263 0.0713,0.036 c 0.0639,0.0323 0.0498,0.0361 -0.13541,0.0364 -0.16903,3.4e-4 -0.21707,-0.01 -0.2637,-0.0566 z m 1.63951,-1.4259 c 0.01,-0.016 0.0254,-0.16991 0.0345,-0.34209 l 0.0165,-0.31305 h -0.58868 -0.58867 v 0.32308 c 0,0.1777 0.009,0.33164 0.019,0.34209 0.0318,0.0318 1.08741,0.0223 1.10737,-0.01 z m -0.44219,-0.31305 v -0.25657 h 0.12828 0.12829 v 0.25657 0.25656 h -0.12829 -0.12828 z"
         id="path44611" /><path
         style="fill:#93d4f0;stroke-width:0.0285075"
         d="m 151.62908,135.08279 -0.057,-0.057 v -0.96926 -0.96925 l 0.057,-0.057 c 0.0472,-0.0472 0.0951,-0.057 0.27795,-0.0571 l 0.22094,-6e-5 -0.009,0.29789 c -0.005,0.1795 0.004,0.32115 0.0224,0.3564 l 0.0313,0.0585 h 0.53896 c 0.3351,0 0.54574,-0.011 0.5569,-0.029 0.01,-0.016 0.0254,-0.16957 0.0344,-0.34132 l 0.0165,-0.31229 -0.43897,-0.009 -0.43897,-0.009 0.48206,-0.006 0.48206,-0.006 0.16649,0.16648 0.16648,0.16649 v 0.85978 0.85979 l -0.057,0.057 c -0.0445,0.0445 -0.095,0.057 -0.22967,0.057 h -0.17266 l 0.0444,-0.0634 c 0.0649,-0.0927 0.0646,-0.79609 -4.2e-4,-0.8611 -0.0669,-0.0669 -1.26884,-0.0669 -1.33578,0 -0.0675,0.0675 -0.0655,0.79727 0.002,0.87233 l 0.0472,0.0521 h -0.17547 c -0.13745,0 -0.18781,-0.0123 -0.23248,-0.057 z m 1.19732,-1.73895 v -0.25657 h 0.12828 0.12829 v 0.25657 0.25656 h -0.12829 -0.12828 z"
         id="path44609" /><path
         style="fill:#b4cbd6;stroke-width:0.0285075"
         d="m 151.61958,135.0923 c -0.0264,-0.0264 -0.024,-2.05569 0.002,-2.07139 0.0118,-0.007 0.12721,-0.0219 0.25657,-0.0331 l 0.23518,-0.0205 v 0.30417 c 0,0.16729 0.0133,0.32898 0.0295,0.35931 l 0.0295,0.0551 h 0.53896 c 0.3351,0 0.54574,-0.011 0.5569,-0.029 0.01,-0.016 0.0253,-0.16921 0.0344,-0.34054 l 0.0164,-0.31151 -0.15385,-0.012 c -0.0846,-0.007 -0.0589,-0.008 0.0571,-0.003 l 0.21092,0.009 0.13868,0.1366 0.13868,0.1366 -0.008,0.91293 -0.008,0.91293 -0.19415,0.008 -0.19415,0.008 0.0302,-0.0565 c 0.0511,-0.0955 0.0391,-0.78847 -0.0146,-0.84215 -0.064,-0.064 -1.29782,-0.0674 -1.35065,-0.004 -0.0241,0.029 -0.0314,0.1672 -0.0249,0.47041 l 0.009,0.42935 -0.15917,-4e-5 c -0.0875,-2e-5 -0.16771,-0.009 -0.17817,-0.019 z m 1.20682,-1.74846 v -0.25657 h 0.12828 0.12829 v 0.25657 0.25656 h -0.12829 -0.12828 z"
         id="path44607" /><path
         style="fill:#98c1d6;stroke-width:0.0285075"
         d="m 151.61958,135.0923 c -0.0264,-0.0264 -0.024,-2.05569 0.002,-2.07139 0.0118,-0.007 0.12721,-0.0219 0.25657,-0.0331 l 0.23518,-0.0205 v 0.30417 c 0,0.16729 0.0133,0.32898 0.0295,0.35931 l 0.0295,0.0551 h 0.53964 0.53964 l 0.0295,-0.0551 c 0.0162,-0.0303 0.0295,-0.18363 0.0295,-0.34067 v -0.28553 l -0.14967,-0.0118 c -0.0823,-0.007 -0.0548,-0.008 0.0613,-0.003 l 0.21092,0.009 0.13868,0.1366 0.13868,0.1366 -0.008,0.91293 -0.008,0.91293 -0.19955,0.009 c -0.15971,0.007 -0.19244,0.001 -0.16392,-0.0271 0.0573,-0.0574 0.0494,-0.80465 -0.009,-0.86319 -0.064,-0.064 -1.29782,-0.0674 -1.35065,-0.004 -0.0241,0.029 -0.0314,0.1672 -0.0249,0.47041 l 0.009,0.42935 -0.15917,-4e-5 c -0.0875,-2e-5 -0.16771,-0.009 -0.17817,-0.019 z m 1.21951,-1.52846 c -0.008,-0.022 -0.0116,-0.13505 -0.007,-0.25118 l 0.008,-0.21114 h 0.11403 0.11403 v 0.24232 0.24231 l -0.10713,0.009 c -0.0721,0.006 -0.11215,-0.004 -0.12249,-0.0312 z"
         id="path44605" /><path
         style="fill:#89bbd5;stroke-width:0.0285075"
         d="m 151.61958,135.0923 c -0.0264,-0.0264 -0.024,-2.05569 0.002,-2.07139 0.0118,-0.007 0.12721,-0.0219 0.25657,-0.0331 l 0.23518,-0.0205 v 0.30417 c 0,0.16729 0.0133,0.32898 0.0295,0.35931 l 0.0295,0.0551 h 0.53494 c 0.37805,0 0.54497,-0.01 0.56915,-0.0342 0.0224,-0.0224 0.0342,-0.14064 0.0342,-0.34209 v -0.30788 h 0.0652 c 0.0402,0 0.11696,0.0525 0.19996,0.1368 l 0.13475,0.13681 -0.008,0.91084 -0.008,0.91085 -0.19955,0.009 c -0.15971,0.007 -0.19244,0.001 -0.16392,-0.0271 0.0573,-0.0574 0.0494,-0.80465 -0.009,-0.86319 -0.064,-0.064 -1.29782,-0.0674 -1.35065,-0.004 -0.0241,0.029 -0.0314,0.1672 -0.0249,0.47041 l 0.009,0.42935 -0.15917,-4e-5 c -0.0875,-2e-5 -0.16771,-0.009 -0.17817,-0.019 z m 1.20682,-1.74846 v -0.22806 h 0.12828 0.12829 v 0.22806 0.22806 h -0.12829 -0.12828 z"
         id="path44603" /><path
         style="fill:#61c3ec;stroke-width:0.0285075"
         d="m 151.61958,135.0923 c -0.0264,-0.0264 -0.024,-2.05569 0.002,-2.07139 0.0118,-0.007 0.12721,-0.0219 0.25657,-0.0331 l 0.23518,-0.0205 v 0.33014 0.33015 l 0.07,0.0458 c 0.0933,0.0611 1.00442,0.0507 1.08028,-0.0124 0.0385,-0.032 0.0471,-0.0958 0.0471,-0.34922 v -0.31009 h 0.0652 c 0.0402,0 0.11696,0.0525 0.19996,0.1368 l 0.13475,0.13681 -0.008,0.91084 -0.008,0.91085 -0.19955,0.009 c -0.15971,0.007 -0.19244,0.001 -0.16392,-0.0271 0.049,-0.049 0.0502,-0.82495 0.001,-0.87378 -0.0543,-0.0543 -1.31572,-0.048 -1.36124,0.007 -0.0241,0.029 -0.0314,0.1672 -0.0249,0.47041 l 0.009,0.42935 -0.15917,-4e-5 c -0.0875,-2e-5 -0.16771,-0.009 -0.17817,-0.019 z m 1.20682,-1.74846 v -0.22806 h 0.12828 0.12829 v 0.22806 0.22806 h -0.12829 -0.12828 z"
         id="path44601" /><path
         style="fill:#71aece;stroke-width:0.0285075"
         d="m 151.61958,135.0923 c -0.0366,-0.0366 -0.022,-2.01917 0.0152,-2.05634 0.0208,-0.0208 0.12163,-0.0342 0.25656,-0.0342 h 0.22236 v 0.31292 0.31293 l 0.07,0.0458 c 0.0933,0.0611 1.00442,0.0507 1.08028,-0.0124 0.0385,-0.032 0.0471,-0.0958 0.0471,-0.34922 v -0.31009 h 0.0652 c 0.0402,0 0.11696,0.0525 0.19996,0.1368 l 0.13475,0.13681 -0.008,0.91084 -0.008,0.91085 -0.19955,0.006 c -0.10976,0.003 -0.18352,-0.001 -0.16392,-0.01 0.0494,-0.021 0.0507,-0.83912 10e-4,-0.88843 -0.0537,-0.0537 -1.31567,-0.0481 -1.36062,0.006 -0.0232,0.028 -0.0308,0.17172 -0.0249,0.47042 l 0.009,0.43011 -0.15917,-5e-5 c -0.0875,-2e-5 -0.16771,-0.009 -0.17817,-0.019 z m 1.20682,-1.74846 v -0.22806 h 0.12828 0.12829 v 0.22806 0.22806 h -0.12829 -0.12828 z"
         id="path44599" /><path
         style="fill:#4ab8e9;stroke-width:0.0285075"
         d="m 151.61958,135.0923 c -0.0366,-0.0366 -0.022,-2.01917 0.0152,-2.05634 0.0208,-0.0208 0.12163,-0.0342 0.25656,-0.0342 h 0.22236 v 0.30916 c 0,0.42273 -0.0288,0.40352 0.60599,0.40352 0.62398,0 0.59133,0.0222 0.59133,-0.40114 v -0.31154 h 0.0652 c 0.0402,0 0.11696,0.0525 0.19996,0.1368 l 0.13475,0.13681 -0.008,0.91084 -0.008,0.91085 -0.17105,0.008 -0.17104,0.008 0.009,-0.43129 c 0.006,-0.29959 -0.002,-0.44359 -0.0249,-0.47159 -0.0493,-0.0594 -1.31501,-0.0594 -1.36429,0 -0.0232,0.028 -0.0308,0.17172 -0.0249,0.47042 l 0.009,0.43011 -0.15917,-5e-5 c -0.0875,-2e-5 -0.16771,-0.009 -0.17817,-0.019 z m 1.20682,-1.74846 v -0.22806 h 0.11403 0.11403 v 0.22806 0.22806 h -0.11403 -0.11403 z"
         id="path44597" /><path
         style="fill:#31baed;stroke-width:0.0285075"
         d="m 151.63479,135.07709 c -0.049,-0.049 -0.049,-1.99211 0,-2.04113 0.0208,-0.0208 0.12163,-0.0342 0.25656,-0.0342 h 0.22236 v 0.31154 c 0,0.42311 -0.0322,0.40114 0.58832,0.40114 0.28926,0 0.52187,-0.0124 0.55386,-0.0295 0.0496,-0.0265 0.0551,-0.0624 0.0551,-0.35634 v -0.32683 h 0.0611 c 0.0351,0 0.1201,0.059 0.19956,0.13846 l 0.13846,0.13847 v 0.8821 c 0,0.64807 -0.009,0.89118 -0.0342,0.91631 -0.0188,0.0188 -0.099,0.0342 -0.17817,0.0343 l -0.14396,5e-5 0.009,-0.43011 c 0.006,-0.2987 -0.002,-0.44242 -0.0249,-0.47042 -0.0493,-0.0594 -1.31501,-0.0594 -1.36429,0 -0.0232,0.028 -0.0308,0.17172 -0.0249,0.47042 l 0.009,0.43011 -0.14396,-5e-5 c -0.0792,-2e-5 -0.15936,-0.0154 -0.17817,-0.0343 z m 1.19161,-1.73325 v -0.22806 h 0.11403 0.11403 v 0.22806 0.22806 h -0.11403 -0.11403 z"
         id="path44595" /><path
         style="fill:#2eb8ec;stroke-width:0.0285075"
         d="m 151.63479,135.07709 c -0.025,-0.025 -0.0342,-0.25018 -0.0342,-0.83503 v -0.80083 l 0.12828,-0.1259 c 0.10056,-0.0987 0.12828,-0.14618 0.12828,-0.21974 v -0.0938 h 0.12829 0.12828 v 0.31154 c 0,0.42311 -0.0322,0.40114 0.58832,0.40114 0.28926,0 0.52187,-0.0124 0.55386,-0.0295 0.0496,-0.0265 0.0551,-0.0624 0.0551,-0.35634 0,-0.39341 0.0212,-0.40835 0.25041,-0.17627 l 0.14869,0.15056 v 0.87001 c 0,0.63866 -0.009,0.8791 -0.0342,0.90421 -0.0188,0.0188 -0.099,0.0342 -0.17817,0.0343 l -0.14396,5e-5 0.009,-0.43011 c 0.006,-0.2987 -0.002,-0.44242 -0.0249,-0.47042 -0.0271,-0.0326 -0.15696,-0.0402 -0.67851,-0.0399 -0.35478,2.4e-4 -0.66174,0.011 -0.68213,0.024 -0.0285,0.0181 -0.0351,0.12716 -0.0285,0.46998 l 0.009,0.44646 -0.14396,-4e-5 c -0.0792,-2e-5 -0.15936,-0.0154 -0.17817,-0.0343 z m 1.19161,-1.73325 v -0.22806 h 0.11403 0.11403 v 0.22806 0.22806 h -0.11403 -0.11403 z"
         id="path44593" /><path
         style="fill:#2ab2ea;stroke-width:0.0285075"
         d="m 151.63479,135.07709 c -0.0239,-0.0239 -0.0342,-0.18004 -0.0342,-0.51943 v -0.48523 l 0.15995,-0.16163 c 0.11862,-0.11988 0.1536,-0.17291 0.13541,-0.20525 -0.0135,-0.024 -0.0206,-0.19216 -0.0157,-0.37371 l 0.009,-0.33009 h 0.11231 0.1123 v 0.31154 c 0,0.42311 -0.0322,0.40114 0.58832,0.40114 0.28926,0 0.52187,-0.0124 0.55386,-0.0295 0.0496,-0.0265 0.0551,-0.0624 0.0551,-0.35634 0,-0.39341 0.0212,-0.40835 0.25041,-0.17627 l 0.14869,0.15056 v 0.87001 c 0,0.63866 -0.009,0.8791 -0.0342,0.90421 -0.0188,0.0188 -0.099,0.0342 -0.17817,0.0343 l -0.14396,4e-5 0.008,-0.4373 c 0.007,-0.35102 4.8e-4,-0.44393 -0.0321,-0.47094 -0.0292,-0.0242 -0.22669,-0.0315 -0.70691,-0.026 l -0.66636,0.008 v 0.46327 0.46326 l -0.14396,-2e-5 c -0.0792,-10e-6 -0.15936,-0.0154 -0.17817,-0.0342 z m 1.19161,-1.73325 v -0.22806 h 0.11403 0.11403 v 0.22806 0.22806 h -0.11403 -0.11403 z"
         id="path44591" /><path
         style="fill:#26ade8;stroke-width:0.0285075"
         d="m 151.63479,135.07709 c -0.0572,-0.0572 -0.0408,-0.0893 0.13454,-0.26285 l 0.16875,-0.16698 0.009,0.23209 0.009,0.23209 -0.14396,-7e-5 c -0.0792,-4e-5 -0.15936,-0.0155 -0.17817,-0.0343 z m 1.72758,-0.39581 c 0.006,-0.2987 -0.002,-0.44243 -0.0249,-0.47042 -0.0262,-0.0316 -0.12968,-0.0403 -0.47819,-0.0403 h -0.44474 l 0.19802,-0.19955 0.19803,-0.19955 h -0.40734 c -0.22628,0 -0.43186,-0.0131 -0.46249,-0.0295 l -0.0551,-0.0295 v -0.35534 -0.35534 h 0.11403 0.11403 v 0.31154 c 0,0.42311 -0.0322,0.40114 0.58832,0.40114 0.28926,0 0.52187,-0.0124 0.55386,-0.0295 0.0496,-0.0265 0.0551,-0.0624 0.0551,-0.35634 0,-0.19888 0.0112,-0.32683 0.0285,-0.32683 0.0157,0 0.0285,0.0471 0.0285,0.10474 v 0.10475 l 0.0657,-0.0617 0.0657,-0.0617 0.10533,0.10786 0.10532,0.10786 v 0.8697 c 0,0.63843 -0.009,0.8788 -0.0342,0.90391 -0.0188,0.0188 -0.099,0.0342 -0.17817,0.0343 l -0.14396,5e-5 0.009,-0.43011 z m -0.53597,-1.33744 v -0.22806 h 0.11403 0.11403 v 0.22806 0.22806 h -0.11403 -0.11403 z"
         id="path44589" /><path
         style="fill:#23aae6;stroke-width:0.0285075"
         d="m 153.35379,134.64808 v -0.46327 l -0.15046,-0.0143 -0.15045,-0.0143 0.32862,-0.32737 0.32863,-0.32737 v 0.77066 c 0,0.5614 -0.009,0.77995 -0.0342,0.80487 -0.0188,0.0188 -0.099,0.0342 -0.17817,0.0342 l -0.14396,2e-5 z m -1.66769,0.30643 c 0,-0.057 0.0142,-0.0713 0.0713,-0.0713 0.057,0 0.0713,0.0143 0.0713,0.0713 0,0.057 -0.0143,0.0713 -0.0713,0.0713 -0.057,0 -0.0713,-0.0143 -0.0713,-0.0713 z m 0.28507,-1.20384 c -0.0756,-0.0288 -0.0846,-0.0729 -0.0851,-0.41396 l -4.4e-4,-0.33496 h 0.11403 0.11403 v 0.31154 c 0,0.42311 -0.0322,0.40114 0.58832,0.40114 0.28926,0 0.52187,-0.0124 0.55386,-0.0295 0.0496,-0.0265 0.0551,-0.0624 0.0551,-0.35634 0,-0.19888 0.0112,-0.32683 0.0285,-0.32683 0.0174,0 0.0285,0.12828 0.0285,0.32783 0,0.28983 -0.007,0.33445 -0.057,0.38485 l -0.057,0.057 -0.62004,-0.002 c -0.34102,-0.001 -0.63928,-0.01 -0.6628,-0.0185 z m 0.85523,-0.40683 v -0.22806 h 0.11403 0.11403 v 0.22806 0.22806 h -0.11403 -0.11403 z"
         id="path44587" /><path
         style="fill:#20a5e4;stroke-width:0.0285075"
         d="m 153.36261,134.80233 0.009,-0.30908 0.16935,-0.16758 0.16935,-0.16758 v 0.44239 c 0,0.30608 -0.0105,0.45294 -0.0342,0.47661 -0.0188,0.0188 -0.099,0.0342 -0.17817,0.0343 l -0.14396,6e-5 0.009,-0.30909 z m -1.67651,0.15218 c 0,-0.057 0.0142,-0.0713 0.0713,-0.0713 0.057,0 0.0713,0.0143 0.0713,0.0713 0,0.057 -0.0143,0.0713 -0.0713,0.0713 -0.057,0 -0.0713,-0.0143 -0.0713,-0.0713 z m 0.52887,-1.20437 c -0.14029,-0.005 -0.27178,-0.0234 -0.2922,-0.0404 -0.0267,-0.0221 -0.0371,-0.12608 -0.0371,-0.3694 v -0.3386 h 0.11403 0.11403 v 0.31154 c 0,0.42311 -0.0322,0.40114 0.58832,0.40114 0.28926,0 0.52187,-0.0124 0.55386,-0.0295 0.0496,-0.0265 0.0551,-0.0624 0.0551,-0.35634 0,-0.19888 0.0112,-0.32683 0.0285,-0.32683 0.0173,0 0.0285,0.12396 0.0285,0.31488 v 0.31487 l -0.07,0.07 -0.07,0.07 -0.37902,-0.006 c -0.20847,-0.003 -0.49381,-0.0102 -0.63411,-0.0155 z m 0.61143,-0.4063 v -0.22806 h 0.11403 0.11403 v 0.22806 0.22806 h -0.11403 -0.11403 z"
         id="path44585" /><path
         style="fill:#25a6dd;stroke-width:0.0285075"
         d="m 153.36222,135.01508 c 0.008,-0.0718 0.0539,-0.13845 0.17957,-0.2628 l 0.16834,-0.16658 v 0.22859 c 0,0.27136 -0.0185,0.29701 -0.21378,0.29701 h -0.14537 z m -1.67612,-0.0606 c 0,-0.057 0.0142,-0.0713 0.0713,-0.0713 0.057,0 0.0713,0.0143 0.0713,0.0713 0,0.057 -0.0143,0.0713 -0.0713,0.0713 -0.057,0 -0.0713,-0.0143 -0.0713,-0.0713 z m 0.22906,-1.26671 c -0.0162,-0.0303 -0.0295,-0.1971 -0.0295,-0.3706 v -0.31545 h 0.11403 0.11403 v 0.31154 c 0,0.42311 -0.0322,0.40114 0.58832,0.40114 0.28926,0 0.52187,-0.0124 0.55386,-0.0295 0.0496,-0.0265 0.0551,-0.0624 0.0551,-0.35634 0,-0.19888 0.0112,-0.32683 0.0285,-0.32683 0.0173,0 0.0285,0.12353 0.0285,0.31358 0,0.27557 -0.007,0.32049 -0.057,0.3706 l -0.057,0.057 h -0.65467 -0.65467 z m 0.91124,-0.34396 v -0.22806 h 0.11403 0.11403 v 0.22806 0.22806 h -0.11403 -0.11403 z"
         id="path44583" /><path
         style="fill:#1ea3e4;stroke-width:0.0285075"
         d="m 153.36222,135.01508 c 0.008,-0.0718 0.0539,-0.13845 0.17957,-0.2628 l 0.16834,-0.16658 v 0.22859 c 0,0.27136 -0.0185,0.29701 -0.21378,0.29701 h -0.14537 z m -1.65712,-0.008 c -0.0485,-0.0485 -0.0168,-0.12353 0.0523,-0.12353 0.057,0 0.0713,0.0143 0.0713,0.0713 0,0.069 -0.075,0.10077 -0.12354,0.0523 z m 0.21006,-1.31897 c -0.0162,-0.0303 -0.0295,-0.1971 -0.0295,-0.3706 v -0.31545 h 0.11403 0.11403 v 0.32683 c 0,0.29395 0.006,0.3298 0.0551,0.35634 0.0729,0.039 1.01415,0.039 1.08704,0 0.0491,-0.0263 0.0558,-0.066 0.0612,-0.36347 l 0.006,-0.33396 0.009,0.32452 c 0.008,0.27316 0.002,0.33294 -0.039,0.37773 l -0.0481,0.0532 h -0.65026 -0.65025 z m 0.91124,-0.34396 v -0.22806 h 0.11403 0.11403 v 0.22806 0.22806 h -0.11403 -0.11403 z"
         id="path44581" /><path
         style="fill:#4b95ba;stroke-width:0.0285075"
         d="m 151.7051,135.00677 c -0.0485,-0.0485 -0.0168,-0.12353 0.0523,-0.12353 0.057,0 0.0713,0.0143 0.0713,0.0713 0,0.069 -0.075,0.10077 -0.12354,0.0523 z m 1.77697,-0.0523 c 0,-0.057 0.0143,-0.0713 0.0713,-0.0713 0.057,0 0.0713,0.0143 0.0713,0.0713 0,0.057 -0.0143,0.0713 -0.0713,0.0713 -0.057,0 -0.0713,-0.0143 -0.0713,-0.0713 z m -0.74966,-1.23881 c 0.29098,-0.009 0.5316,-0.0282 0.54777,-0.0445 0.0159,-0.0159 0.033,-0.17627 0.038,-0.35634 l 0.009,-0.32741 0.006,0.33335 0.006,0.33335 -0.0633,0.0444 c -0.0524,0.0367 -0.15017,0.0434 -0.56303,0.0385 l -0.49966,-0.006 z m -0.60424,-0.0294 c -0.01,-0.0162 10e-4,-0.0209 0.0268,-0.0112 0.0494,0.0189 0.0584,0.0394 0.0174,0.0394 -0.0148,0 -0.0347,-0.0127 -0.0442,-0.0282 z m -0.0322,-0.37092 c 0,-0.18031 0.005,-0.25407 0.0103,-0.16392 0.006,0.0902 0.006,0.23768 0,0.32784 -0.006,0.0901 -0.0103,0.0164 -0.0103,-0.16392 z m 0.73041,0.0285 v -0.22806 h 0.11403 0.11403 v 0.22806 0.22806 h -0.11403 -0.11403 z"
         id="path44579" /><path
         style="fill:#1c99d9;stroke-width:0.0285075"
         d="m 151.7051,135.00677 c -0.0485,-0.0485 -0.0168,-0.12353 0.0523,-0.12353 0.057,0 0.0713,0.0143 0.0713,0.0713 0,0.069 -0.075,0.10077 -0.12354,0.0523 z m 1.77697,-0.0523 c 0,-0.057 0.0143,-0.0713 0.0713,-0.0713 0.057,0 0.0713,0.0143 0.0713,0.0713 0,0.057 -0.0143,0.0713 -0.0713,0.0713 -0.057,0 -0.0713,-0.0143 -0.0713,-0.0713 z m -0.74966,-1.23881 c 0.29098,-0.009 0.5316,-0.0282 0.54777,-0.0445 0.0159,-0.0159 0.033,-0.17627 0.038,-0.35634 l 0.009,-0.32741 0.006,0.33335 0.006,0.33335 -0.0633,0.0444 c -0.0524,0.0367 -0.15017,0.0434 -0.56303,0.0385 l -0.49966,-0.006 z m -0.60424,-0.0294 c -0.01,-0.0162 10e-4,-0.0209 0.0268,-0.0112 0.0494,0.0189 0.0584,0.0394 0.0174,0.0394 -0.0148,0 -0.0347,-0.0127 -0.0442,-0.0282 z m -0.0322,-0.37092 c 0,-0.18031 0.005,-0.25407 0.0103,-0.16392 0.006,0.0902 0.006,0.23768 0,0.32784 -0.006,0.0901 -0.0103,0.0164 -0.0103,-0.16392 z m 0.75892,0.0285 v -0.22806 h 0.0998 0.0998 v 0.22806 0.22806 h -0.0998 -0.0998 z"
         id="path44577" /><path
         style="fill:#239bd0;stroke-width:0.0285075"
         d="m 151.69693,134.98438 c -0.0221,-0.0576 0.0108,-0.10114 0.0764,-0.10114 0.04,0 0.0553,0.0197 0.0553,0.0713 0,0.0803 -0.10337,0.10371 -0.13171,0.0299 z m 1.80513,0.0234 c -0.0489,-0.0489 -0.0195,-0.12841 0.0442,-0.11937 0.0419,0.006 0.0641,0.0287 0.0641,0.0657 0,0.0566 -0.0705,0.0915 -0.1083,0.0536 z m -0.18015,-1.67818 c 6e-5,-0.18815 0.005,-0.26141 0.0102,-0.1628 0.006,0.0986 0.006,0.25255 -1e-4,0.34209 -0.006,0.0895 -0.0102,0.009 -0.0102,-0.17929 z m -0.467,0.0143 v -0.22806 h 0.0998 0.0998 v 0.22806 0.22806 h -0.0998 -0.0998 z"
         id="path44575" /><path
         style="fill:#1579ab;stroke-width:0.0285075"
         d="m 151.71461,134.94026 c 0,-0.038 0.019,-0.057 0.057,-0.057 0.038,0 0.057,0.019 0.057,0.057 0,0.038 -0.019,0.057 -0.057,0.057 -0.038,0 -0.057,-0.019 -0.057,-0.057 z m 1.76746,0 c 0,-0.038 0.019,-0.057 0.057,-0.057 0.038,0 0.057,0.019 0.057,0.057 0,0.038 -0.019,0.057 -0.057,0.057 -0.038,0 -0.057,-0.019 -0.057,-0.057 z m -0.62716,-1.59642 v -0.22806 h 0.0998 0.0998 v 0.22806 0.22806 h -0.0998 -0.0998 z"
         id="path44573" /><path
         style="fill:#105898;stroke-width:0.0285075"
         d="m 151.71461,134.95451 c 0,-0.0238 0.0253,-0.0428 0.057,-0.0428 0.0317,0 0.057,0.019 0.057,0.0428 0,0.0238 -0.0253,0.0428 -0.057,0.0428 -0.0317,0 -0.057,-0.019 -0.057,-0.0428 z m 1.79597,0 c 0,-0.0235 0.0192,-0.0428 0.0428,-0.0428 0.0235,0 0.0428,0.0192 0.0428,0.0428 0,0.0235 -0.0192,0.0428 -0.0428,0.0428 -0.0235,0 -0.0428,-0.0192 -0.0428,-0.0428 z"
         id="path44571" /></g><path
       style="opacity:1;fill:none;fill-opacity:0.933333;stroke:#90908f;stroke-width:0.0285075;stroke-linecap:round;stroke-linejoin:round;stroke-dasharray:none;stroke-opacity:1"
       d="m 140.89235,137.72867 h 2.54226 z"
       id="path44687" /><use
       x="0"
       y="0"
       xlink:href="#path44687"
       id="use44689"
       transform="translate(0,0.50441705)" /><use
       x="0"
       y="0"
       xlink:href="#path44687"
       id="use44691"
       transform="translate(0,1.0088341)" /></g></svg>
